%TF.GenerationSoftware,KiCad,Pcbnew,9.0.2*%
%TF.CreationDate,2025-05-13T19:13:24+05:30*%
%TF.ProjectId,transisted,7472616e-7369-4737-9465-642e6b696361,rev?*%
%TF.SameCoordinates,Original*%
%TF.FileFunction,Copper,L1,Top*%
%TF.FilePolarity,Positive*%
%FSLAX46Y46*%
G04 Gerber Fmt 4.6, Leading zero omitted, Abs format (unit mm)*
G04 Created by KiCad (PCBNEW 9.0.2) date 2025-05-13 19:13:24*
%MOMM*%
%LPD*%
G01*
G04 APERTURE LIST*
G04 Aperture macros list*
%AMRoundRect*
0 Rectangle with rounded corners*
0 $1 Rounding radius*
0 $2 $3 $4 $5 $6 $7 $8 $9 X,Y pos of 4 corners*
0 Add a 4 corners polygon primitive as box body*
4,1,4,$2,$3,$4,$5,$6,$7,$8,$9,$2,$3,0*
0 Add four circle primitives for the rounded corners*
1,1,$1+$1,$2,$3*
1,1,$1+$1,$4,$5*
1,1,$1+$1,$6,$7*
1,1,$1+$1,$8,$9*
0 Add four rect primitives between the rounded corners*
20,1,$1+$1,$2,$3,$4,$5,0*
20,1,$1+$1,$4,$5,$6,$7,0*
20,1,$1+$1,$6,$7,$8,$9,0*
20,1,$1+$1,$8,$9,$2,$3,0*%
G04 Aperture macros list end*
%TA.AperFunction,ComponentPad*%
%ADD10C,2.000000*%
%TD*%
%TA.AperFunction,ComponentPad*%
%ADD11C,1.440000*%
%TD*%
%TA.AperFunction,ComponentPad*%
%ADD12C,1.600000*%
%TD*%
%TA.AperFunction,ComponentPad*%
%ADD13R,1.100000X1.800000*%
%TD*%
%TA.AperFunction,ComponentPad*%
%ADD14RoundRect,0.275000X0.275000X0.625000X-0.275000X0.625000X-0.275000X-0.625000X0.275000X-0.625000X0*%
%TD*%
%TA.AperFunction,ComponentPad*%
%ADD15R,1.800000X1.800000*%
%TD*%
%TA.AperFunction,ComponentPad*%
%ADD16C,1.800000*%
%TD*%
%TA.AperFunction,ViaPad*%
%ADD17C,0.600000*%
%TD*%
%TA.AperFunction,Conductor*%
%ADD18C,0.200000*%
%TD*%
G04 APERTURE END LIST*
D10*
%TO.P,SW2,1,1*%
%TO.N,Net-(Q1-B)*%
X77000000Y-103500000D03*
X70500000Y-103500000D03*
%TO.P,SW2,2,2*%
%TO.N,Net-(Q2-B)*%
X77000000Y-108000000D03*
X70500000Y-108000000D03*
%TD*%
%TO.P,SW1,1,1*%
%TO.N,Net-(Q1-B)*%
X104000000Y-102000000D03*
X97500000Y-102000000D03*
%TO.P,SW1,2,2*%
%TO.N,Net-(Q1-C)*%
X104000000Y-106500000D03*
X97500000Y-106500000D03*
%TD*%
D11*
%TO.P,RV1,1,1*%
%TO.N,Net-(Q2-E)*%
X116440000Y-64040000D03*
%TO.P,RV1,2,2*%
%TO.N,Net-(D3-A)*%
X113900000Y-61500000D03*
%TO.P,RV1,3,3*%
%TO.N,Net-(BT1--)*%
X116440000Y-58960000D03*
%TD*%
D12*
%TO.P,R1,1*%
%TO.N,Net-(Q1-C)*%
X57810000Y-86000000D03*
%TO.P,R1,2*%
%TO.N,Net-(BT1-+)*%
X50190000Y-86000000D03*
%TD*%
D13*
%TO.P,Q2,1,C*%
%TO.N,Net-(Q1-C)*%
X84270000Y-105670000D03*
D14*
%TO.P,Q2,2,B*%
%TO.N,Net-(Q2-B)*%
X83000000Y-103600000D03*
%TO.P,Q2,3,E*%
%TO.N,Net-(Q2-E)*%
X81730000Y-105670000D03*
%TD*%
D13*
%TO.P,Q1,1,C*%
%TO.N,Net-(Q1-C)*%
X92270000Y-105670000D03*
D14*
%TO.P,Q1,2,B*%
%TO.N,Net-(Q1-B)*%
X91000000Y-103600000D03*
%TO.P,Q1,3,E*%
%TO.N,Net-(D1-A)*%
X89730000Y-105670000D03*
%TD*%
D15*
%TO.P,D3,1,K*%
%TO.N,Net-(BT1--)*%
X125725000Y-52500000D03*
D16*
%TO.P,D3,2,A*%
%TO.N,Net-(D3-A)*%
X128265000Y-52500000D03*
%TD*%
D15*
%TO.P,D2,1,K*%
%TO.N,Net-(BT1--)*%
X51225000Y-69500000D03*
D16*
%TO.P,D2,2,A*%
%TO.N,Net-(D1-A)*%
X53765000Y-69500000D03*
%TD*%
D15*
%TO.P,D1,1,K*%
%TO.N,Net-(BT1--)*%
X75960000Y-66500000D03*
D16*
%TO.P,D1,2,A*%
%TO.N,Net-(D1-A)*%
X78500000Y-66500000D03*
%TD*%
D17*
%TO.N,Net-(BT1--)*%
X78000000Y-69000000D03*
%TO.N,Net-(D1-A)*%
X54000000Y-68000000D03*
%TO.N,Net-(BT1--)*%
X52000000Y-68500000D03*
%TD*%
D18*
%TO.N,Net-(BT1--)*%
X78000000Y-69000000D02*
X75960000Y-66960000D01*
X75960000Y-66960000D02*
X75960000Y-66500000D01*
%TO.N,Net-(Q1-B)*%
X91000000Y-104000000D02*
X88000000Y-101000000D01*
X88000000Y-101000000D02*
X79500000Y-101000000D01*
X79500000Y-101000000D02*
X77000000Y-103500000D01*
X91000000Y-104000000D02*
X95500000Y-104000000D01*
X95500000Y-104000000D02*
X97500000Y-102000000D01*
%TO.N,Net-(Q1-C)*%
X97500000Y-106500000D02*
X96270000Y-105270000D01*
X96270000Y-105270000D02*
X92270000Y-105270000D01*
X87099000Y-108099000D02*
X90500000Y-108099000D01*
X84270000Y-105270000D02*
X87099000Y-108099000D01*
X90500000Y-108099000D02*
X92270000Y-106329000D01*
X92270000Y-106329000D02*
X92270000Y-105270000D01*
%TO.N,Net-(Q2-B)*%
X77000000Y-108000000D02*
X81000000Y-104000000D01*
X81000000Y-104000000D02*
X83000000Y-104000000D01*
X70500000Y-108000000D02*
X77000000Y-108000000D01*
%TO.N,Net-(Q1-B)*%
X77000000Y-103500000D02*
X70500000Y-103500000D01*
%TO.N,Net-(D3-A)*%
X113900000Y-61500000D02*
X122000000Y-61500000D01*
X122000000Y-61500000D02*
X128265000Y-55235000D01*
X128265000Y-55235000D02*
X128265000Y-52500000D01*
%TO.N,Net-(Q1-C)*%
X104000000Y-106500000D02*
X97500000Y-106500000D01*
%TO.N,Net-(Q1-B)*%
X104000000Y-102000000D02*
X97500000Y-102000000D01*
%TO.N,Net-(Q2-E)*%
X116440000Y-64040000D02*
X110000000Y-70480000D01*
X108000000Y-87500000D02*
X108000000Y-89000000D01*
X110000000Y-70480000D02*
X110000000Y-74500000D01*
X110000000Y-74500000D02*
X114000000Y-78500000D01*
X114000000Y-78500000D02*
X114000000Y-81500000D01*
X105500000Y-98500000D02*
X105500000Y-108000000D01*
X105500000Y-108000000D02*
X105000000Y-108500000D01*
X114000000Y-81500000D02*
X108000000Y-87500000D01*
X108000000Y-89000000D02*
X110500000Y-91500000D01*
X105000000Y-108500000D02*
X84960000Y-108500000D01*
X110500000Y-91500000D02*
X110500000Y-93500000D01*
X110500000Y-93500000D02*
X105500000Y-98500000D01*
X84960000Y-108500000D02*
X81730000Y-105270000D01*
%TO.N,Net-(BT1--)*%
X116440000Y-58960000D02*
X119265000Y-58960000D01*
X119265000Y-58960000D02*
X125725000Y-52500000D01*
%TO.N,Net-(D1-A)*%
X53765000Y-69500000D02*
X53765000Y-68235000D01*
X53765000Y-68235000D02*
X54000000Y-68000000D01*
%TO.N,Net-(BT1--)*%
X51225000Y-69500000D02*
X51225000Y-69275000D01*
X51225000Y-69275000D02*
X52000000Y-68500000D01*
%TD*%
M02*
