%TF.GenerationSoftware,KiCad,Pcbnew,9.0.2*%
%TF.CreationDate,2025-05-13T19:13:25+05:30*%
%TF.ProjectId,transisted,7472616e-7369-4737-9465-642e6b696361,rev?*%
%TF.SameCoordinates,Original*%
%TF.FileFunction,Legend,Top*%
%TF.FilePolarity,Positive*%
%FSLAX46Y46*%
G04 Gerber Fmt 4.6, Leading zero omitted, Abs format (unit mm)*
G04 Created by KiCad (PCBNEW 9.0.2) date 2025-05-13 19:13:25*
%MOMM*%
%LPD*%
G01*
G04 APERTURE LIST*
%ADD10C,0.000000*%
%ADD11C,0.120000*%
G04 APERTURE END LIST*
D10*
%TO.C,G\u002A\u002A\u002A*%
G36*
X63934455Y-28477340D02*
G01*
X64086364Y-28892464D01*
X64242440Y-29521278D01*
X64394838Y-30312189D01*
X64535710Y-31213601D01*
X64657210Y-32173921D01*
X64751491Y-33141556D01*
X64810706Y-34064910D01*
X64827009Y-34892390D01*
X64823103Y-35090456D01*
X64767093Y-36161775D01*
X64662419Y-37444870D01*
X64520371Y-38839729D01*
X64352241Y-40246339D01*
X64169318Y-41564690D01*
X63982894Y-42694769D01*
X63937781Y-42932500D01*
X63659501Y-44239655D01*
X63336782Y-45569964D01*
X62986757Y-46865614D01*
X62626561Y-48068792D01*
X62273329Y-49121688D01*
X61944196Y-49966490D01*
X61707269Y-50458111D01*
X61544961Y-50768017D01*
X61561955Y-50868469D01*
X61781485Y-50826509D01*
X61830235Y-50812938D01*
X64151538Y-50230169D01*
X66291591Y-49838643D01*
X68317955Y-49632377D01*
X70298191Y-49605386D01*
X72299862Y-49751685D01*
X72926598Y-49830101D01*
X74103776Y-50021851D01*
X75310862Y-50273587D01*
X76477386Y-50566213D01*
X77532880Y-50880634D01*
X78406875Y-51197756D01*
X78982327Y-51471005D01*
X79154384Y-51557347D01*
X79327113Y-51586745D01*
X79549341Y-51539311D01*
X79869897Y-51395160D01*
X80337609Y-51134406D01*
X81001304Y-50737163D01*
X81440165Y-50470007D01*
X84563920Y-48669413D01*
X87689502Y-47072337D01*
X90786015Y-45691092D01*
X93822563Y-44537993D01*
X96768251Y-43625355D01*
X99592184Y-42965492D01*
X100787223Y-42758552D01*
X101345974Y-42698679D01*
X102115081Y-42653470D01*
X103052423Y-42622205D01*
X104115877Y-42604167D01*
X105263320Y-42598637D01*
X106452629Y-42604898D01*
X107641682Y-42622231D01*
X108788357Y-42649919D01*
X109850531Y-42687242D01*
X110786081Y-42733485D01*
X111552885Y-42787927D01*
X112108821Y-42849851D01*
X112411765Y-42918539D01*
X112455348Y-42957460D01*
X112344004Y-43251562D01*
X112034378Y-43719001D01*
X111563078Y-44319499D01*
X110966713Y-45012774D01*
X110281891Y-45758547D01*
X109545220Y-46516538D01*
X108793308Y-47246466D01*
X108062765Y-47908052D01*
X107613473Y-48284969D01*
X104905576Y-50286612D01*
X102002606Y-52088494D01*
X98951226Y-53669370D01*
X95798101Y-55007993D01*
X92589894Y-56083116D01*
X89373269Y-56873493D01*
X88325348Y-57066948D01*
X87735242Y-57178962D01*
X87267984Y-57290266D01*
X87012125Y-57379328D01*
X86996840Y-57389970D01*
X86981345Y-57587177D01*
X87068393Y-57994406D01*
X87239459Y-58528170D01*
X87264517Y-58596132D01*
X87521525Y-59305764D01*
X87747976Y-59989772D01*
X87956943Y-60700132D01*
X88161502Y-61488820D01*
X88374729Y-62407813D01*
X88609698Y-63509087D01*
X88879485Y-64844618D01*
X89034903Y-65633750D01*
X89302745Y-66915420D01*
X89575039Y-68006002D01*
X89888207Y-69030292D01*
X90278673Y-70113088D01*
X90528236Y-70750412D01*
X90907978Y-71642761D01*
X91380366Y-72664708D01*
X91903275Y-73732551D01*
X92434580Y-74762588D01*
X92932155Y-75671116D01*
X93353876Y-76374432D01*
X93375149Y-76407208D01*
X93826284Y-77066887D01*
X94439492Y-77917943D01*
X95174202Y-78907328D01*
X95989845Y-79981997D01*
X96845850Y-81088902D01*
X97701647Y-82174999D01*
X98516667Y-83187239D01*
X99110795Y-83906699D01*
X99771137Y-84695776D01*
X100449825Y-85508250D01*
X101081344Y-86265598D01*
X101600182Y-86889297D01*
X101759780Y-87081699D01*
X102218678Y-87661920D01*
X102771134Y-88401141D01*
X103375652Y-89239452D01*
X103990735Y-90116947D01*
X104574887Y-90973718D01*
X105086613Y-91749856D01*
X105484415Y-92385453D01*
X105706811Y-92780000D01*
X105899864Y-93150938D01*
X106029948Y-93379311D01*
X106046104Y-93401713D01*
X106207551Y-93369796D01*
X106566826Y-93215849D01*
X107049792Y-92979393D01*
X107582312Y-92699950D01*
X108090250Y-92417044D01*
X108499469Y-92170195D01*
X108735833Y-91998927D01*
X108765564Y-91951973D01*
X108648858Y-91812047D01*
X108337872Y-91473362D01*
X107859825Y-90964632D01*
X107241934Y-90314573D01*
X106511419Y-89551899D01*
X105695498Y-88705324D01*
X105331527Y-88329211D01*
X104362818Y-87325773D01*
X103598206Y-86523907D01*
X103017728Y-85900233D01*
X102601423Y-85431369D01*
X102329330Y-85093933D01*
X102181488Y-84864545D01*
X102168062Y-84819932D01*
X102475565Y-84819932D01*
X104223057Y-86617153D01*
X104931978Y-87351087D01*
X105663652Y-88116851D01*
X106343460Y-88835836D01*
X106896784Y-89429429D01*
X107021492Y-89565312D01*
X107600262Y-90179189D01*
X107998914Y-90551676D01*
X108231899Y-90692279D01*
X108313667Y-90610505D01*
X108280493Y-90393560D01*
X108323304Y-90060846D01*
X108579478Y-89819677D01*
X108902213Y-89445287D01*
X108962848Y-89110492D01*
X108990813Y-88786290D01*
X109101486Y-88688939D01*
X109335035Y-88823685D01*
X109731625Y-89195775D01*
X109748956Y-89213165D01*
X110170202Y-89601548D01*
X110418663Y-89736578D01*
X110510839Y-89619809D01*
X110469534Y-89280948D01*
X110417062Y-88952044D01*
X110511018Y-88854563D01*
X110800095Y-88907727D01*
X111236698Y-89017307D01*
X110576023Y-88094685D01*
X110249391Y-87615805D01*
X110013258Y-87226225D01*
X109915855Y-87005915D01*
X109915474Y-86999469D01*
X110031965Y-86837014D01*
X110348838Y-86523282D01*
X110817349Y-86103832D01*
X111374010Y-85636250D01*
X112154818Y-84998069D01*
X113041811Y-84271956D01*
X113896008Y-83571724D01*
X114288984Y-83249132D01*
X114899436Y-82752574D01*
X115453955Y-82310357D01*
X115887553Y-81973774D01*
X116120175Y-81803899D01*
X116494799Y-81555158D01*
X116129452Y-78952266D01*
X115974906Y-77852858D01*
X115805411Y-76649820D01*
X115638984Y-75470870D01*
X115493642Y-74443728D01*
X115459962Y-74206250D01*
X115346056Y-73361503D01*
X115251440Y-72579640D01*
X115185000Y-71940071D01*
X115155625Y-71522204D01*
X115154958Y-71480864D01*
X115148477Y-71335354D01*
X115146055Y-71215024D01*
X115172494Y-71101680D01*
X115252597Y-70977124D01*
X115411166Y-70823160D01*
X115673004Y-70621592D01*
X116062912Y-70354223D01*
X116605695Y-70002858D01*
X117326153Y-69549300D01*
X118249090Y-68975353D01*
X119399308Y-68262821D01*
X120313473Y-67696342D01*
X121293630Y-67086197D01*
X122409076Y-66388085D01*
X123530377Y-65683218D01*
X124528097Y-65052805D01*
X124645167Y-64978528D01*
X125186764Y-64637378D01*
X125928905Y-64173679D01*
X126817006Y-63621182D01*
X127796484Y-63013638D01*
X128812755Y-62384798D01*
X129811234Y-61768414D01*
X130737339Y-61198237D01*
X131536484Y-60708018D01*
X132154087Y-60331507D01*
X132418160Y-60172210D01*
X132970491Y-59815297D01*
X133282253Y-59537380D01*
X133403565Y-59289754D01*
X133410348Y-59208022D01*
X133389331Y-58801327D01*
X133331087Y-58141743D01*
X133242820Y-57290759D01*
X133131738Y-56309861D01*
X133005046Y-55260537D01*
X132869952Y-54204273D01*
X132733661Y-53202557D01*
X132603380Y-52316877D01*
X132600572Y-52298750D01*
X132447573Y-51386820D01*
X132249758Y-50322627D01*
X132015740Y-49143216D01*
X131754128Y-47885634D01*
X131473532Y-46586926D01*
X131182563Y-45284139D01*
X130889831Y-44014317D01*
X130603948Y-42814508D01*
X130333522Y-41721757D01*
X130087165Y-40773111D01*
X129873487Y-40005614D01*
X129701098Y-39456313D01*
X129578609Y-39162254D01*
X129538085Y-39122499D01*
X129339563Y-39218844D01*
X128940135Y-39486076D01*
X128382534Y-39891500D01*
X127709490Y-40402414D01*
X126963733Y-40986122D01*
X126187995Y-41609923D01*
X125425006Y-42241121D01*
X125075973Y-42537014D01*
X123655443Y-43782891D01*
X122071886Y-45225763D01*
X120369525Y-46822101D01*
X118592586Y-48528375D01*
X116785292Y-50301055D01*
X114991870Y-52096612D01*
X113256544Y-53871516D01*
X111623538Y-55582236D01*
X110137078Y-57185244D01*
X109673129Y-57697765D01*
X108288733Y-59251746D01*
X107121096Y-60593505D01*
X106161498Y-61734350D01*
X105401221Y-62685590D01*
X104831546Y-63458533D01*
X104443754Y-64064488D01*
X104229125Y-64514765D01*
X104178942Y-64820670D01*
X104179287Y-64823390D01*
X104257340Y-65123891D01*
X104431447Y-65646854D01*
X104676618Y-66321218D01*
X104967868Y-67075921D01*
X104997738Y-67151000D01*
X105315584Y-67940122D01*
X105628616Y-68698817D01*
X105954199Y-69465796D01*
X106309696Y-70279766D01*
X106712472Y-71179435D01*
X107179891Y-72203511D01*
X107729317Y-73390703D01*
X108378113Y-74779719D01*
X109143644Y-76409266D01*
X109297107Y-76735216D01*
X110375970Y-79026057D01*
X108616179Y-80307091D01*
X107839660Y-80873782D01*
X106907797Y-81556051D01*
X105920484Y-82280639D01*
X104977615Y-82974285D01*
X104665977Y-83204028D01*
X102475565Y-84819932D01*
X102168062Y-84819932D01*
X102137934Y-84719823D01*
X102178707Y-84636385D01*
X102178786Y-84636323D01*
X102385114Y-84479874D01*
X102797533Y-84172622D01*
X103366132Y-83751566D01*
X104040999Y-83253701D01*
X104460731Y-82944850D01*
X105332897Y-82303571D01*
X106280576Y-81606572D01*
X107200562Y-80929772D01*
X107989645Y-80349090D01*
X108129410Y-80246208D01*
X108743705Y-79781895D01*
X109251836Y-79374790D01*
X109605064Y-79065646D01*
X109754646Y-78895210D01*
X109756598Y-78885792D01*
X109691453Y-78701570D01*
X109508689Y-78272996D01*
X109227309Y-77642321D01*
X108866315Y-76851796D01*
X108444712Y-75943670D01*
X108174392Y-75368045D01*
X107392959Y-73689651D01*
X106637872Y-72027175D01*
X105932752Y-70434666D01*
X105301216Y-68966171D01*
X104766886Y-67675739D01*
X104371434Y-66665625D01*
X104158334Y-66101470D01*
X103970375Y-65609409D01*
X103868895Y-65348467D01*
X103752723Y-64934966D01*
X103724098Y-64685107D01*
X103829689Y-64387578D01*
X104131773Y-63886153D01*
X104608315Y-63207268D01*
X105237278Y-62377356D01*
X105996627Y-61422851D01*
X106864328Y-60370189D01*
X107818344Y-59245802D01*
X108836639Y-58076125D01*
X109897179Y-56887593D01*
X110977929Y-55706639D01*
X112056851Y-54559699D01*
X112839509Y-53750050D01*
X115123116Y-51434923D01*
X117220005Y-49345622D01*
X119148291Y-47465382D01*
X120926087Y-45777441D01*
X122571510Y-44265034D01*
X124102675Y-42911398D01*
X125537695Y-41699769D01*
X126894687Y-40613384D01*
X127695348Y-40002430D01*
X128334991Y-39523365D01*
X128892634Y-39105117D01*
X129313623Y-38788719D01*
X129543305Y-38615205D01*
X129558029Y-38603922D01*
X129665494Y-38559255D01*
X129770246Y-38623366D01*
X129885598Y-38831514D01*
X130024863Y-39218958D01*
X130201354Y-39820958D01*
X130428384Y-40672772D01*
X130618157Y-41411634D01*
X130811296Y-42174707D01*
X130986878Y-42881469D01*
X131159003Y-43591675D01*
X131341770Y-44365078D01*
X131549279Y-45261433D01*
X131795630Y-46340492D01*
X132094921Y-47662011D01*
X132138231Y-47853750D01*
X132623350Y-50266064D01*
X133051096Y-52956133D01*
X133402942Y-55749576D01*
X133539034Y-56963889D01*
X133638392Y-57903200D01*
X133697328Y-58608282D01*
X133712153Y-59119910D01*
X133679176Y-59478855D01*
X133594709Y-59725893D01*
X133455063Y-59901796D01*
X133256547Y-60047338D01*
X133000217Y-60200470D01*
X132643685Y-60416585D01*
X132067415Y-60771011D01*
X131299403Y-61246229D01*
X130367647Y-61824718D01*
X129300143Y-62488958D01*
X128124890Y-63221428D01*
X126869884Y-64004608D01*
X125563122Y-64820977D01*
X124232602Y-65653016D01*
X122906321Y-66483203D01*
X121612276Y-67294018D01*
X120378464Y-68067941D01*
X119232882Y-68787452D01*
X118203528Y-69435029D01*
X117318398Y-69993154D01*
X116605490Y-70444304D01*
X116092801Y-70770960D01*
X115808328Y-70955601D01*
X115761253Y-70988483D01*
X115640217Y-71163341D01*
X115596520Y-71469447D01*
X115623693Y-71982103D01*
X115652327Y-72256286D01*
X115704880Y-72686378D01*
X115793642Y-73372567D01*
X115910672Y-74256536D01*
X116048029Y-75279966D01*
X116197770Y-76384540D01*
X116351954Y-77511939D01*
X116502640Y-78603846D01*
X116641885Y-79601943D01*
X116761748Y-80447912D01*
X116854287Y-81083436D01*
X116855618Y-81092353D01*
X116880798Y-81554214D01*
X116768557Y-81799965D01*
X116711528Y-81839922D01*
X116521886Y-81977045D01*
X116130946Y-82281509D01*
X115581957Y-82718163D01*
X114918168Y-83251855D01*
X114182827Y-83847436D01*
X113419184Y-84469753D01*
X112670487Y-85083655D01*
X111979985Y-85653991D01*
X111390926Y-86145610D01*
X110946561Y-86523362D01*
X110907010Y-86557636D01*
X110231798Y-87144375D01*
X112848509Y-90478125D01*
X113541535Y-91368991D01*
X114161968Y-92181808D01*
X114684708Y-92882439D01*
X115084651Y-93436751D01*
X115336694Y-93810606D01*
X115415902Y-93969394D01*
X115261569Y-94070963D01*
X114853158Y-94274309D01*
X114230603Y-94561363D01*
X113433841Y-94914057D01*
X112502806Y-95314326D01*
X111667388Y-95665284D01*
X110650424Y-96091357D01*
X109729166Y-96483345D01*
X108944798Y-96823237D01*
X108338504Y-97093021D01*
X107951468Y-97274686D01*
X107827093Y-97344754D01*
X107883962Y-97502261D01*
X108145752Y-97843698D01*
X108584673Y-98337002D01*
X109172938Y-98950113D01*
X109515046Y-99292224D01*
X110130769Y-99905726D01*
X110658114Y-100441495D01*
X111059184Y-100860195D01*
X111296083Y-101122485D01*
X111344098Y-101190890D01*
X111205584Y-101282281D01*
X110852189Y-101413208D01*
X110590035Y-101491371D01*
X109987401Y-101662080D01*
X109393013Y-101837008D01*
X109233695Y-101885538D01*
X108631418Y-102071518D01*
X108573809Y-103180446D01*
X108425532Y-104406406D01*
X108114861Y-105787623D01*
X107669222Y-107224845D01*
X107116045Y-108618823D01*
X107001758Y-108869077D01*
X106273544Y-110427414D01*
X106354159Y-112359019D01*
X106402206Y-113332718D01*
X106465403Y-114231430D01*
X106552686Y-115145053D01*
X106672996Y-116163482D01*
X106835271Y-117376613D01*
X106896521Y-117813534D01*
X107016121Y-118781937D01*
X107057856Y-119484711D01*
X107019021Y-119964700D01*
X106896907Y-120264750D01*
X106732718Y-120406582D01*
X106492316Y-120660124D01*
X106498193Y-120866054D01*
X106525466Y-121245385D01*
X106402905Y-121556052D01*
X106197439Y-121672500D01*
X105975713Y-121566047D01*
X105654115Y-121300027D01*
X105544902Y-121191218D01*
X105179377Y-120873757D01*
X104859362Y-120778742D01*
X104659843Y-120803054D01*
X104380699Y-120819646D01*
X104126634Y-120694474D01*
X103812732Y-120375959D01*
X103663890Y-120198133D01*
X103291941Y-119673751D01*
X102898707Y-119010553D01*
X102615121Y-118448582D01*
X102320262Y-117734121D01*
X102025975Y-116911148D01*
X101756694Y-116061383D01*
X101536852Y-115266546D01*
X101390886Y-114608357D01*
X101342848Y-114193491D01*
X101342848Y-113890754D01*
X101669822Y-113890754D01*
X101711810Y-114349212D01*
X101843237Y-114963034D01*
X102196810Y-116228316D01*
X102626370Y-117449224D01*
X103102285Y-118556026D01*
X103594923Y-119478991D01*
X104019794Y-120085000D01*
X104360769Y-120442138D01*
X104551656Y-120534445D01*
X104591860Y-120377195D01*
X104480784Y-119985663D01*
X104217832Y-119375121D01*
X104060059Y-119053293D01*
X103709892Y-118313727D01*
X103530668Y-117809379D01*
X103516726Y-117511616D01*
X103662405Y-117391807D01*
X103730442Y-117386250D01*
X103872646Y-117521129D01*
X103979528Y-117795555D01*
X104167808Y-118342716D01*
X104463389Y-118975695D01*
X104826048Y-119630679D01*
X105215560Y-120243854D01*
X105591698Y-120751408D01*
X105914239Y-121089528D01*
X106123169Y-121196250D01*
X106203209Y-121056449D01*
X106181952Y-120683042D01*
X106167826Y-120600937D01*
X106042733Y-120178369D01*
X105809560Y-119588421D01*
X105513100Y-118941988D01*
X105433252Y-118782404D01*
X105155097Y-118193123D01*
X104955459Y-117684616D01*
X104865873Y-117340795D01*
X104866475Y-117274279D01*
X104955847Y-117266064D01*
X105154111Y-117530307D01*
X105447486Y-118046624D01*
X105633544Y-118408940D01*
X105947134Y-119002967D01*
X106223848Y-119467264D01*
X106426608Y-119742781D01*
X106502223Y-119792460D01*
X106589691Y-119614044D01*
X106613629Y-119149783D01*
X106575281Y-118424651D01*
X106475895Y-117463626D01*
X106333181Y-116403266D01*
X106225584Y-115558437D01*
X106121673Y-114552770D01*
X106036759Y-113542713D01*
X106003004Y-113029829D01*
X105954215Y-112310074D01*
X105899846Y-111723840D01*
X105846683Y-111333311D01*
X105803341Y-111200221D01*
X105649340Y-111307461D01*
X105350062Y-111579144D01*
X105073473Y-111852344D01*
X104643015Y-112215871D01*
X104060601Y-112610475D01*
X103410399Y-112989811D01*
X102776577Y-113307535D01*
X102243304Y-113517300D01*
X101942639Y-113576250D01*
X101745724Y-113647617D01*
X101669822Y-113890754D01*
X101342848Y-113890754D01*
X101342848Y-113735000D01*
X99477535Y-113733561D01*
X98628470Y-113714793D01*
X97800251Y-113653300D01*
X96950074Y-113539277D01*
X96035137Y-113362920D01*
X95012638Y-113114425D01*
X93839774Y-112783987D01*
X92473742Y-112361802D01*
X90871740Y-111838065D01*
X90157676Y-111598747D01*
X86139995Y-110244983D01*
X84261016Y-110736338D01*
X83413875Y-110973615D01*
X82499479Y-111256173D01*
X81575602Y-111563207D01*
X80700016Y-111873910D01*
X79930493Y-112167474D01*
X79324806Y-112423092D01*
X78940728Y-112619959D01*
X78856721Y-112682709D01*
X78737718Y-112926527D01*
X78596661Y-113399797D01*
X78451374Y-114016986D01*
X78319683Y-114692561D01*
X78219412Y-115340988D01*
X78168388Y-115876734D01*
X78165347Y-116000206D01*
X78120551Y-116483594D01*
X78004566Y-117130492D01*
X77844999Y-117821428D01*
X77669458Y-118436933D01*
X77505549Y-118857537D01*
X77504709Y-118859133D01*
X77324234Y-119050330D01*
X77210673Y-119051780D01*
X77009044Y-119087685D01*
X76728120Y-119299727D01*
X76390561Y-119637286D01*
X76028659Y-119297297D01*
X75635054Y-119051829D01*
X75259287Y-119059576D01*
X75010061Y-119088436D01*
X74819130Y-118983698D01*
X74616494Y-118685550D01*
X74449288Y-118367493D01*
X74108676Y-117579219D01*
X73804074Y-116664880D01*
X73566452Y-115738218D01*
X73426777Y-114912976D01*
X73402848Y-114524015D01*
X73402848Y-114208971D01*
X73720348Y-114208971D01*
X73769349Y-114752647D01*
X73900842Y-115459296D01*
X74091561Y-116246912D01*
X74318241Y-117033487D01*
X74557617Y-117737015D01*
X74786421Y-118275489D01*
X74947216Y-118533443D01*
X75196734Y-118742505D01*
X75312418Y-118694381D01*
X75280644Y-118425748D01*
X75126792Y-118049952D01*
X74964298Y-117614228D01*
X74831091Y-117064144D01*
X74736568Y-116480248D01*
X74690122Y-115943082D01*
X74701150Y-115533192D01*
X74779046Y-115331124D01*
X74808641Y-115322500D01*
X74941069Y-115459399D01*
X74992232Y-115759062D01*
X75077189Y-116497610D01*
X75297662Y-117322817D01*
X75610522Y-118110483D01*
X75972639Y-118736407D01*
X76067226Y-118854687D01*
X76344220Y-119099859D01*
X76494882Y-119054360D01*
X76520076Y-118717556D01*
X76500297Y-118537187D01*
X76351584Y-117423470D01*
X76250426Y-116589237D01*
X76196053Y-116000171D01*
X76187695Y-115621955D01*
X76224580Y-115420271D01*
X76305940Y-115360803D01*
X76430067Y-115408654D01*
X76527966Y-115613819D01*
X76576651Y-115999366D01*
X76577848Y-116072927D01*
X76608001Y-116645131D01*
X76687329Y-117265333D01*
X76799128Y-117853321D01*
X76926698Y-118328883D01*
X77053337Y-118611807D01*
X77115741Y-118656250D01*
X77233821Y-118512244D01*
X77379175Y-118132370D01*
X77532602Y-117594837D01*
X77674904Y-116977858D01*
X77786883Y-116359642D01*
X77849338Y-115818402D01*
X77856159Y-115640000D01*
X77891780Y-115185129D01*
X77981308Y-114570694D01*
X78079836Y-114054016D01*
X78183774Y-113523942D01*
X78242365Y-113132389D01*
X78243294Y-112966279D01*
X78073149Y-112977807D01*
X77700991Y-113070181D01*
X77421569Y-113155032D01*
X76641143Y-113370198D01*
X75770035Y-113554219D01*
X74936779Y-113683614D01*
X74269904Y-113734904D01*
X74246817Y-113735000D01*
X73886410Y-113765547D01*
X73743746Y-113916116D01*
X73720348Y-114208971D01*
X73402848Y-114208971D01*
X73402847Y-113798524D01*
X72410660Y-113596529D01*
X70961289Y-113152947D01*
X69556915Y-112440254D01*
X68283809Y-111504147D01*
X68038203Y-111280616D01*
X67004616Y-110162911D01*
X66227350Y-108980970D01*
X65646847Y-107638516D01*
X65496874Y-107172517D01*
X65364963Y-106707106D01*
X65265038Y-106269909D01*
X65191744Y-105803571D01*
X65139724Y-105250733D01*
X65103624Y-104554040D01*
X65078088Y-103656133D01*
X65057761Y-102499657D01*
X65057226Y-102463750D01*
X65028342Y-100879480D01*
X64990777Y-99553105D01*
X64940923Y-98425058D01*
X64875174Y-97435773D01*
X64789922Y-96525686D01*
X64681562Y-95635230D01*
X64615041Y-95161250D01*
X64418328Y-93811875D01*
X61647775Y-93714583D01*
X58162747Y-93497247D01*
X54865435Y-93098691D01*
X51778085Y-92522839D01*
X48922943Y-91773618D01*
X47049723Y-91138868D01*
X46267186Y-90872276D01*
X45457005Y-90639924D01*
X44750844Y-90478095D01*
X44509723Y-90438933D01*
X43990255Y-90349648D01*
X43628532Y-90246142D01*
X43504201Y-90153127D01*
X43548338Y-89907667D01*
X43623855Y-89498225D01*
X43639276Y-89415383D01*
X43688664Y-89026213D01*
X43597434Y-88809494D01*
X43295671Y-88640405D01*
X43176985Y-88590046D01*
X42813213Y-88415522D01*
X42616639Y-88277359D01*
X42605348Y-88253289D01*
X42699725Y-87974860D01*
X42920973Y-87613537D01*
X43176267Y-87315638D01*
X43226591Y-87274030D01*
X43346592Y-87137795D01*
X43308406Y-86964050D01*
X43081806Y-86682341D01*
X42883160Y-86473586D01*
X42546781Y-86080085D01*
X42330945Y-85736644D01*
X42287847Y-85592121D01*
X42289351Y-85589192D01*
X42448869Y-85589192D01*
X42518608Y-85718992D01*
X42776111Y-85991335D01*
X43146330Y-86330120D01*
X43920896Y-87002075D01*
X43406299Y-87588169D01*
X43111964Y-87941184D01*
X43015136Y-88133608D01*
X43093546Y-88233989D01*
X43185087Y-88269026D01*
X43761684Y-88491026D01*
X44063237Y-88709448D01*
X44130018Y-88957917D01*
X44110744Y-89041912D01*
X43947681Y-89588223D01*
X43906247Y-89898967D01*
X44010105Y-90040587D01*
X44282918Y-90079523D01*
X44480906Y-90081250D01*
X44907828Y-90139904D01*
X45551183Y-90301836D01*
X46335259Y-90545999D01*
X46999725Y-90781448D01*
X49734951Y-91669794D01*
X52690980Y-92374148D01*
X55879780Y-92896635D01*
X59313317Y-93239376D01*
X61543931Y-93361516D01*
X64210640Y-93465552D01*
X63886558Y-92643347D01*
X63444448Y-91616900D01*
X62910268Y-90566837D01*
X62238464Y-89406948D01*
X61819672Y-88731875D01*
X61341451Y-87973191D01*
X61016825Y-87450231D01*
X60829399Y-87130560D01*
X60762775Y-86981743D01*
X60800558Y-86971345D01*
X60926351Y-87066931D01*
X61017177Y-87144375D01*
X61406133Y-87569019D01*
X61880362Y-88225565D01*
X62404928Y-89052050D01*
X62944894Y-89986512D01*
X63465324Y-90966988D01*
X63931284Y-91931515D01*
X64307835Y-92818131D01*
X64470495Y-93269196D01*
X64693839Y-93994379D01*
X64876557Y-94712367D01*
X65023108Y-95466624D01*
X65137952Y-96300616D01*
X65225546Y-97257808D01*
X65290351Y-98381664D01*
X65336825Y-99715650D01*
X65369427Y-101303230D01*
X65381188Y-102146250D01*
X65404886Y-103522232D01*
X65439530Y-104616320D01*
X65487346Y-105464000D01*
X65550557Y-106100756D01*
X65631390Y-106562075D01*
X65666452Y-106696234D01*
X66283439Y-108323706D01*
X67129221Y-109739293D01*
X68219657Y-110966625D01*
X68947473Y-111583892D01*
X70097176Y-112359382D01*
X71249766Y-112897896D01*
X72459360Y-113209836D01*
X73780074Y-113305602D01*
X75266026Y-113195597D01*
X76379106Y-113012321D01*
X77060937Y-112843413D01*
X77887103Y-112584945D01*
X78714860Y-112282977D01*
X78998481Y-112167106D01*
X80329356Y-111626408D01*
X81622556Y-111144817D01*
X82804532Y-110747980D01*
X83801737Y-110461546D01*
X84078785Y-110395388D01*
X84565403Y-110268537D01*
X84896543Y-110146989D01*
X84991598Y-110073180D01*
X84848637Y-109992337D01*
X84481369Y-109911923D01*
X84158160Y-109869754D01*
X83192599Y-109752642D01*
X82508740Y-109627020D01*
X82120989Y-109495876D01*
X82043882Y-109431210D01*
X82015761Y-109351714D01*
X82084173Y-109308910D01*
X82297414Y-109303674D01*
X82703779Y-109336882D01*
X83351564Y-109409410D01*
X83800973Y-109463090D01*
X84451358Y-109554741D01*
X84983447Y-109654357D01*
X85316684Y-109745770D01*
X85380535Y-109780143D01*
X85653120Y-109900710D01*
X85860043Y-109925000D01*
X86131582Y-109967134D01*
X86629432Y-110096315D01*
X87366867Y-110316712D01*
X88357163Y-110632495D01*
X89613594Y-111047831D01*
X91149437Y-111566890D01*
X91845316Y-111804604D01*
X92854192Y-112134053D01*
X93952488Y-112466269D01*
X95017714Y-112765703D01*
X95927377Y-112996806D01*
X96052191Y-113025492D01*
X96951763Y-113216291D01*
X97687435Y-113335046D01*
X98387144Y-113393769D01*
X99178824Y-113404471D01*
X99914098Y-113388082D01*
X100770190Y-113356149D01*
X101393964Y-113310961D01*
X101870595Y-113236822D01*
X102285255Y-113118032D01*
X102723117Y-112938894D01*
X102971389Y-112824591D01*
X104086019Y-112189565D01*
X105008582Y-111399685D01*
X105790718Y-110401048D01*
X106466768Y-109176255D01*
X106842239Y-108333527D01*
X107219565Y-107397393D01*
X107538055Y-106521574D01*
X107644082Y-106194375D01*
X107815699Y-105607978D01*
X107935841Y-105101254D01*
X108013483Y-104594342D01*
X108057600Y-104007382D01*
X108077167Y-103260514D01*
X108081178Y-102305000D01*
X108072242Y-101252411D01*
X108041395Y-100431713D01*
X107980598Y-99757598D01*
X107881813Y-99144760D01*
X107737000Y-98507893D01*
X107715338Y-98422644D01*
X107431475Y-97434093D01*
X107082350Y-96399549D01*
X106700536Y-95402815D01*
X106318607Y-94527695D01*
X105969137Y-93857994D01*
X105894735Y-93738705D01*
X105636515Y-93315799D01*
X105451284Y-92963190D01*
X105424529Y-92899062D01*
X105262561Y-92649659D01*
X105079975Y-92716238D01*
X104878493Y-93098067D01*
X104863498Y-93137187D01*
X104601034Y-93676081D01*
X104276723Y-94124292D01*
X103949969Y-94415151D01*
X103680174Y-94481985D01*
X103668786Y-94478075D01*
X103434615Y-94229429D01*
X103248223Y-93741868D01*
X103724098Y-93741868D01*
X103792383Y-93994701D01*
X103882848Y-94050000D01*
X104001172Y-93913864D01*
X104041598Y-93643756D01*
X103991204Y-93373660D01*
X103882848Y-93335625D01*
X103749487Y-93559537D01*
X103724098Y-93741868D01*
X103248223Y-93741868D01*
X103227989Y-93688940D01*
X103143756Y-93296826D01*
X104233291Y-93296826D01*
X104299683Y-93358124D01*
X104325648Y-93335625D01*
X104462842Y-93081192D01*
X104586568Y-92671261D01*
X104597223Y-92621250D01*
X104643654Y-92263173D01*
X104577262Y-92201875D01*
X104551297Y-92224375D01*
X104414103Y-92478807D01*
X104290377Y-92888738D01*
X104279723Y-92938750D01*
X104233291Y-93296826D01*
X103143756Y-93296826D01*
X103054538Y-92881510D01*
X102986474Y-92351011D01*
X103432971Y-92351011D01*
X103501792Y-92649623D01*
X103612246Y-92780000D01*
X103628828Y-92643044D01*
X103593547Y-92308827D01*
X103586602Y-92264062D01*
X103517567Y-91976445D01*
X103454943Y-91986593D01*
X103441920Y-92035210D01*
X103432971Y-92351011D01*
X102986474Y-92351011D01*
X102919889Y-91832037D01*
X102902792Y-91607256D01*
X104254917Y-91607256D01*
X104279723Y-91668750D01*
X104422376Y-91820194D01*
X104447841Y-91827500D01*
X104516027Y-91704676D01*
X104517848Y-91668750D01*
X104395808Y-91516100D01*
X104349729Y-91510000D01*
X104254917Y-91607256D01*
X102902792Y-91607256D01*
X102843422Y-90826720D01*
X102812779Y-90288844D01*
X103442757Y-90288844D01*
X103447408Y-90361064D01*
X103518700Y-90608325D01*
X103635519Y-90734520D01*
X103716565Y-90669653D01*
X103721667Y-90597187D01*
X103643524Y-90373305D01*
X103569944Y-90242001D01*
X103462516Y-90123697D01*
X103442757Y-90288844D01*
X102812779Y-90288844D01*
X102730424Y-88843272D01*
X102076323Y-88046627D01*
X101594031Y-87460675D01*
X101069561Y-86825607D01*
X100787223Y-86484769D01*
X100450850Y-86077114D01*
X99971747Y-85493446D01*
X99407511Y-84804071D01*
X98815743Y-84079296D01*
X98663041Y-83891965D01*
X98130535Y-83245924D01*
X97663094Y-82692835D01*
X97299486Y-82277500D01*
X97078477Y-82044721D01*
X97035854Y-82011458D01*
X96920616Y-82093958D01*
X96897848Y-82239149D01*
X96822528Y-82595038D01*
X96634679Y-83055728D01*
X96391464Y-83509878D01*
X96150049Y-83846145D01*
X96019850Y-83949278D01*
X95771449Y-83897341D01*
X95621472Y-83719337D01*
X95475116Y-83321518D01*
X95321383Y-82704167D01*
X95177699Y-81964282D01*
X95061494Y-81198859D01*
X95052557Y-81111875D01*
X95645958Y-81111875D01*
X95737113Y-82143750D01*
X95797432Y-82699499D01*
X95864891Y-83131558D01*
X95919716Y-83332774D01*
X96013175Y-83325711D01*
X96116389Y-83098932D01*
X96198441Y-82747606D01*
X96228608Y-82381875D01*
X96226017Y-82064375D01*
X96136169Y-82381875D01*
X96062783Y-82490439D01*
X95967755Y-82327800D01*
X95846140Y-81905625D01*
X95645958Y-81111875D01*
X95052557Y-81111875D01*
X94990195Y-80504896D01*
X94978642Y-80193350D01*
X95524614Y-80193350D01*
X95568672Y-80423853D01*
X95770930Y-80780848D01*
X95894335Y-80947408D01*
X96226813Y-81348072D01*
X96380368Y-81491202D01*
X96358394Y-81379197D01*
X96277100Y-81217881D01*
X96020667Y-80865648D01*
X95874640Y-80722193D01*
X95660714Y-80429554D01*
X95615315Y-80258999D01*
X95573682Y-80121769D01*
X95524614Y-80193350D01*
X94978642Y-80193350D01*
X94976225Y-80128183D01*
X94943280Y-79576507D01*
X94802368Y-79129768D01*
X94500964Y-78633883D01*
X94435050Y-78540683D01*
X92679746Y-75875161D01*
X91222197Y-73190212D01*
X90043523Y-70442971D01*
X89124844Y-67590575D01*
X88567293Y-65218592D01*
X88244716Y-63647471D01*
X87953480Y-62332578D01*
X87678746Y-61216018D01*
X87405678Y-60239895D01*
X87119438Y-59346315D01*
X86914370Y-58768957D01*
X86693593Y-58188232D01*
X86524647Y-57841649D01*
X86352706Y-57664304D01*
X86122943Y-57591291D01*
X85899577Y-57567604D01*
X85518566Y-57509110D01*
X85318112Y-57426246D01*
X85309098Y-57405931D01*
X85454806Y-57332890D01*
X85848343Y-57224278D01*
X86424324Y-57096529D01*
X86919454Y-57001171D01*
X87838652Y-56818539D01*
X88960118Y-56571444D01*
X90195551Y-56281568D01*
X91456647Y-55970590D01*
X92655103Y-55660192D01*
X93702618Y-55372053D01*
X94385387Y-55168108D01*
X95413474Y-54817874D01*
X96486502Y-54407614D01*
X97553676Y-53961173D01*
X98564202Y-53502397D01*
X99467285Y-53055133D01*
X100212131Y-52643226D01*
X100747945Y-52290523D01*
X100992492Y-52066337D01*
X101250866Y-51670357D01*
X101587686Y-51060117D01*
X101963705Y-50316236D01*
X102339680Y-49519335D01*
X102676365Y-48750036D01*
X102934515Y-48088959D01*
X102949808Y-48045438D01*
X103292414Y-46951370D01*
X103573920Y-45838247D01*
X103774489Y-44798891D01*
X103874286Y-43926124D01*
X103881735Y-43684686D01*
X103882848Y-42769997D01*
X103287535Y-42845600D01*
X102801623Y-42901270D01*
X102159979Y-42967130D01*
X101660348Y-43014351D01*
X100293038Y-43195317D01*
X98716384Y-43501294D01*
X97003469Y-43912236D01*
X95227375Y-44408101D01*
X93461186Y-44968845D01*
X91777986Y-45574423D01*
X90627223Y-46040312D01*
X89508678Y-46541952D01*
X88229590Y-47154046D01*
X86844790Y-47847139D01*
X85409107Y-48591775D01*
X83977368Y-49358500D01*
X82604405Y-50117856D01*
X81345045Y-50840388D01*
X80254119Y-51496642D01*
X79386455Y-52057160D01*
X79243338Y-52156025D01*
X78810475Y-52405221D01*
X78549630Y-52434657D01*
X78482848Y-52298750D01*
X78612314Y-52160045D01*
X78734202Y-52140000D01*
X78952269Y-52085628D01*
X78910384Y-51942312D01*
X78643096Y-51739751D01*
X78184952Y-51507645D01*
X77835710Y-51367614D01*
X75369729Y-50623652D01*
X72786601Y-50155374D01*
X70130195Y-49964823D01*
X67444381Y-50054041D01*
X64773029Y-50425072D01*
X63520323Y-50701010D01*
X61336306Y-51375785D01*
X59355682Y-52264473D01*
X57593181Y-53357620D01*
X56063531Y-54645769D01*
X54781459Y-56119468D01*
X54531640Y-56471229D01*
X54084997Y-57178979D01*
X53713850Y-57904312D01*
X53396101Y-58709553D01*
X53109650Y-59657024D01*
X52832401Y-60809052D01*
X52605674Y-61903125D01*
X52404671Y-62801152D01*
X52168294Y-63668090D01*
X51919328Y-64433994D01*
X51680556Y-65028922D01*
X51474761Y-65382932D01*
X51470595Y-65387687D01*
X51347031Y-65619574D01*
X51494519Y-65776936D01*
X51806194Y-65870413D01*
X52311739Y-66119200D01*
X52802622Y-66593669D01*
X53204671Y-67207627D01*
X53410843Y-67735103D01*
X53490388Y-68224363D01*
X53533908Y-68901989D01*
X53534032Y-69640143D01*
X53528548Y-69776549D01*
X53371202Y-71051369D01*
X53028522Y-72074651D01*
X52494213Y-72857061D01*
X51761978Y-73409266D01*
X51257732Y-73623735D01*
X51268757Y-73764281D01*
X51442529Y-74087404D01*
X51743033Y-74528096D01*
X51804272Y-74610217D01*
X52433286Y-75414805D01*
X53118313Y-76230883D01*
X53891010Y-77091926D01*
X54783031Y-78031411D01*
X55826031Y-79082816D01*
X57051666Y-80279616D01*
X58242223Y-81418671D01*
X58628864Y-81801777D01*
X58797063Y-82003846D01*
X58774901Y-82043920D01*
X58590460Y-81941043D01*
X58271823Y-81714256D01*
X57847071Y-81382601D01*
X57344287Y-80965122D01*
X56791553Y-80480860D01*
X56592337Y-80299889D01*
X55167994Y-78993303D01*
X54244483Y-79234426D01*
X51856083Y-79953805D01*
X49341041Y-80892287D01*
X46772756Y-82022417D01*
X46704547Y-82054767D01*
X45981258Y-82358217D01*
X45209485Y-82618873D01*
X44544530Y-82784923D01*
X44486066Y-82794948D01*
X43960167Y-82887165D01*
X43575651Y-82968719D01*
X43424695Y-83017735D01*
X43461480Y-83176834D01*
X43627497Y-83502473D01*
X43713927Y-83647554D01*
X43938343Y-84090461D01*
X43949714Y-84427009D01*
X43721673Y-84732682D01*
X43227851Y-85082963D01*
X43208244Y-85095205D01*
X42802137Y-85352013D01*
X42519450Y-85537881D01*
X42448869Y-85589192D01*
X42289351Y-85589192D01*
X42411540Y-85351306D01*
X42725163Y-85047271D01*
X42922847Y-84903031D01*
X43390591Y-84496560D01*
X43549746Y-84084818D01*
X43408357Y-83639057D01*
X43314674Y-83502470D01*
X43096650Y-83143595D01*
X43098302Y-82888920D01*
X43347729Y-82708100D01*
X43873029Y-82570793D01*
X44232535Y-82511263D01*
X44981102Y-82352233D01*
X45815271Y-82076124D01*
X46808506Y-81657077D01*
X47269694Y-81442264D01*
X47946656Y-81138275D01*
X48779028Y-80792215D01*
X49713242Y-80423454D01*
X50695733Y-80051359D01*
X51672933Y-79695300D01*
X52591277Y-79374644D01*
X53397197Y-79108761D01*
X54037128Y-78917018D01*
X54457501Y-78818784D01*
X54549653Y-78809999D01*
X54775894Y-78765546D01*
X54783653Y-78612524D01*
X54560689Y-78321443D01*
X54196020Y-77958020D01*
X53626273Y-77365387D01*
X52957481Y-76587840D01*
X52257016Y-75710855D01*
X51592249Y-74819909D01*
X51030553Y-74000481D01*
X50851612Y-73714837D01*
X50218063Y-72537222D01*
X50004035Y-71960969D01*
X50433060Y-71960969D01*
X50462504Y-72137891D01*
X50463853Y-72142500D01*
X50613134Y-72487645D01*
X50823291Y-72810636D01*
X51024036Y-73017538D01*
X51131804Y-73035210D01*
X51086903Y-72881223D01*
X50947996Y-72638564D01*
X52074032Y-72638564D01*
X52080602Y-72703948D01*
X52184905Y-72631806D01*
X52489478Y-72312219D01*
X52620850Y-72115868D01*
X52727900Y-71867469D01*
X52672932Y-71850890D01*
X52487365Y-72046179D01*
X52266422Y-72340937D01*
X52074032Y-72638564D01*
X50947996Y-72638564D01*
X50903014Y-72559984D01*
X50770422Y-72359549D01*
X50529551Y-72030502D01*
X50433060Y-71960969D01*
X50004035Y-71960969D01*
X49835610Y-71507500D01*
X50225348Y-71507500D01*
X50283432Y-71638169D01*
X50331181Y-71613333D01*
X50350180Y-71424934D01*
X50331181Y-71401666D01*
X50236804Y-71423458D01*
X50225348Y-71507500D01*
X49835610Y-71507500D01*
X49816797Y-71456849D01*
X49796972Y-71348750D01*
X52765348Y-71348750D01*
X52823432Y-71479419D01*
X52871181Y-71454583D01*
X52890180Y-71266184D01*
X52871181Y-71242916D01*
X52776804Y-71264708D01*
X52765348Y-71348750D01*
X49796972Y-71348750D01*
X49620742Y-70387818D01*
X49590348Y-69712808D01*
X49591897Y-69681875D01*
X49907848Y-69681875D01*
X49987223Y-69761250D01*
X50066598Y-69681875D01*
X49987223Y-69602500D01*
X49907848Y-69681875D01*
X49591897Y-69681875D01*
X49626905Y-68982604D01*
X49753191Y-68294477D01*
X49994129Y-67572831D01*
X50374642Y-66742067D01*
X50585439Y-66348125D01*
X51019098Y-66348125D01*
X51098473Y-66427500D01*
X51177848Y-66348125D01*
X51098473Y-66268750D01*
X51019098Y-66348125D01*
X50585439Y-66348125D01*
X50882752Y-65792500D01*
X51612717Y-64189987D01*
X52141667Y-62363551D01*
X52293257Y-61585625D01*
X52455871Y-60795379D01*
X52684544Y-59898101D01*
X52949740Y-58993182D01*
X53221924Y-58180017D01*
X53471559Y-57557997D01*
X53519786Y-57458125D01*
X53736652Y-57079610D01*
X54064909Y-56561678D01*
X54399749Y-56065542D01*
X55038788Y-55149210D01*
X55009715Y-53495026D01*
X55308475Y-53495026D01*
X55317331Y-54113646D01*
X55347641Y-54527086D01*
X55400243Y-54679972D01*
X55401085Y-54680000D01*
X55559248Y-54581682D01*
X55879795Y-54324493D01*
X56274211Y-53981060D01*
X57554888Y-52963555D01*
X59050097Y-52031738D01*
X59960092Y-51553741D01*
X60554281Y-51249962D01*
X60933822Y-51013772D01*
X61170358Y-50775495D01*
X61335536Y-50465456D01*
X61479344Y-50076250D01*
X61680177Y-49504033D01*
X61939374Y-48771379D01*
X62207951Y-48016649D01*
X62266164Y-47853750D01*
X62957801Y-45607049D01*
X63529575Y-43070055D01*
X63650445Y-42409341D01*
X63755860Y-41762349D01*
X63872383Y-40972147D01*
X63993159Y-40094733D01*
X64111336Y-39186103D01*
X64220059Y-38302256D01*
X64312475Y-37499188D01*
X64381730Y-36832897D01*
X64420971Y-36359380D01*
X64423343Y-36134634D01*
X64419577Y-36125184D01*
X64231887Y-36132147D01*
X63837192Y-36272352D01*
X63300183Y-36514763D01*
X62685551Y-36828344D01*
X62057987Y-37182060D01*
X61537199Y-37507999D01*
X60840459Y-37998392D01*
X60082841Y-38576238D01*
X59325045Y-39190474D01*
X58627770Y-39790034D01*
X58051714Y-40323855D01*
X57657577Y-40740873D01*
X57587143Y-40831050D01*
X57297838Y-41301755D01*
X57088820Y-41741875D01*
X56865793Y-42428978D01*
X56621577Y-43364473D01*
X56369228Y-44481106D01*
X56121804Y-45711619D01*
X55892360Y-46988757D01*
X55693954Y-48245266D01*
X55539642Y-49413889D01*
X55470806Y-50076250D01*
X55402237Y-50961839D01*
X55351766Y-51863748D01*
X55320232Y-52726602D01*
X55308475Y-53495026D01*
X55009715Y-53495026D01*
X55006066Y-53287417D01*
X55065369Y-50967416D01*
X55311009Y-48498844D01*
X55727170Y-45938168D01*
X56298032Y-43341855D01*
X57007780Y-40766374D01*
X57840594Y-38268190D01*
X58780657Y-35903773D01*
X59812152Y-33729588D01*
X60919260Y-31802104D01*
X61104296Y-31517444D01*
X61579762Y-30832735D01*
X62095301Y-30145412D01*
X62609739Y-29504299D01*
X63081900Y-28958220D01*
X63470609Y-28555997D01*
X63734690Y-28346454D01*
X63794560Y-28327500D01*
X63934455Y-28477340D01*
G37*
G36*
X89441900Y-76770918D02*
G01*
X89723762Y-76824580D01*
X89754098Y-76864241D01*
X89599662Y-76939710D01*
X89153606Y-77010785D01*
X88441807Y-77074513D01*
X87490141Y-77127943D01*
X87412535Y-77131336D01*
X86241308Y-77185313D01*
X85341535Y-77238557D01*
X84667274Y-77298451D01*
X84172583Y-77372378D01*
X83811519Y-77467721D01*
X83538141Y-77591865D01*
X83306507Y-77752193D01*
X83247458Y-77800709D01*
X82946451Y-78092775D01*
X82870111Y-78317619D01*
X82943404Y-78521566D01*
X83068979Y-78718024D01*
X83202888Y-78725749D01*
X83440053Y-78530196D01*
X83546047Y-78429221D01*
X83987891Y-78104423D01*
X84405983Y-78050895D01*
X84881946Y-78267659D01*
X85082025Y-78410792D01*
X85433301Y-78654038D01*
X85681439Y-78714094D01*
X85964864Y-78613815D01*
X86049510Y-78570520D01*
X86634193Y-78351659D01*
X87083351Y-78400577D01*
X87447930Y-78728082D01*
X87552632Y-78889375D01*
X87799176Y-79244652D01*
X88066717Y-79404602D01*
X88493356Y-79444663D01*
X88569784Y-79445000D01*
X89015183Y-79480896D01*
X89314086Y-79571047D01*
X89363729Y-79614277D01*
X89451146Y-79936606D01*
X89462597Y-80389776D01*
X89405264Y-80823387D01*
X89293723Y-81080124D01*
X89183683Y-81100585D01*
X89129269Y-80859020D01*
X89119098Y-80516921D01*
X89119098Y-79779092D01*
X88292111Y-79731108D01*
X87796515Y-79684176D01*
X87530338Y-79590082D01*
X87405552Y-79407538D01*
X87375688Y-79301274D01*
X87178848Y-78871043D01*
X86837322Y-78705610D01*
X86327439Y-78797174D01*
X86112530Y-78885008D01*
X85459912Y-79179298D01*
X85018631Y-78756524D01*
X84604622Y-78428740D01*
X84262147Y-78369096D01*
X83893685Y-78576980D01*
X83703162Y-78748287D01*
X83270477Y-79162825D01*
X82683182Y-78714873D01*
X82095886Y-78266921D01*
X81790912Y-78643548D01*
X81596173Y-78980694D01*
X81369731Y-79514765D01*
X81158132Y-80134982D01*
X81143214Y-80185088D01*
X80923139Y-80843756D01*
X80709726Y-81224492D01*
X80458759Y-81362759D01*
X80126020Y-81294022D01*
X79897880Y-81183908D01*
X79597580Y-81074992D01*
X79453686Y-81173062D01*
X79459305Y-81503953D01*
X79607542Y-82093496D01*
X79632841Y-82177145D01*
X80255106Y-84032571D01*
X80899022Y-85590047D01*
X81576417Y-86868969D01*
X82299120Y-87888735D01*
X83078961Y-88668742D01*
X83927767Y-89228388D01*
X83935257Y-89232228D01*
X84847879Y-89612610D01*
X85904350Y-89914273D01*
X87021944Y-90125915D01*
X88117939Y-90236233D01*
X89109612Y-90233926D01*
X89914239Y-90107693D01*
X90044535Y-90066896D01*
X90482100Y-89954459D01*
X90727492Y-89965271D01*
X90741977Y-90076918D01*
X90486820Y-90266991D01*
X90436669Y-90293784D01*
X89944371Y-90443366D01*
X89220782Y-90529305D01*
X88345452Y-90552627D01*
X87397936Y-90514356D01*
X86457784Y-90415514D01*
X85604550Y-90257127D01*
X85496309Y-90230194D01*
X84228039Y-89818645D01*
X83189918Y-89276951D01*
X82326072Y-88558472D01*
X81580630Y-87616572D01*
X80897720Y-86404613D01*
X80886936Y-86382648D01*
X80541780Y-85623592D01*
X80188704Y-84753068D01*
X79850984Y-83839669D01*
X79551893Y-82951987D01*
X79314707Y-82158613D01*
X79162701Y-81528139D01*
X79117848Y-81169033D01*
X79140445Y-80838590D01*
X79272605Y-80733864D01*
X79610875Y-80783683D01*
X79633785Y-80788702D01*
X80155201Y-80890186D01*
X80455693Y-80875602D01*
X80623222Y-80702337D01*
X80745749Y-80327779D01*
X80769020Y-80238750D01*
X81011173Y-79508903D01*
X81322134Y-78860795D01*
X81660962Y-78362129D01*
X81986714Y-78080607D01*
X82095649Y-78045046D01*
X82412583Y-77938675D01*
X82886954Y-77711748D01*
X83353924Y-77449734D01*
X83932471Y-77132694D01*
X84416418Y-76967244D01*
X84960345Y-76908210D01*
X85220383Y-76904278D01*
X85792757Y-76894339D01*
X86564296Y-76868132D01*
X87417343Y-76830095D01*
X87968160Y-76800647D01*
X88858882Y-76763018D01*
X89441900Y-76770918D01*
G37*
G36*
X82632309Y-87493596D02*
G01*
X82765914Y-87616788D01*
X82907370Y-87822264D01*
X82813017Y-87820939D01*
X82614945Y-87706200D01*
X82460564Y-87538753D01*
X82473260Y-87466670D01*
X82632309Y-87493596D01*
G37*
G36*
X82292848Y-87303125D02*
G01*
X82213473Y-87382500D01*
X82134098Y-87303125D01*
X82213473Y-87223750D01*
X82292848Y-87303125D01*
G37*
G36*
X46841313Y-84898048D02*
G01*
X46860655Y-85082486D01*
X46628578Y-85270065D01*
X46254777Y-85398524D01*
X45887892Y-85546064D01*
X45813739Y-85773592D01*
X46032855Y-86096544D01*
X46287201Y-86327600D01*
X46557464Y-86589878D01*
X46608390Y-86733409D01*
X46560705Y-86747500D01*
X46306106Y-86646764D01*
X45947685Y-86394260D01*
X45815727Y-86280198D01*
X45501598Y-85955829D01*
X45321105Y-85696902D01*
X45304098Y-85636272D01*
X45434460Y-85484788D01*
X45755085Y-85282906D01*
X46160282Y-85081383D01*
X46544359Y-84930975D01*
X46801624Y-84882440D01*
X46841313Y-84898048D01*
G37*
G36*
X67665879Y-63265969D02*
G01*
X67598819Y-63490449D01*
X67352472Y-63743241D01*
X66962605Y-64025759D01*
X66698893Y-64238542D01*
X66544801Y-64447325D01*
X66483796Y-64717845D01*
X66499342Y-65115838D01*
X66574905Y-65707041D01*
X66676652Y-66430105D01*
X66805393Y-67574393D01*
X66897425Y-68821902D01*
X66952682Y-70112198D01*
X66971100Y-71384847D01*
X66952612Y-72579416D01*
X66897153Y-73635472D01*
X66804658Y-74492581D01*
X66685981Y-75056113D01*
X66388817Y-75789196D01*
X66020389Y-76346266D01*
X65621686Y-76675445D01*
X65353501Y-76742635D01*
X65022221Y-76671994D01*
X64593546Y-76504427D01*
X64547357Y-76482174D01*
X64031727Y-76128132D01*
X63395453Y-75530246D01*
X62666325Y-74725336D01*
X61872135Y-73750222D01*
X61040674Y-72641726D01*
X60663230Y-72100854D01*
X61030473Y-72100854D01*
X61541348Y-72816462D01*
X61926426Y-73316827D01*
X62419052Y-73905233D01*
X62849086Y-74385097D01*
X63653732Y-75210786D01*
X64303303Y-75789914D01*
X64823934Y-76136630D01*
X65241759Y-76265084D01*
X65582914Y-76189425D01*
X65817548Y-75992187D01*
X66031628Y-75650008D01*
X66223766Y-75194090D01*
X66235199Y-75158750D01*
X66334428Y-74721016D01*
X66432883Y-74085505D01*
X66520113Y-73353072D01*
X66585662Y-72624570D01*
X66619079Y-72000854D01*
X66609910Y-71582779D01*
X66607637Y-71565452D01*
X66414956Y-71263677D01*
X65970285Y-71006396D01*
X65338468Y-70817581D01*
X64584351Y-70721206D01*
X64303825Y-70713750D01*
X63344118Y-70848182D01*
X62344895Y-71224634D01*
X61411962Y-71802832D01*
X61382598Y-71825612D01*
X61030473Y-72100854D01*
X60663230Y-72100854D01*
X60199733Y-71436668D01*
X59377103Y-70171869D01*
X58600575Y-68884150D01*
X58006846Y-67816562D01*
X57636812Y-67134988D01*
X57368566Y-66688339D01*
X57161494Y-66427764D01*
X56974981Y-66304414D01*
X56768412Y-66269439D01*
X56719948Y-66268750D01*
X56354070Y-66230443D01*
X56268191Y-66138389D01*
X56437260Y-66026885D01*
X56836228Y-65930232D01*
X56981220Y-65911007D01*
X57498655Y-65794910D01*
X58024401Y-65537180D01*
X58658315Y-65088840D01*
X58659752Y-65087724D01*
X59614911Y-64345976D01*
X60357317Y-64588832D01*
X61047235Y-64777154D01*
X61839728Y-64936390D01*
X62637521Y-65052857D01*
X63343342Y-65112874D01*
X63859919Y-65102756D01*
X63930333Y-65091440D01*
X64776063Y-64891052D01*
X65437477Y-64642256D01*
X66047522Y-64284281D01*
X66593223Y-63874210D01*
X67128604Y-63474628D01*
X67493938Y-63263464D01*
X67661554Y-63256410D01*
X67665879Y-63265969D01*
G37*
G36*
X77762088Y-62652537D02*
G01*
X78701143Y-62776307D01*
X79452552Y-63043014D01*
X80132781Y-63504363D01*
X80548788Y-63889690D01*
X81157647Y-64713022D01*
X81511687Y-65676313D01*
X81604940Y-66722343D01*
X81431436Y-67793890D01*
X81052112Y-68714800D01*
X80403834Y-69582324D01*
X79525238Y-70243291D01*
X78586805Y-70635939D01*
X77865826Y-70813006D01*
X77269009Y-70846721D01*
X76645555Y-70733271D01*
X76140915Y-70574086D01*
X75561953Y-70325791D01*
X77087027Y-70325791D01*
X77277835Y-70352098D01*
X77450973Y-70356215D01*
X77777693Y-70343437D01*
X77862021Y-70307462D01*
X77810011Y-70287176D01*
X77428783Y-70257606D01*
X77175011Y-70283972D01*
X77087027Y-70325791D01*
X75561953Y-70325791D01*
X75325388Y-70224337D01*
X74705775Y-69774901D01*
X74200367Y-69150541D01*
X73837775Y-68493732D01*
X74303622Y-68493732D01*
X74325238Y-68570625D01*
X74650530Y-69016855D01*
X75147568Y-69494231D01*
X75701623Y-69897012D01*
X75863473Y-69988357D01*
X76220906Y-70169403D01*
X76378860Y-70226762D01*
X76404947Y-70199545D01*
X78392950Y-70199545D01*
X78548993Y-70224967D01*
X78754894Y-70195779D01*
X78757353Y-70141588D01*
X78544883Y-70103692D01*
X78453082Y-70129055D01*
X78392950Y-70199545D01*
X76404947Y-70199545D01*
X76418277Y-70185637D01*
X76419098Y-70161351D01*
X76291462Y-70050082D01*
X76131546Y-69955050D01*
X79073574Y-69955050D01*
X79096266Y-69990994D01*
X79308834Y-69878664D01*
X79675439Y-69633917D01*
X79872077Y-69491498D01*
X80278536Y-69117603D01*
X80596855Y-68702578D01*
X80626139Y-68649677D01*
X80817164Y-68239050D01*
X80852310Y-68072141D01*
X80742210Y-68165497D01*
X80524346Y-68491250D01*
X80244177Y-68893638D01*
X79978072Y-69188268D01*
X79929627Y-69226942D01*
X79627640Y-69459967D01*
X79276598Y-69754974D01*
X79073574Y-69955050D01*
X76131546Y-69955050D01*
X75969842Y-69858955D01*
X75799453Y-69769083D01*
X75303005Y-69441377D01*
X74808410Y-69002764D01*
X74671755Y-68853044D01*
X74418939Y-68575590D01*
X74303622Y-68493732D01*
X73837775Y-68493732D01*
X73792586Y-68411875D01*
X73663124Y-68015000D01*
X74037848Y-68015000D01*
X74095932Y-68145669D01*
X74143681Y-68120833D01*
X74162680Y-67932434D01*
X74143681Y-67909166D01*
X74049304Y-67930958D01*
X74037848Y-68015000D01*
X73663124Y-68015000D01*
X73559555Y-67697500D01*
X80864098Y-67697500D01*
X80922182Y-67828169D01*
X80969931Y-67803333D01*
X80988930Y-67614934D01*
X80969931Y-67591666D01*
X80875554Y-67613458D01*
X80864098Y-67697500D01*
X73559555Y-67697500D01*
X73453669Y-67372899D01*
X73435357Y-66983125D01*
X73910046Y-66983125D01*
X73927205Y-67254242D01*
X73976901Y-67278111D01*
X73983227Y-67263958D01*
X74014632Y-66948810D01*
X73989110Y-66787708D01*
X73938577Y-66722970D01*
X73911093Y-66933826D01*
X73910046Y-66983125D01*
X73435357Y-66983125D01*
X73416711Y-66586250D01*
X81047913Y-66586250D01*
X81072861Y-66811616D01*
X81127985Y-66784687D01*
X81148952Y-66459671D01*
X81127985Y-66387812D01*
X81070042Y-66367869D01*
X81047913Y-66586250D01*
X73416711Y-66586250D01*
X73403046Y-66295403D01*
X73463671Y-66017395D01*
X73891630Y-66017395D01*
X73920818Y-66223296D01*
X73975009Y-66225755D01*
X74012905Y-66013285D01*
X73987542Y-65921484D01*
X73917052Y-65861352D01*
X73891630Y-66017395D01*
X73463671Y-66017395D01*
X73551654Y-65613930D01*
X73920346Y-65613930D01*
X74036639Y-65537844D01*
X74057546Y-65517333D01*
X74182940Y-65309193D01*
X74165938Y-65232674D01*
X74047849Y-65280314D01*
X73968679Y-65428465D01*
X73920346Y-65613930D01*
X73551654Y-65613930D01*
X73632000Y-65245488D01*
X74131808Y-64289256D01*
X74135678Y-64284375D01*
X74514098Y-64284375D01*
X74593473Y-64363750D01*
X74672848Y-64284375D01*
X74593473Y-64205000D01*
X74514098Y-64284375D01*
X74135678Y-64284375D01*
X74377309Y-63979602D01*
X74391733Y-63966875D01*
X74990348Y-63966875D01*
X75069723Y-64046250D01*
X75149098Y-63966875D01*
X75069723Y-63887500D01*
X74990348Y-63966875D01*
X74391733Y-63966875D01*
X74751577Y-63649375D01*
X75307848Y-63649375D01*
X75387223Y-63728750D01*
X75466598Y-63649375D01*
X79435348Y-63649375D01*
X79514723Y-63728750D01*
X79594098Y-63649375D01*
X79514723Y-63570000D01*
X79435348Y-63649375D01*
X75466598Y-63649375D01*
X75387223Y-63570000D01*
X75307848Y-63649375D01*
X74751577Y-63649375D01*
X74931499Y-63490625D01*
X79117848Y-63490625D01*
X79197223Y-63570000D01*
X79276598Y-63490625D01*
X79197223Y-63411250D01*
X79117848Y-63490625D01*
X74931499Y-63490625D01*
X75141409Y-63305416D01*
X78694514Y-63305416D01*
X78716306Y-63399793D01*
X78800348Y-63411250D01*
X78931017Y-63353165D01*
X78906181Y-63305416D01*
X78717782Y-63286417D01*
X78694514Y-63305416D01*
X75141409Y-63305416D01*
X75201485Y-63252409D01*
X75669483Y-63034270D01*
X77190818Y-63034270D01*
X77401674Y-63061754D01*
X77450973Y-63062801D01*
X77722090Y-63045642D01*
X77745959Y-62995946D01*
X77731806Y-62989620D01*
X77416658Y-62958215D01*
X77255556Y-62983737D01*
X77190818Y-63034270D01*
X75669483Y-63034270D01*
X76152498Y-62809131D01*
X77250056Y-62642043D01*
X77762088Y-62652537D01*
G37*
G36*
X56744157Y-58545494D02*
G01*
X57046027Y-58753230D01*
X57149328Y-58892609D01*
X57328477Y-59422306D01*
X57335074Y-60131038D01*
X57190873Y-60946742D01*
X56917631Y-61797356D01*
X56537103Y-62610816D01*
X56071044Y-63315058D01*
X55693437Y-63715168D01*
X55111999Y-64100043D01*
X54591797Y-64175670D01*
X54124918Y-63942678D01*
X54026433Y-63847812D01*
X53846470Y-63615624D01*
X53754128Y-63340044D01*
X53731997Y-62926395D01*
X53756376Y-62379375D01*
X53959244Y-61124633D01*
X54322527Y-60255492D01*
X55142172Y-60255492D01*
X55255078Y-60747859D01*
X55396062Y-60939285D01*
X55614809Y-61127963D01*
X55815995Y-61161249D01*
X56109273Y-61032257D01*
X56368296Y-60878228D01*
X56805620Y-60474640D01*
X56978140Y-60022412D01*
X56992804Y-59407377D01*
X56803257Y-59001736D01*
X56458977Y-58833626D01*
X56009444Y-58931184D01*
X55591847Y-59234075D01*
X55258376Y-59716512D01*
X55142172Y-60255492D01*
X54322527Y-60255492D01*
X54413859Y-60036984D01*
X55067808Y-59145255D01*
X55462965Y-58749621D01*
X55793263Y-58552606D01*
X56174094Y-58491454D01*
X56272660Y-58490000D01*
X56744157Y-58545494D01*
G37*
G36*
X60094952Y-61882409D02*
G01*
X60226598Y-62044890D01*
X60092267Y-62278494D01*
X59781470Y-62428099D01*
X59432498Y-62451338D01*
X59221181Y-62352916D01*
X59095558Y-62094261D01*
X59248915Y-61903177D01*
X59643581Y-61823979D01*
X59670973Y-61823750D01*
X60094952Y-61882409D01*
G37*
G36*
X73599923Y-54925236D02*
G01*
X74449780Y-55395302D01*
X75102393Y-56087023D01*
X75528524Y-56968441D01*
X75698936Y-58007599D01*
X75700781Y-58117588D01*
X75681543Y-58708297D01*
X75590501Y-59118230D01*
X75386458Y-59482634D01*
X75217185Y-59705088D01*
X74799926Y-60141056D01*
X74335893Y-60505024D01*
X74185310Y-60593190D01*
X73495590Y-60807964D01*
X72710483Y-60847768D01*
X71979541Y-60711703D01*
X71735973Y-60607908D01*
X70896237Y-60001242D01*
X70269687Y-59205381D01*
X69889154Y-58279770D01*
X69787467Y-57283853D01*
X69801033Y-57104390D01*
X69870550Y-56791437D01*
X70472968Y-56791437D01*
X70481123Y-56826972D01*
X70730769Y-57293376D01*
X71160907Y-57636825D01*
X71684561Y-57832402D01*
X72214749Y-57855192D01*
X72664495Y-57680280D01*
X72838221Y-57502177D01*
X73059059Y-56930919D01*
X73014677Y-56306627D01*
X72727371Y-55757806D01*
X72364796Y-55442603D01*
X71892588Y-55296283D01*
X71217117Y-55289962D01*
X71211935Y-55290310D01*
X70894181Y-55453634D01*
X70631592Y-55828726D01*
X70474432Y-56309891D01*
X70472968Y-56791437D01*
X69870550Y-56791437D01*
X70015109Y-56140653D01*
X70432131Y-55420724D01*
X71050269Y-54946179D01*
X71867694Y-54718592D01*
X72582058Y-54708781D01*
X73599923Y-54925236D01*
G37*
G36*
X87372848Y-56346875D02*
G01*
X87293473Y-56426250D01*
X87214098Y-56346875D01*
X87293473Y-56267500D01*
X87372848Y-56346875D01*
G37*
G36*
X89277848Y-56188125D02*
G01*
X89198473Y-56267500D01*
X89119098Y-56188125D01*
X89198473Y-56108750D01*
X89277848Y-56188125D01*
G37*
G36*
X107322431Y-71401666D02*
G01*
X107341430Y-71590065D01*
X107322431Y-71613333D01*
X107228054Y-71591541D01*
X107216598Y-71507500D01*
X107274682Y-71376830D01*
X107322431Y-71401666D01*
G37*
G36*
X65412431Y-75529166D02*
G01*
X65431430Y-75717565D01*
X65412431Y-75740833D01*
X65318054Y-75719041D01*
X65306598Y-75635000D01*
X65364682Y-75504330D01*
X65412431Y-75529166D01*
G37*
G36*
X61655348Y-72380625D02*
G01*
X61575973Y-72460000D01*
X61496598Y-72380625D01*
X61575973Y-72301250D01*
X61655348Y-72380625D01*
G37*
D11*
%TO.C,D3*%
X124435000Y-50955000D02*
X124435000Y-54045000D01*
X124435000Y-50955170D02*
G75*
G02*
X129985000Y-52500000I2560000J-1544830D01*
G01*
X129985000Y-52500000D02*
G75*
G02*
X124435000Y-54044830I-2990000J0D01*
G01*
X129495000Y-52500000D02*
G75*
G02*
X124495000Y-52500000I-2500000J0D01*
G01*
X124495000Y-52500000D02*
G75*
G02*
X129495000Y-52500000I2500000J0D01*
G01*
%TO.C,D2*%
X49935000Y-67955000D02*
X49935000Y-71045000D01*
X49935000Y-67955170D02*
G75*
G02*
X55485000Y-69500000I2560000J-1544830D01*
G01*
X55485000Y-69500000D02*
G75*
G02*
X49935000Y-71044830I-2990000J0D01*
G01*
X54995000Y-69500000D02*
G75*
G02*
X49995000Y-69500000I-2500000J0D01*
G01*
X49995000Y-69500000D02*
G75*
G02*
X54995000Y-69500000I2500000J0D01*
G01*
%TO.C,D1*%
X74670000Y-64955000D02*
X74670000Y-68045000D01*
X74670000Y-64955170D02*
G75*
G02*
X80220000Y-66500000I2560000J-1544830D01*
G01*
X80220000Y-66500000D02*
G75*
G02*
X74670000Y-68044830I-2990000J0D01*
G01*
X79730000Y-66500000D02*
G75*
G02*
X74730000Y-66500000I-2500000J0D01*
G01*
X74730000Y-66500000D02*
G75*
G02*
X79730000Y-66500000I2500000J0D01*
G01*
%TD*%
M02*
