%TF.GenerationSoftware,KiCad,Pcbnew,9.0.2*%
%TF.CreationDate,2025-05-13T19:13:25+05:30*%
%TF.ProjectId,transisted,7472616e-7369-4737-9465-642e6b696361,rev?*%
%TF.SameCoordinates,Original*%
%TF.FileFunction,Legend,Bot*%
%TF.FilePolarity,Positive*%
%FSLAX46Y46*%
G04 Gerber Fmt 4.6, Leading zero omitted, Abs format (unit mm)*
G04 Created by KiCad (PCBNEW 9.0.2) date 2025-05-13 19:13:25*
%MOMM*%
%LPD*%
G01*
G04 APERTURE LIST*
%ADD10C,0.150000*%
%ADD11C,0.300000*%
%ADD12C,0.000000*%
%ADD13C,0.120000*%
G04 APERTURE END LIST*
D10*
G36*
X75847662Y-59108365D02*
G01*
X77078646Y-59108365D01*
X77078646Y-58701151D01*
X75847662Y-58701151D01*
X75847662Y-59108365D01*
G37*
G36*
X75847662Y-61550000D02*
G01*
X77078646Y-61550000D01*
X77078646Y-61142786D01*
X75847662Y-61142786D01*
X75847662Y-61550000D01*
G37*
G36*
X75847662Y-60327625D02*
G01*
X77078646Y-60327625D01*
X77078646Y-59920411D01*
X75847662Y-59920411D01*
X75847662Y-60327625D01*
G37*
G36*
X75449057Y-59506969D02*
G01*
X75847662Y-59506969D01*
X75847662Y-59099755D01*
X75449057Y-59099755D01*
X75449057Y-59506969D01*
G37*
G36*
X77081577Y-59908688D02*
G01*
X77488974Y-59908688D01*
X77488974Y-59099755D01*
X77081577Y-59099755D01*
X77081577Y-59908688D01*
G37*
G36*
X75449057Y-61139672D02*
G01*
X75847662Y-61139672D01*
X75847662Y-60330739D01*
X75449057Y-60330739D01*
X75449057Y-61139672D01*
G37*
G36*
X77081577Y-61139672D02*
G01*
X77488974Y-61139672D01*
X77488974Y-60732458D01*
X77081577Y-60732458D01*
X77081577Y-61139672D01*
G37*
G36*
X74622540Y-61550000D02*
G01*
X75029937Y-61550000D01*
X75029937Y-58701151D01*
X74622540Y-58701151D01*
X74622540Y-59510083D01*
X73397234Y-59510083D01*
X73397234Y-59917297D01*
X74622540Y-59917297D01*
X74622540Y-61550000D01*
G37*
G36*
X72990020Y-61550000D02*
G01*
X73397234Y-61550000D01*
X73397234Y-59920411D01*
X72990020Y-59920411D01*
X72990020Y-61550000D01*
G37*
G36*
X72163503Y-61550000D02*
G01*
X72570900Y-61550000D01*
X72570900Y-59510083D01*
X72163503Y-59510083D01*
X72163503Y-61550000D01*
G37*
G36*
X72163503Y-59108365D02*
G01*
X72570900Y-59108365D01*
X72570900Y-58701151D01*
X72163503Y-58701151D01*
X72163503Y-59108365D01*
G37*
G36*
X70111680Y-61550000D02*
G01*
X71744382Y-61550000D01*
X71744382Y-58701151D01*
X71336985Y-58701151D01*
X71336985Y-59510083D01*
X70111680Y-59510083D01*
X70111680Y-59917297D01*
X71336985Y-59917297D01*
X71336985Y-61142786D01*
X70111680Y-61142786D01*
X70111680Y-61550000D01*
G37*
G36*
X69704466Y-61142786D02*
G01*
X70111680Y-61142786D01*
X70111680Y-59920411D01*
X69704466Y-59920411D01*
X69704466Y-61142786D01*
G37*
G36*
X68877948Y-61139672D02*
G01*
X69285345Y-61139672D01*
X69285345Y-60732458D01*
X68877948Y-60732458D01*
X68877948Y-61139672D01*
G37*
G36*
X67655757Y-59917297D02*
G01*
X69285345Y-59917297D01*
X69285345Y-59510083D01*
X67655757Y-59510083D01*
X67655757Y-59917297D01*
G37*
G36*
X67245429Y-61550000D02*
G01*
X68877948Y-61550000D01*
X68877948Y-61142786D01*
X67652826Y-61142786D01*
X67652826Y-60729344D01*
X68877948Y-60729344D01*
X68877948Y-60322130D01*
X67652826Y-60322130D01*
X67652826Y-59917297D01*
X67245429Y-59917297D01*
X67245429Y-61550000D01*
G37*
G36*
X65196720Y-61550000D02*
G01*
X65604117Y-61550000D01*
X65604117Y-59917297D01*
X66418911Y-59917297D01*
X66418911Y-61550000D01*
X66826308Y-61550000D01*
X66826308Y-59510083D01*
X64376064Y-59510083D01*
X64376064Y-59917297D01*
X65196720Y-59917297D01*
X65196720Y-61550000D01*
G37*
G36*
X63968667Y-61550000D02*
G01*
X64376064Y-61550000D01*
X64376064Y-59920411D01*
X63968667Y-59920411D01*
X63968667Y-61550000D01*
G37*
G36*
X60665526Y-61139672D02*
G01*
X61072923Y-61139672D01*
X61072923Y-60732458D01*
X60665526Y-60732458D01*
X60665526Y-61139672D01*
G37*
G36*
X60255198Y-61550000D02*
G01*
X60662595Y-61550000D01*
X60662595Y-61142786D01*
X60255198Y-61142786D01*
X60255198Y-61550000D01*
G37*
G36*
X61887718Y-61550000D02*
G01*
X62295115Y-61550000D01*
X62295115Y-58701151D01*
X60665526Y-58701151D01*
X60665526Y-59108365D01*
X61887718Y-59108365D01*
X61887718Y-59920411D01*
X60665526Y-59920411D01*
X60665526Y-60327625D01*
X61075854Y-60327625D01*
X61075854Y-60732458D01*
X61483251Y-60732458D01*
X61483251Y-60327625D01*
X61887718Y-60327625D01*
X61887718Y-61550000D01*
G37*
G36*
X60255198Y-59908688D02*
G01*
X60662595Y-59908688D01*
X60662595Y-59099755D01*
X60255198Y-59099755D01*
X60255198Y-59908688D01*
G37*
G36*
X58194766Y-59917297D02*
G01*
X59425750Y-59917297D01*
X59425750Y-59510083D01*
X58194766Y-59510083D01*
X58194766Y-59917297D01*
G37*
G36*
X57796161Y-61142786D02*
G01*
X58194766Y-61142786D01*
X58194766Y-59920411D01*
X57796161Y-59920411D01*
X57796161Y-61142786D01*
G37*
G36*
X58194766Y-61550000D02*
G01*
X59425750Y-61550000D01*
X59425750Y-61142786D01*
X58194766Y-61142786D01*
X58194766Y-61550000D01*
G37*
G36*
X59428681Y-61142786D02*
G01*
X59836078Y-61142786D01*
X59836078Y-59920411D01*
X59428681Y-59920411D01*
X59428681Y-61142786D01*
G37*
G36*
X56969644Y-61139672D02*
G01*
X57377041Y-61139672D01*
X57377041Y-59510083D01*
X56969644Y-59510083D01*
X56969644Y-61139672D01*
G37*
G36*
X55337124Y-61960327D02*
G01*
X55744521Y-61960327D01*
X55744521Y-61550000D01*
X56969644Y-61550000D01*
X56969644Y-61142786D01*
X55744521Y-61142786D01*
X55744521Y-59510083D01*
X55337124Y-59510083D01*
X55337124Y-61960327D01*
G37*
G36*
X55747452Y-62358932D02*
G01*
X57377041Y-62358932D01*
X57377041Y-61951718D01*
X55747452Y-61951718D01*
X55747452Y-62358932D01*
G37*
G36*
X70768056Y-56265045D02*
G01*
X70768056Y-56206182D01*
X70759526Y-55976495D01*
X70738484Y-55829368D01*
X70710659Y-55741388D01*
X70732947Y-55505695D01*
X70739357Y-55335212D01*
X70739357Y-55306514D01*
X70692077Y-54899937D01*
X70635669Y-54615604D01*
X70574802Y-54425578D01*
X70512952Y-54305732D01*
X70451894Y-54236115D01*
X70390945Y-54201926D01*
X70247261Y-54214578D01*
X70138394Y-54248810D01*
X70056465Y-54301298D01*
X69996094Y-54372046D01*
X69955094Y-54464364D01*
X69798301Y-54686227D01*
X69736010Y-54795949D01*
X69722819Y-54841720D01*
X69699954Y-54822167D01*
X69649755Y-54709598D01*
X69549406Y-54376926D01*
X69415290Y-54245195D01*
X69320414Y-54119953D01*
X69258391Y-53999692D01*
X69126086Y-54009364D01*
X69030937Y-54034775D01*
X68964011Y-54072102D01*
X68918620Y-54120029D01*
X68891070Y-54179993D01*
X68881280Y-54255903D01*
X68562909Y-56175041D01*
X68528806Y-56186065D01*
X68510521Y-56204946D01*
X68504169Y-56233293D01*
X68504169Y-56263824D01*
X68511174Y-56287729D01*
X68536578Y-56316068D01*
X68591608Y-56351263D01*
X68620307Y-56351263D01*
X68725892Y-56338520D01*
X68808271Y-56303014D01*
X68873046Y-56245434D01*
X68922695Y-56161989D01*
X68956093Y-56045063D01*
X68968719Y-55884148D01*
X69056158Y-55477606D01*
X69027459Y-55422773D01*
X69200994Y-54463265D01*
X69229692Y-54463265D01*
X69374033Y-54979067D01*
X69464519Y-55225031D01*
X69518180Y-55316404D01*
X69549406Y-55335212D01*
X69694242Y-55335212D01*
X69756214Y-55324687D01*
X69820004Y-55291100D01*
X69888177Y-55228266D01*
X69962251Y-55126498D01*
X70042849Y-54973364D01*
X70129972Y-54754159D01*
X70246109Y-54638021D01*
X70263175Y-54813174D01*
X70362247Y-55508991D01*
X70339266Y-55825060D01*
X70332205Y-56090045D01*
X70332205Y-56293743D01*
X70341535Y-56367929D01*
X70368292Y-56429698D01*
X70412842Y-56482007D01*
X70478384Y-56526140D01*
X70595676Y-56487907D01*
X70675893Y-56442227D01*
X70727964Y-56390596D01*
X70757908Y-56332420D01*
X70768056Y-56265045D01*
G37*
G36*
X67526911Y-54881701D02*
G01*
X67602395Y-54908409D01*
X67702564Y-54961521D01*
X67912953Y-55135938D01*
X68069817Y-55298117D01*
X68181805Y-55449567D01*
X68256131Y-55592157D01*
X68298322Y-55728137D01*
X68311950Y-55860090D01*
X68297959Y-55953899D01*
X68256267Y-56037167D01*
X68183256Y-56113329D01*
X68070502Y-56183333D01*
X67905774Y-56245625D01*
X67673866Y-56296552D01*
X67612945Y-56286515D01*
X67535917Y-56251759D01*
X67437225Y-56182650D01*
X67310954Y-56066646D01*
X67150697Y-55888789D01*
X67141351Y-55952609D01*
X67093300Y-56151472D01*
X67050437Y-56236121D01*
X66995759Y-56299270D01*
X66928558Y-56344362D01*
X66846288Y-56372573D01*
X66744888Y-56382648D01*
X66689771Y-56347860D01*
X66664416Y-56319926D01*
X66657449Y-56296430D01*
X66785200Y-55928092D01*
X66875910Y-55613194D01*
X66934966Y-55345508D01*
X66944505Y-55278670D01*
X67354152Y-55278670D01*
X67367507Y-55447745D01*
X67407514Y-55611919D01*
X67475061Y-55773127D01*
X67572302Y-55932987D01*
X67702564Y-56092732D01*
X67779984Y-56082504D01*
X67842327Y-56053451D01*
X67893273Y-56005140D01*
X67934118Y-55933486D01*
X67963538Y-55831392D01*
X67929763Y-55652023D01*
X67900261Y-55584724D01*
X67876099Y-55570052D01*
X67814681Y-55434560D01*
X67735721Y-55315885D01*
X67638612Y-55212166D01*
X67521797Y-55122306D01*
X67382850Y-55046029D01*
X67354152Y-55046029D01*
X67354152Y-55278670D01*
X66944505Y-55278670D01*
X66967265Y-55119192D01*
X66977163Y-54928792D01*
X66998477Y-54936180D01*
X67005739Y-54958834D01*
X67134222Y-54913577D01*
X67287557Y-54884494D01*
X67470289Y-54874082D01*
X67526911Y-54881701D01*
G37*
G36*
X65628407Y-54213515D02*
G01*
X65659829Y-54254761D01*
X65689243Y-54346715D01*
X65711252Y-54521273D01*
X65681210Y-54665987D01*
X65701000Y-54681084D01*
X65711252Y-54753304D01*
X65681210Y-54810579D01*
X65711252Y-54810579D01*
X65652512Y-55013911D01*
X65652512Y-55245942D01*
X65913834Y-55327475D01*
X66109343Y-55412064D01*
X66251429Y-55497984D01*
X66350763Y-55584375D01*
X66415978Y-55671454D01*
X66453190Y-55760661D01*
X66465474Y-55854595D01*
X66453369Y-55992711D01*
X66419575Y-56105438D01*
X66366128Y-56197836D01*
X66292611Y-56273455D01*
X66196212Y-56333964D01*
X66072029Y-56378951D01*
X65913485Y-56405973D01*
X65800684Y-56348544D01*
X65692963Y-56269809D01*
X65589513Y-56167371D01*
X65490024Y-56037951D01*
X65394673Y-55877501D01*
X65304099Y-55681304D01*
X65305532Y-55565289D01*
X65652512Y-55565289D01*
X65747953Y-55831187D01*
X65828377Y-55995704D01*
X65895447Y-56088290D01*
X65951612Y-56132670D01*
X66000924Y-56145366D01*
X66033756Y-56128844D01*
X66060418Y-56092163D01*
X66080204Y-56025358D01*
X66088363Y-55913335D01*
X66088363Y-55767278D01*
X66037703Y-55693783D01*
X65954912Y-55621070D01*
X65830536Y-55548791D01*
X65652512Y-55477972D01*
X65652512Y-55565289D01*
X65305532Y-55565289D01*
X65310783Y-55140003D01*
X65334141Y-54376559D01*
X65343184Y-54314445D01*
X65368322Y-54268275D01*
X65410076Y-54233950D01*
X65473348Y-54210833D01*
X65566416Y-54201926D01*
X65595115Y-54201926D01*
X65628407Y-54213515D01*
G37*
G36*
X64436878Y-55052719D02*
G01*
X64493349Y-55065356D01*
X64503960Y-55077292D01*
X64646927Y-55087935D01*
X64766013Y-55117759D01*
X64865433Y-55164712D01*
X64948461Y-55228336D01*
X65017199Y-55309789D01*
X65072388Y-55411745D01*
X65113346Y-55538178D01*
X65113346Y-55856304D01*
X65055687Y-55976945D01*
X64981691Y-56077357D01*
X64890699Y-56160106D01*
X64780722Y-56226491D01*
X64648586Y-56276439D01*
X64490127Y-56308512D01*
X64300383Y-56320000D01*
X64010711Y-56320000D01*
X63900939Y-56267149D01*
X63831196Y-56206584D01*
X63791803Y-56138152D01*
X63778558Y-56058538D01*
X63778558Y-56029839D01*
X63923272Y-55999553D01*
X63951971Y-55999553D01*
X64019099Y-56009388D01*
X64113048Y-56044758D01*
X64242986Y-56116789D01*
X64271685Y-56116789D01*
X64391776Y-56103710D01*
X64492027Y-56066486D01*
X64576791Y-56005675D01*
X64648541Y-55918566D01*
X64707536Y-55799518D01*
X64329896Y-55736160D01*
X64107085Y-55677175D01*
X63989417Y-55624924D01*
X63937293Y-55580133D01*
X63923272Y-55540132D01*
X63951971Y-55483346D01*
X63930457Y-55476151D01*
X63923434Y-55455013D01*
X64359124Y-55455013D01*
X64707536Y-55540132D01*
X64696227Y-55476442D01*
X64662595Y-55422979D01*
X64602331Y-55376854D01*
X64505740Y-55338574D01*
X64359124Y-55311765D01*
X64359124Y-55455013D01*
X63923434Y-55455013D01*
X63923272Y-55454525D01*
X63923272Y-55279036D01*
X63936037Y-55198375D01*
X63972125Y-55137207D01*
X64033601Y-55090582D01*
X64128998Y-55058525D01*
X64271685Y-55046029D01*
X64436878Y-55052719D01*
G37*
G36*
X62314418Y-54004648D02*
G01*
X62368300Y-54027536D01*
X62414826Y-54039317D01*
X62460654Y-54078461D01*
X62507925Y-54157813D01*
X62555621Y-54297441D01*
X62600575Y-54522861D01*
X62600575Y-54697128D01*
X62593026Y-54835173D01*
X62572890Y-54939987D01*
X62543178Y-55018307D01*
X62571877Y-55077292D01*
X62496470Y-56005019D01*
X62484438Y-56208503D01*
X62472510Y-56264851D01*
X62434641Y-56317999D01*
X62362012Y-56370361D01*
X62239772Y-56421450D01*
X62048586Y-56468499D01*
X61875052Y-56411102D01*
X61789172Y-56435120D01*
X61555338Y-56468499D01*
X61236967Y-56295697D01*
X61002722Y-56123325D01*
X60834874Y-55973908D01*
X60720491Y-55844391D01*
X60648432Y-55731641D01*
X60609650Y-55632338D01*
X60609338Y-55630013D01*
X60946074Y-55630013D01*
X61033105Y-55826571D01*
X61087260Y-55903058D01*
X61120952Y-55919930D01*
X61254728Y-56024494D01*
X61398932Y-56110059D01*
X61554699Y-56177302D01*
X61723487Y-56226311D01*
X61907038Y-56256574D01*
X62107327Y-56266999D01*
X62164724Y-56266999D01*
X62164724Y-55948506D01*
X62176360Y-55751210D01*
X62223464Y-55370017D01*
X62078628Y-55398593D01*
X62048586Y-55398593D01*
X61529967Y-55249984D01*
X61410624Y-55225792D01*
X61353227Y-55225792D01*
X61255573Y-55239898D01*
X61168283Y-55281916D01*
X61087982Y-55355143D01*
X61013530Y-55467373D01*
X60946074Y-55630013D01*
X60609338Y-55630013D01*
X60597662Y-55542941D01*
X60658193Y-55395856D01*
X60735486Y-55281409D01*
X60829272Y-55194189D01*
X60941386Y-55131042D01*
X61075565Y-55091389D01*
X61237090Y-55077292D01*
X61237090Y-55047006D01*
X61193814Y-55033730D01*
X61137702Y-54983649D01*
X61062212Y-54872250D01*
X61062212Y-54755380D01*
X61353227Y-54755380D01*
X61364877Y-54827296D01*
X61400363Y-54893524D01*
X61464185Y-54956720D01*
X61565092Y-55017518D01*
X61715127Y-55074643D01*
X61928945Y-55125307D01*
X62223464Y-55165586D01*
X62243413Y-55154991D01*
X62265942Y-55109629D01*
X62290056Y-54993628D01*
X62310903Y-54755380D01*
X62287356Y-54472917D01*
X62280861Y-54287655D01*
X62268935Y-54242981D01*
X62231383Y-54207954D01*
X62155734Y-54181730D01*
X62019888Y-54170662D01*
X61821580Y-54207243D01*
X61668527Y-54261360D01*
X61552127Y-54329933D01*
X61465577Y-54411790D01*
X61404333Y-54507811D01*
X61366536Y-54620847D01*
X61353227Y-54755380D01*
X61062212Y-54755380D01*
X61062212Y-54667330D01*
X61073177Y-54552039D01*
X61104513Y-54453379D01*
X61155421Y-54368038D01*
X61227191Y-54293799D01*
X61323063Y-54229769D01*
X61336494Y-54178288D01*
X61380617Y-54130376D01*
X61470151Y-54084162D01*
X61628796Y-54042440D01*
X61886932Y-54011229D01*
X62280861Y-53998715D01*
X62314418Y-54004648D01*
G37*
G36*
X60406297Y-55193796D02*
G01*
X60362171Y-55108829D01*
X60323985Y-55064987D01*
X60290160Y-55047616D01*
X60095545Y-55093924D01*
X59995341Y-55133524D01*
X59952688Y-55166094D01*
X59941748Y-55193796D01*
X59941748Y-55222494D01*
X59948922Y-55244018D01*
X59970446Y-55251193D01*
X59883112Y-55460834D01*
X59806510Y-55595238D01*
X59739685Y-55674727D01*
X59680774Y-55715621D01*
X59652076Y-55715621D01*
X59570095Y-55499035D01*
X59476316Y-55309041D01*
X59371395Y-55142998D01*
X59255597Y-54998633D01*
X59128785Y-54874082D01*
X58926674Y-54874082D01*
X58926674Y-54961521D01*
X59507240Y-56353705D01*
X59591369Y-56670202D01*
X59676063Y-56915054D01*
X59759975Y-57100257D01*
X59842166Y-57236582D01*
X59922240Y-57333470D01*
X60000488Y-57398820D01*
X60290160Y-57370122D01*
X60042017Y-56773196D01*
X59903881Y-56389843D01*
X59841234Y-56160442D01*
X59825610Y-56035334D01*
X59885838Y-56021405D01*
X59961428Y-55971758D01*
X60059280Y-55868305D01*
X60186093Y-55686377D01*
X60348900Y-55395907D01*
X60406297Y-55193796D01*
G37*
D11*
X105332015Y-89498629D02*
X105474873Y-89427200D01*
X105474873Y-89427200D02*
X105689158Y-89427200D01*
X105689158Y-89427200D02*
X105903444Y-89498629D01*
X105903444Y-89498629D02*
X106046301Y-89641486D01*
X106046301Y-89641486D02*
X106117730Y-89784343D01*
X106117730Y-89784343D02*
X106189158Y-90070057D01*
X106189158Y-90070057D02*
X106189158Y-90284343D01*
X106189158Y-90284343D02*
X106117730Y-90570057D01*
X106117730Y-90570057D02*
X106046301Y-90712914D01*
X106046301Y-90712914D02*
X105903444Y-90855772D01*
X105903444Y-90855772D02*
X105689158Y-90927200D01*
X105689158Y-90927200D02*
X105546301Y-90927200D01*
X105546301Y-90927200D02*
X105332015Y-90855772D01*
X105332015Y-90855772D02*
X105260587Y-90784343D01*
X105260587Y-90784343D02*
X105260587Y-90284343D01*
X105260587Y-90284343D02*
X105546301Y-90284343D01*
X104403444Y-89427200D02*
X104403444Y-89784343D01*
X104760587Y-89641486D02*
X104403444Y-89784343D01*
X104403444Y-89784343D02*
X104046301Y-89641486D01*
X104617730Y-90070057D02*
X104403444Y-89784343D01*
X104403444Y-89784343D02*
X104189158Y-90070057D01*
X103260587Y-89427200D02*
X103260587Y-89784343D01*
X103617730Y-89641486D02*
X103260587Y-89784343D01*
X103260587Y-89784343D02*
X102903444Y-89641486D01*
X103474873Y-90070057D02*
X103260587Y-89784343D01*
X103260587Y-89784343D02*
X103046301Y-90070057D01*
X102117730Y-89427200D02*
X102117730Y-89784343D01*
X102474873Y-89641486D02*
X102117730Y-89784343D01*
X102117730Y-89784343D02*
X101760587Y-89641486D01*
X102332016Y-90070057D02*
X102117730Y-89784343D01*
X102117730Y-89784343D02*
X101903444Y-90070057D01*
D10*
X75083332Y-101907200D02*
X74940475Y-101954819D01*
X74940475Y-101954819D02*
X74702380Y-101954819D01*
X74702380Y-101954819D02*
X74607142Y-101907200D01*
X74607142Y-101907200D02*
X74559523Y-101859580D01*
X74559523Y-101859580D02*
X74511904Y-101764342D01*
X74511904Y-101764342D02*
X74511904Y-101669104D01*
X74511904Y-101669104D02*
X74559523Y-101573866D01*
X74559523Y-101573866D02*
X74607142Y-101526247D01*
X74607142Y-101526247D02*
X74702380Y-101478628D01*
X74702380Y-101478628D02*
X74892856Y-101431009D01*
X74892856Y-101431009D02*
X74988094Y-101383390D01*
X74988094Y-101383390D02*
X75035713Y-101335771D01*
X75035713Y-101335771D02*
X75083332Y-101240533D01*
X75083332Y-101240533D02*
X75083332Y-101145295D01*
X75083332Y-101145295D02*
X75035713Y-101050057D01*
X75035713Y-101050057D02*
X74988094Y-101002438D01*
X74988094Y-101002438D02*
X74892856Y-100954819D01*
X74892856Y-100954819D02*
X74654761Y-100954819D01*
X74654761Y-100954819D02*
X74511904Y-101002438D01*
X74178570Y-100954819D02*
X73940475Y-101954819D01*
X73940475Y-101954819D02*
X73749999Y-101240533D01*
X73749999Y-101240533D02*
X73559523Y-101954819D01*
X73559523Y-101954819D02*
X73321428Y-100954819D01*
X72988094Y-101050057D02*
X72940475Y-101002438D01*
X72940475Y-101002438D02*
X72845237Y-100954819D01*
X72845237Y-100954819D02*
X72607142Y-100954819D01*
X72607142Y-100954819D02*
X72511904Y-101002438D01*
X72511904Y-101002438D02*
X72464285Y-101050057D01*
X72464285Y-101050057D02*
X72416666Y-101145295D01*
X72416666Y-101145295D02*
X72416666Y-101240533D01*
X72416666Y-101240533D02*
X72464285Y-101383390D01*
X72464285Y-101383390D02*
X73035713Y-101954819D01*
X73035713Y-101954819D02*
X72416666Y-101954819D01*
X102083332Y-100407200D02*
X101940475Y-100454819D01*
X101940475Y-100454819D02*
X101702380Y-100454819D01*
X101702380Y-100454819D02*
X101607142Y-100407200D01*
X101607142Y-100407200D02*
X101559523Y-100359580D01*
X101559523Y-100359580D02*
X101511904Y-100264342D01*
X101511904Y-100264342D02*
X101511904Y-100169104D01*
X101511904Y-100169104D02*
X101559523Y-100073866D01*
X101559523Y-100073866D02*
X101607142Y-100026247D01*
X101607142Y-100026247D02*
X101702380Y-99978628D01*
X101702380Y-99978628D02*
X101892856Y-99931009D01*
X101892856Y-99931009D02*
X101988094Y-99883390D01*
X101988094Y-99883390D02*
X102035713Y-99835771D01*
X102035713Y-99835771D02*
X102083332Y-99740533D01*
X102083332Y-99740533D02*
X102083332Y-99645295D01*
X102083332Y-99645295D02*
X102035713Y-99550057D01*
X102035713Y-99550057D02*
X101988094Y-99502438D01*
X101988094Y-99502438D02*
X101892856Y-99454819D01*
X101892856Y-99454819D02*
X101654761Y-99454819D01*
X101654761Y-99454819D02*
X101511904Y-99502438D01*
X101178570Y-99454819D02*
X100940475Y-100454819D01*
X100940475Y-100454819D02*
X100749999Y-99740533D01*
X100749999Y-99740533D02*
X100559523Y-100454819D01*
X100559523Y-100454819D02*
X100321428Y-99454819D01*
X99416666Y-100454819D02*
X99988094Y-100454819D01*
X99702380Y-100454819D02*
X99702380Y-99454819D01*
X99702380Y-99454819D02*
X99797618Y-99597676D01*
X99797618Y-99597676D02*
X99892856Y-99692914D01*
X99892856Y-99692914D02*
X99988094Y-99740533D01*
X117095238Y-57404819D02*
X117428571Y-56928628D01*
X117666666Y-57404819D02*
X117666666Y-56404819D01*
X117666666Y-56404819D02*
X117285714Y-56404819D01*
X117285714Y-56404819D02*
X117190476Y-56452438D01*
X117190476Y-56452438D02*
X117142857Y-56500057D01*
X117142857Y-56500057D02*
X117095238Y-56595295D01*
X117095238Y-56595295D02*
X117095238Y-56738152D01*
X117095238Y-56738152D02*
X117142857Y-56833390D01*
X117142857Y-56833390D02*
X117190476Y-56881009D01*
X117190476Y-56881009D02*
X117285714Y-56928628D01*
X117285714Y-56928628D02*
X117666666Y-56928628D01*
X116809523Y-56404819D02*
X116476190Y-57404819D01*
X116476190Y-57404819D02*
X116142857Y-56404819D01*
X115285714Y-57404819D02*
X115857142Y-57404819D01*
X115571428Y-57404819D02*
X115571428Y-56404819D01*
X115571428Y-56404819D02*
X115666666Y-56547676D01*
X115666666Y-56547676D02*
X115761904Y-56642914D01*
X115761904Y-56642914D02*
X115857142Y-56690533D01*
X54166666Y-84084819D02*
X54499999Y-83608628D01*
X54738094Y-84084819D02*
X54738094Y-83084819D01*
X54738094Y-83084819D02*
X54357142Y-83084819D01*
X54357142Y-83084819D02*
X54261904Y-83132438D01*
X54261904Y-83132438D02*
X54214285Y-83180057D01*
X54214285Y-83180057D02*
X54166666Y-83275295D01*
X54166666Y-83275295D02*
X54166666Y-83418152D01*
X54166666Y-83418152D02*
X54214285Y-83513390D01*
X54214285Y-83513390D02*
X54261904Y-83561009D01*
X54261904Y-83561009D02*
X54357142Y-83608628D01*
X54357142Y-83608628D02*
X54738094Y-83608628D01*
X53214285Y-84084819D02*
X53785713Y-84084819D01*
X53499999Y-84084819D02*
X53499999Y-83084819D01*
X53499999Y-83084819D02*
X53595237Y-83227676D01*
X53595237Y-83227676D02*
X53690475Y-83322914D01*
X53690475Y-83322914D02*
X53785713Y-83370533D01*
X83095238Y-102020057D02*
X83190476Y-101972438D01*
X83190476Y-101972438D02*
X83285714Y-101877200D01*
X83285714Y-101877200D02*
X83428571Y-101734342D01*
X83428571Y-101734342D02*
X83523809Y-101686723D01*
X83523809Y-101686723D02*
X83619047Y-101686723D01*
X83571428Y-101924819D02*
X83666666Y-101877200D01*
X83666666Y-101877200D02*
X83761904Y-101781961D01*
X83761904Y-101781961D02*
X83809523Y-101591485D01*
X83809523Y-101591485D02*
X83809523Y-101258152D01*
X83809523Y-101258152D02*
X83761904Y-101067676D01*
X83761904Y-101067676D02*
X83666666Y-100972438D01*
X83666666Y-100972438D02*
X83571428Y-100924819D01*
X83571428Y-100924819D02*
X83380952Y-100924819D01*
X83380952Y-100924819D02*
X83285714Y-100972438D01*
X83285714Y-100972438D02*
X83190476Y-101067676D01*
X83190476Y-101067676D02*
X83142857Y-101258152D01*
X83142857Y-101258152D02*
X83142857Y-101591485D01*
X83142857Y-101591485D02*
X83190476Y-101781961D01*
X83190476Y-101781961D02*
X83285714Y-101877200D01*
X83285714Y-101877200D02*
X83380952Y-101924819D01*
X83380952Y-101924819D02*
X83571428Y-101924819D01*
X82761904Y-101020057D02*
X82714285Y-100972438D01*
X82714285Y-100972438D02*
X82619047Y-100924819D01*
X82619047Y-100924819D02*
X82380952Y-100924819D01*
X82380952Y-100924819D02*
X82285714Y-100972438D01*
X82285714Y-100972438D02*
X82238095Y-101020057D01*
X82238095Y-101020057D02*
X82190476Y-101115295D01*
X82190476Y-101115295D02*
X82190476Y-101210533D01*
X82190476Y-101210533D02*
X82238095Y-101353390D01*
X82238095Y-101353390D02*
X82809523Y-101924819D01*
X82809523Y-101924819D02*
X82190476Y-101924819D01*
X91095238Y-102020057D02*
X91190476Y-101972438D01*
X91190476Y-101972438D02*
X91285714Y-101877200D01*
X91285714Y-101877200D02*
X91428571Y-101734342D01*
X91428571Y-101734342D02*
X91523809Y-101686723D01*
X91523809Y-101686723D02*
X91619047Y-101686723D01*
X91571428Y-101924819D02*
X91666666Y-101877200D01*
X91666666Y-101877200D02*
X91761904Y-101781961D01*
X91761904Y-101781961D02*
X91809523Y-101591485D01*
X91809523Y-101591485D02*
X91809523Y-101258152D01*
X91809523Y-101258152D02*
X91761904Y-101067676D01*
X91761904Y-101067676D02*
X91666666Y-100972438D01*
X91666666Y-100972438D02*
X91571428Y-100924819D01*
X91571428Y-100924819D02*
X91380952Y-100924819D01*
X91380952Y-100924819D02*
X91285714Y-100972438D01*
X91285714Y-100972438D02*
X91190476Y-101067676D01*
X91190476Y-101067676D02*
X91142857Y-101258152D01*
X91142857Y-101258152D02*
X91142857Y-101591485D01*
X91142857Y-101591485D02*
X91190476Y-101781961D01*
X91190476Y-101781961D02*
X91285714Y-101877200D01*
X91285714Y-101877200D02*
X91380952Y-101924819D01*
X91380952Y-101924819D02*
X91571428Y-101924819D01*
X90190476Y-101924819D02*
X90761904Y-101924819D01*
X90476190Y-101924819D02*
X90476190Y-100924819D01*
X90476190Y-100924819D02*
X90571428Y-101067676D01*
X90571428Y-101067676D02*
X90666666Y-101162914D01*
X90666666Y-101162914D02*
X90761904Y-101210533D01*
X78770714Y-74931009D02*
X78627857Y-74978628D01*
X78627857Y-74978628D02*
X78580238Y-75026247D01*
X78580238Y-75026247D02*
X78532619Y-75121485D01*
X78532619Y-75121485D02*
X78532619Y-75264342D01*
X78532619Y-75264342D02*
X78580238Y-75359580D01*
X78580238Y-75359580D02*
X78627857Y-75407200D01*
X78627857Y-75407200D02*
X78723095Y-75454819D01*
X78723095Y-75454819D02*
X79104047Y-75454819D01*
X79104047Y-75454819D02*
X79104047Y-74454819D01*
X79104047Y-74454819D02*
X78770714Y-74454819D01*
X78770714Y-74454819D02*
X78675476Y-74502438D01*
X78675476Y-74502438D02*
X78627857Y-74550057D01*
X78627857Y-74550057D02*
X78580238Y-74645295D01*
X78580238Y-74645295D02*
X78580238Y-74740533D01*
X78580238Y-74740533D02*
X78627857Y-74835771D01*
X78627857Y-74835771D02*
X78675476Y-74883390D01*
X78675476Y-74883390D02*
X78770714Y-74931009D01*
X78770714Y-74931009D02*
X79104047Y-74931009D01*
X78246904Y-74454819D02*
X77675476Y-74454819D01*
X77961190Y-75454819D02*
X77961190Y-74454819D01*
X76818333Y-75454819D02*
X77389761Y-75454819D01*
X77104047Y-75454819D02*
X77104047Y-74454819D01*
X77104047Y-74454819D02*
X77199285Y-74597676D01*
X77199285Y-74597676D02*
X77294523Y-74692914D01*
X77294523Y-74692914D02*
X77389761Y-74740533D01*
D12*
%TO.C,G\u002A\u002A\u002A*%
G36*
X113383380Y-90416041D02*
G01*
X113585373Y-91106308D01*
X113747359Y-91798804D01*
X113874555Y-92511296D01*
X113893944Y-92643752D01*
X113921258Y-92846239D01*
X113948137Y-93060646D01*
X113972559Y-93269527D01*
X113992506Y-93455434D01*
X114005955Y-93600921D01*
X114010887Y-93688540D01*
X114004383Y-93711683D01*
X113965606Y-93733329D01*
X113879352Y-93744134D01*
X113731415Y-93747075D01*
X113451943Y-93747075D01*
X113428432Y-93072150D01*
X113405835Y-92627481D01*
X113366423Y-92161731D01*
X113313506Y-91734450D01*
X113249025Y-91364123D01*
X113208260Y-91167548D01*
X112920125Y-91140547D01*
X112875372Y-91136757D01*
X112609505Y-91125565D01*
X112296835Y-91127027D01*
X111960708Y-91139959D01*
X111624467Y-91163175D01*
X111311456Y-91195491D01*
X111045019Y-91235721D01*
X110965960Y-91250949D01*
X110699145Y-91307354D01*
X110380545Y-91380434D01*
X110025694Y-91466299D01*
X109650126Y-91561054D01*
X109269373Y-91660809D01*
X109169217Y-91688082D01*
X108898970Y-91761672D01*
X108554450Y-91859749D01*
X108267510Y-91943510D01*
X107724506Y-92101292D01*
X107244373Y-92239506D01*
X106820425Y-92359817D01*
X106445980Y-92463892D01*
X106114353Y-92553395D01*
X105818860Y-92629993D01*
X105552817Y-92695352D01*
X105309540Y-92751136D01*
X105082346Y-92799012D01*
X104864549Y-92840646D01*
X104649467Y-92877703D01*
X104430414Y-92911849D01*
X104200708Y-92944750D01*
X104015798Y-92969168D01*
X103559861Y-93020245D01*
X103098311Y-93060103D01*
X102642639Y-93088400D01*
X102204334Y-93104794D01*
X101794888Y-93108942D01*
X101425790Y-93100502D01*
X101108531Y-93079131D01*
X100854600Y-93044487D01*
X100282706Y-92909501D01*
X99621539Y-92692231D01*
X98935026Y-92404734D01*
X98224056Y-92047462D01*
X97489517Y-91620864D01*
X97425724Y-91579122D01*
X99637834Y-91579122D01*
X99640196Y-91608385D01*
X99665709Y-91661597D01*
X99729173Y-91707374D01*
X99842829Y-91752995D01*
X100018916Y-91805741D01*
X100185798Y-91846366D01*
X100385573Y-91884875D01*
X100558818Y-91908693D01*
X100606169Y-91913047D01*
X100723773Y-91920808D01*
X100790566Y-91914459D01*
X100825666Y-91889574D01*
X100835054Y-91869631D01*
X101283353Y-91869631D01*
X101304737Y-91963133D01*
X101361410Y-92053818D01*
X101451844Y-92123872D01*
X101621904Y-92184977D01*
X101831437Y-92201050D01*
X102027944Y-92155351D01*
X102193449Y-92049678D01*
X102201446Y-92042027D01*
X102329209Y-91870679D01*
X102425066Y-91647124D01*
X102487334Y-91388050D01*
X102514331Y-91110150D01*
X102504372Y-90830112D01*
X102455774Y-90564628D01*
X102366854Y-90330388D01*
X102359447Y-90316410D01*
X102244842Y-90163911D01*
X102100461Y-90057614D01*
X101943054Y-90006532D01*
X101789371Y-90019676D01*
X101769971Y-90026582D01*
X101639270Y-90105477D01*
X101631358Y-90110253D01*
X101536298Y-90229824D01*
X101501007Y-90365827D01*
X101501545Y-90392298D01*
X101520469Y-90473595D01*
X101574182Y-90492442D01*
X101673195Y-90454234D01*
X101682447Y-90449560D01*
X101835883Y-90407944D01*
X101975246Y-90434713D01*
X102086619Y-90527404D01*
X102130766Y-90622635D01*
X102161983Y-90781010D01*
X102172409Y-90969807D01*
X102162189Y-91166208D01*
X102131472Y-91347398D01*
X102080405Y-91490561D01*
X102049217Y-91546367D01*
X101929136Y-91701228D01*
X101797485Y-91781738D01*
X101653115Y-91788699D01*
X101652971Y-91788671D01*
X101529420Y-91764664D01*
X101419210Y-91743476D01*
X101352567Y-91745444D01*
X101298787Y-91791129D01*
X101283353Y-91869631D01*
X100835054Y-91869631D01*
X100848189Y-91841729D01*
X100866369Y-91773378D01*
X100889085Y-91647953D01*
X100907885Y-91503662D01*
X100911033Y-91474578D01*
X100928287Y-91328255D01*
X100952588Y-91134454D01*
X100981159Y-90914990D01*
X101011225Y-90691675D01*
X101038791Y-90474726D01*
X101058065Y-90261227D01*
X101059504Y-90105477D01*
X101042403Y-89998298D01*
X101020690Y-89957806D01*
X103611850Y-89957806D01*
X103614087Y-90061513D01*
X103680419Y-90203509D01*
X103810295Y-90382802D01*
X104003164Y-90598403D01*
X104174524Y-90776827D01*
X104074517Y-91007424D01*
X104032550Y-91110150D01*
X104018386Y-91144819D01*
X103934807Y-91393465D01*
X103882146Y-91618283D01*
X103861940Y-91808630D01*
X103875724Y-91953861D01*
X103925034Y-92043332D01*
X104005469Y-92105166D01*
X104072329Y-92127903D01*
X104144992Y-92111834D01*
X104198370Y-92086375D01*
X104246985Y-92043157D01*
X104287209Y-91973279D01*
X104324109Y-91864627D01*
X104362751Y-91705088D01*
X104408204Y-91482547D01*
X104416102Y-91442192D01*
X104450771Y-91264303D01*
X104478912Y-91118708D01*
X104497811Y-91019515D01*
X104504752Y-90980832D01*
X104528971Y-90974555D01*
X104601153Y-90971326D01*
X104665315Y-90983752D01*
X104718977Y-91037868D01*
X104771885Y-91179733D01*
X104872382Y-91382097D01*
X104988364Y-91556550D01*
X105110668Y-91691809D01*
X105230131Y-91776590D01*
X105337591Y-91799612D01*
X105406668Y-91785031D01*
X105454346Y-91750558D01*
X105467287Y-91688082D01*
X105444683Y-91588133D01*
X105385724Y-91441238D01*
X105289601Y-91237927D01*
X105253843Y-91163830D01*
X105147465Y-90922068D01*
X105068049Y-90695038D01*
X105009644Y-90460061D01*
X104966296Y-90194458D01*
X104932055Y-89875551D01*
X104926005Y-89810508D01*
X104906474Y-89642235D01*
X104884206Y-89528829D01*
X104855223Y-89454110D01*
X104815542Y-89401895D01*
X104801902Y-89388255D01*
X105355959Y-89388255D01*
X105373046Y-89508533D01*
X105390550Y-89538909D01*
X105469759Y-89595609D01*
X105568444Y-89591894D01*
X105664630Y-89526416D01*
X105682736Y-89508786D01*
X105792270Y-89457793D01*
X105916325Y-89463200D01*
X106024559Y-89525117D01*
X106035963Y-89536853D01*
X106158291Y-89706577D01*
X106262637Y-89928473D01*
X106342182Y-90181275D01*
X106390104Y-90443714D01*
X106399585Y-90694526D01*
X106398294Y-90719346D01*
X106387333Y-90861623D01*
X106368561Y-90952898D01*
X106334946Y-91015183D01*
X106279453Y-91070492D01*
X106190765Y-91127470D01*
X106047405Y-91161446D01*
X106043886Y-91161468D01*
X105942833Y-91178577D01*
X105874172Y-91217988D01*
X105855181Y-91248821D01*
X105847260Y-91345631D01*
X105894029Y-91444797D01*
X105986496Y-91521982D01*
X106095568Y-91560709D01*
X106223595Y-91578221D01*
X106349301Y-91564473D01*
X106531216Y-91490664D01*
X106677695Y-91359303D01*
X106786878Y-91177396D01*
X106856901Y-90951951D01*
X106885901Y-90689976D01*
X106872018Y-90398479D01*
X106813388Y-90084468D01*
X106708149Y-89754951D01*
X106614804Y-89551859D01*
X106477541Y-89334841D01*
X106361534Y-89203212D01*
X107227917Y-89203212D01*
X107228172Y-89233727D01*
X107241230Y-89546146D01*
X107271552Y-89859511D01*
X107316534Y-90160994D01*
X107373571Y-90437765D01*
X107440059Y-90676995D01*
X107445100Y-90689976D01*
X107513394Y-90865853D01*
X107590970Y-90991510D01*
X107622205Y-91025459D01*
X107737379Y-91116321D01*
X107838797Y-91134812D01*
X107930456Y-91081997D01*
X107939260Y-91072966D01*
X107972280Y-91027756D01*
X107984627Y-90972487D01*
X107974806Y-90891867D01*
X107941322Y-90770605D01*
X107882680Y-90593411D01*
X107855404Y-90502826D01*
X107836712Y-90407797D01*
X107841078Y-90360657D01*
X107879175Y-90346510D01*
X107974761Y-90327977D01*
X108102025Y-90311976D01*
X108334031Y-90289241D01*
X108458257Y-90480954D01*
X108494593Y-90532999D01*
X108605708Y-90657108D01*
X108714664Y-90735699D01*
X108740860Y-90748083D01*
X108816977Y-90777600D01*
X108861099Y-90770009D01*
X108901970Y-90723428D01*
X108931674Y-90661239D01*
X108937942Y-90571657D01*
X108914603Y-90516483D01*
X108860006Y-90406402D01*
X108780455Y-90253712D01*
X108682166Y-90070341D01*
X108571354Y-89868214D01*
X108475851Y-89694976D01*
X108353477Y-89470655D01*
X108239710Y-89259694D01*
X108144063Y-89079759D01*
X108076050Y-88948516D01*
X108041096Y-88880923D01*
X107897411Y-88639281D01*
X107762416Y-88473078D01*
X107636141Y-88382338D01*
X107518617Y-88367085D01*
X107409876Y-88427344D01*
X107357862Y-88484780D01*
X107295386Y-88596666D01*
X107254899Y-88745192D01*
X107233407Y-88943120D01*
X107227917Y-89203212D01*
X106361534Y-89203212D01*
X106323805Y-89160403D01*
X106166182Y-89045030D01*
X106164458Y-89044143D01*
X106010359Y-88993627D01*
X105836022Y-88978951D01*
X105670800Y-88999636D01*
X105544048Y-89055201D01*
X105473097Y-89122096D01*
X105392496Y-89250995D01*
X105355959Y-89388255D01*
X104801902Y-89388255D01*
X104734218Y-89320571D01*
X104629064Y-89398641D01*
X104581843Y-89436284D01*
X104578047Y-89440363D01*
X104512619Y-89510673D01*
X104467380Y-89599912D01*
X104444392Y-89715929D01*
X104442790Y-89816136D01*
X104441919Y-89870652D01*
X104458226Y-90076010D01*
X104491579Y-90343931D01*
X104517476Y-90534051D01*
X104208266Y-90243527D01*
X104082559Y-90129145D01*
X103914830Y-89993803D01*
X103785963Y-89916331D01*
X103692141Y-89894639D01*
X103629545Y-89926636D01*
X103611850Y-89957806D01*
X101020690Y-89957806D01*
X101006054Y-89930512D01*
X100949751Y-89892940D01*
X100882189Y-89898605D01*
X100814529Y-89975444D01*
X100752790Y-90123006D01*
X100697649Y-90338603D01*
X100649783Y-90619547D01*
X100609869Y-90963151D01*
X100578584Y-91366727D01*
X100576256Y-91397048D01*
X100556548Y-91491995D01*
X100511307Y-91548617D01*
X100428732Y-91570952D01*
X100297020Y-91563034D01*
X100104369Y-91528900D01*
X99996019Y-91508316D01*
X99826456Y-91485740D01*
X99715951Y-91489401D01*
X99655934Y-91520220D01*
X99637834Y-91579122D01*
X97425724Y-91579122D01*
X96732298Y-91125390D01*
X95953287Y-90561490D01*
X95807050Y-90449455D01*
X95586293Y-90276382D01*
X95533574Y-90234159D01*
X96938133Y-90234159D01*
X96946556Y-90318387D01*
X97018026Y-90484024D01*
X97159733Y-90631017D01*
X97368493Y-90755507D01*
X97450528Y-90791597D01*
X97622223Y-90852244D01*
X97755829Y-90877459D01*
X97838488Y-90864267D01*
X97840470Y-90862471D01*
X97866027Y-90810469D01*
X97870985Y-90797236D01*
X98449500Y-90797236D01*
X98461184Y-90923627D01*
X98464096Y-90936374D01*
X98522629Y-91125403D01*
X98596389Y-91266633D01*
X98678122Y-91345940D01*
X98788602Y-91388773D01*
X98983084Y-91406261D01*
X99175948Y-91361972D01*
X99348519Y-91261385D01*
X99482125Y-91109982D01*
X99494322Y-91087356D01*
X99538158Y-90982810D01*
X99593465Y-90828952D01*
X99654694Y-90643528D01*
X99716293Y-90444280D01*
X99772713Y-90248951D01*
X99818401Y-90075284D01*
X99847808Y-89941024D01*
X99850284Y-89926359D01*
X99851786Y-89816136D01*
X99809360Y-89741398D01*
X99773211Y-89707944D01*
X99715053Y-89681652D01*
X99653032Y-89707612D01*
X99620017Y-89737159D01*
X99578267Y-89803068D01*
X99535529Y-89909450D01*
X99487418Y-90067722D01*
X99429547Y-90289298D01*
X99408194Y-90374289D01*
X99346321Y-90611889D01*
X99295428Y-90788354D01*
X99251617Y-90913832D01*
X99210991Y-90998472D01*
X99169656Y-91052420D01*
X99123714Y-91085824D01*
X99062653Y-91110065D01*
X98953336Y-91105190D01*
X98869653Y-91034089D01*
X98821591Y-90902811D01*
X98818393Y-90879102D01*
X98815319Y-90736316D01*
X98828228Y-90545506D01*
X98854701Y-90327530D01*
X98892320Y-90103243D01*
X98938664Y-89893505D01*
X98962606Y-89794282D01*
X98976291Y-89702330D01*
X98967341Y-89639303D01*
X98935499Y-89579808D01*
X98885018Y-89516960D01*
X98841834Y-89488392D01*
X98818709Y-89495629D01*
X98754173Y-89552165D01*
X98681712Y-89647014D01*
X98616550Y-89758729D01*
X98573909Y-89865863D01*
X98549545Y-89964101D01*
X98506872Y-90180650D01*
X98474521Y-90405312D01*
X98454671Y-90617653D01*
X98449500Y-90797236D01*
X97870985Y-90797236D01*
X97907990Y-90698477D01*
X97962415Y-90538063D01*
X98025357Y-90340796D01*
X98092871Y-90118243D01*
X98119764Y-90027295D01*
X98185413Y-89802787D01*
X98231672Y-89637097D01*
X98260480Y-89519773D01*
X98273774Y-89440363D01*
X98273495Y-89388413D01*
X98261579Y-89353473D01*
X98239966Y-89325088D01*
X98182798Y-89275530D01*
X98055375Y-89195464D01*
X97898650Y-89117027D01*
X97738741Y-89052881D01*
X97601765Y-89015689D01*
X97558444Y-89010698D01*
X97411160Y-89032772D01*
X97299493Y-89111279D01*
X97230959Y-89234336D01*
X97213072Y-89390062D01*
X97253348Y-89566574D01*
X97275193Y-89623316D01*
X97292613Y-89691751D01*
X97273383Y-89729710D01*
X97211966Y-89763553D01*
X97173269Y-89785359D01*
X97052381Y-89901842D01*
X96969131Y-90059815D01*
X96938133Y-90234159D01*
X95533574Y-90234159D01*
X95355880Y-90091844D01*
X95123512Y-89902357D01*
X94896892Y-89714435D01*
X94683719Y-89534593D01*
X94491696Y-89369344D01*
X94328522Y-89225203D01*
X94201900Y-89108685D01*
X94119530Y-89026304D01*
X94089114Y-88984575D01*
X94105327Y-88979121D01*
X94186227Y-88971692D01*
X94325787Y-88965343D01*
X94513621Y-88960403D01*
X94739345Y-88957198D01*
X94992574Y-88956057D01*
X95162125Y-88955626D01*
X95401615Y-88953440D01*
X95608284Y-88949657D01*
X95771325Y-88944561D01*
X95879931Y-88938438D01*
X95923297Y-88931571D01*
X95919847Y-88910752D01*
X95887821Y-88830288D01*
X95827954Y-88698735D01*
X95744749Y-88525614D01*
X95642713Y-88320443D01*
X95526348Y-88092742D01*
X95443547Y-87931587D01*
X95336348Y-87719102D01*
X95246334Y-87536078D01*
X95178056Y-87391976D01*
X95136068Y-87296259D01*
X95124922Y-87258389D01*
X95156776Y-87264935D01*
X95242680Y-87302121D01*
X95368016Y-87364468D01*
X95518703Y-87445293D01*
X95883894Y-87639251D01*
X96751140Y-88038800D01*
X97656343Y-88374040D01*
X98595663Y-88643643D01*
X99565264Y-88846279D01*
X99656808Y-88861606D01*
X99814761Y-88885358D01*
X99967092Y-88903391D01*
X100127410Y-88916481D01*
X100309326Y-88925402D01*
X100526450Y-88930930D01*
X100792394Y-88933842D01*
X101120768Y-88934911D01*
X101376149Y-88934853D01*
X101650831Y-88933285D01*
X101872980Y-88929331D01*
X102055881Y-88922237D01*
X102212821Y-88911247D01*
X102357086Y-88895605D01*
X102501963Y-88874556D01*
X102660738Y-88847344D01*
X102680907Y-88843711D01*
X102974018Y-88787315D01*
X103248231Y-88726392D01*
X103514404Y-88657238D01*
X103783392Y-88576154D01*
X104066053Y-88479439D01*
X104373244Y-88363392D01*
X104518006Y-88304621D01*
X108790512Y-88304621D01*
X108890448Y-88715893D01*
X108906962Y-88782001D01*
X108962345Y-88989939D01*
X109031239Y-89235009D01*
X109106451Y-89491962D01*
X109180793Y-89735548D01*
X109250557Y-89954747D01*
X109310106Y-90129633D01*
X109359671Y-90255756D01*
X109404817Y-90345711D01*
X109451108Y-90412096D01*
X109504110Y-90467509D01*
X109587997Y-90533104D01*
X109678526Y-90571657D01*
X109708643Y-90584483D01*
X109809537Y-90578598D01*
X109878577Y-90517407D01*
X109903662Y-90402868D01*
X109902175Y-90377354D01*
X109888649Y-90273241D01*
X109864098Y-90127630D01*
X109832290Y-89963691D01*
X109816073Y-89883596D01*
X109790147Y-89746641D01*
X109774284Y-89649760D01*
X109771434Y-89610091D01*
X109783212Y-89603683D01*
X109851276Y-89574023D01*
X109965515Y-89527147D01*
X110109699Y-89469787D01*
X110438086Y-89340868D01*
X110587246Y-89637534D01*
X110687882Y-89816607D01*
X110820227Y-89994158D01*
X110951747Y-90109491D01*
X111077510Y-90158535D01*
X111192588Y-90137222D01*
X111233806Y-90108729D01*
X111275393Y-90046376D01*
X111289233Y-89953358D01*
X111274893Y-89819815D01*
X111231941Y-89635886D01*
X111159946Y-89391714D01*
X111101869Y-89197070D01*
X111028803Y-88932727D01*
X110961280Y-88669451D01*
X110908697Y-88442733D01*
X110868723Y-88261387D01*
X110830035Y-88096590D01*
X110797831Y-87970147D01*
X110776514Y-87900129D01*
X110761972Y-87870819D01*
X110676666Y-87789971D01*
X110563847Y-87761947D01*
X110451307Y-87795674D01*
X110423237Y-87815389D01*
X110331306Y-87910636D01*
X110270779Y-88040486D01*
X110237193Y-88218033D01*
X110226084Y-88456369D01*
X110224315Y-88812220D01*
X110000812Y-88903150D01*
X109892144Y-88945054D01*
X109786966Y-88980469D01*
X109727242Y-88994081D01*
X109694899Y-88965388D01*
X109637858Y-88880352D01*
X109565606Y-88752534D01*
X109486416Y-88595621D01*
X109389303Y-88403799D01*
X109291661Y-88243904D01*
X109203117Y-88142961D01*
X109116905Y-88093508D01*
X109026257Y-88088079D01*
X109025070Y-88088264D01*
X108943938Y-88127374D01*
X108866416Y-88202569D01*
X108790512Y-88304621D01*
X104518006Y-88304621D01*
X104715820Y-88224312D01*
X105104639Y-88058498D01*
X105550558Y-87862249D01*
X105970094Y-87682471D01*
X106722349Y-87394363D01*
X107459595Y-87155665D01*
X108171031Y-86969727D01*
X108845857Y-86839900D01*
X109003635Y-86818840D01*
X109316474Y-86791174D01*
X109654639Y-86775864D01*
X109998061Y-86772925D01*
X110326668Y-86782371D01*
X110620391Y-86804217D01*
X110859159Y-86838476D01*
X111239105Y-86929738D01*
X111662908Y-87074034D01*
X111709419Y-87082012D01*
X111729450Y-87039915D01*
X111745466Y-86988109D01*
X111793649Y-86983973D01*
X111861215Y-87031552D01*
X111935122Y-87125426D01*
X111946073Y-87143114D01*
X112022339Y-87277053D01*
X112121657Y-87464349D01*
X112237355Y-87691391D01*
X112362757Y-87944564D01*
X112491189Y-88210258D01*
X112615977Y-88474859D01*
X112730448Y-88724755D01*
X112827926Y-88946335D01*
X112838513Y-88971135D01*
X113136165Y-89710238D01*
X113221320Y-89953358D01*
X113383380Y-90416041D01*
G37*
G36*
X107631942Y-88997902D02*
G01*
X107674095Y-89045212D01*
X107743322Y-89134881D01*
X107829254Y-89252151D01*
X107921526Y-89382267D01*
X108009771Y-89510470D01*
X108083622Y-89622005D01*
X108132712Y-89702114D01*
X108146674Y-89736041D01*
X108116641Y-89744257D01*
X108029860Y-89761482D01*
X107908043Y-89782841D01*
X107802861Y-89800377D01*
X107701561Y-89817299D01*
X107651382Y-89825727D01*
X107649703Y-89825965D01*
X107621194Y-89802090D01*
X107620948Y-89798824D01*
X107614823Y-89739672D01*
X107602490Y-89629218D01*
X107586279Y-89488392D01*
X107584773Y-89475236D01*
X107569917Y-89281014D01*
X107572317Y-89128844D01*
X107591113Y-89029581D01*
X107625445Y-88994081D01*
X107631942Y-88997902D01*
G37*
G36*
X97498664Y-90012587D02*
G01*
X97653365Y-90055760D01*
X97675304Y-90065314D01*
X97740900Y-90108340D01*
X97769725Y-90170480D01*
X97765545Y-90269247D01*
X97732122Y-90422153D01*
X97701758Y-90518376D01*
X97653791Y-90578587D01*
X97578509Y-90580120D01*
X97459074Y-90529603D01*
X97294584Y-90426477D01*
X97194864Y-90313441D01*
X97169308Y-90196499D01*
X97218857Y-90077426D01*
X97250468Y-90047299D01*
X97357246Y-90010121D01*
X97498664Y-90012587D01*
G37*
G36*
X97773459Y-89356107D02*
G01*
X97884614Y-89387009D01*
X97968934Y-89426145D01*
X98001969Y-89465960D01*
X97998546Y-89485014D01*
X97971939Y-89563755D01*
X97927780Y-89669006D01*
X97902809Y-89718018D01*
X97845552Y-89798731D01*
X97796854Y-89830608D01*
X97773112Y-89825008D01*
X97695462Y-89782136D01*
X97602890Y-89710854D01*
X97528095Y-89637792D01*
X97483180Y-89560681D01*
X97477989Y-89473204D01*
X97485524Y-89422485D01*
X97520329Y-89364560D01*
X97602394Y-89342471D01*
X97659920Y-89340997D01*
X97773459Y-89356107D01*
G37*
D13*
%TO.C,SW2*%
X77250000Y-105000000D02*
X77250000Y-106500000D01*
X76000000Y-109000000D02*
X71500000Y-109000000D01*
X71500000Y-102500000D02*
X76000000Y-102500000D01*
X70250000Y-106500000D02*
X70250000Y-105000000D01*
%TO.C,SW1*%
X104250000Y-103500000D02*
X104250000Y-105000000D01*
X103000000Y-107500000D02*
X98500000Y-107500000D01*
X98500000Y-101000000D02*
X103000000Y-101000000D01*
X97250000Y-105000000D02*
X97250000Y-103500000D01*
%TO.C,RV1*%
X120110000Y-58090000D02*
X120110000Y-64910000D01*
X120110000Y-58090000D02*
X116822000Y-58090000D01*
X120110000Y-64910000D02*
X116822000Y-64910000D01*
X116058000Y-58090000D02*
X112890000Y-58090000D01*
X116058000Y-64910000D02*
X112890000Y-64910000D01*
X112890000Y-58090000D02*
X112890000Y-64910000D01*
%TO.C,R1*%
X57270000Y-84630000D02*
X50730000Y-84630000D01*
X57270000Y-84960000D02*
X57270000Y-84630000D01*
X57270000Y-87040000D02*
X57270000Y-87370000D01*
X57270000Y-87370000D02*
X50730000Y-87370000D01*
X50730000Y-84630000D02*
X50730000Y-84960000D01*
X50730000Y-87370000D02*
X50730000Y-87040000D01*
%TO.C,Q2*%
X84800000Y-107120000D02*
X81200000Y-107120000D01*
X83820000Y-102820000D02*
G75*
G02*
X84811453Y-107112156I-820000J-2450000D01*
G01*
X81191555Y-107097684D02*
G75*
G02*
X82220000Y-102820000I1808445J1827684D01*
G01*
%TO.C,Q1*%
X92800000Y-107120000D02*
X89200000Y-107120000D01*
X91820000Y-102820000D02*
G75*
G02*
X92811453Y-107112156I-820000J-2450000D01*
G01*
X89191555Y-107097684D02*
G75*
G02*
X90220000Y-102820000I1808445J1827684D01*
G01*
%TO.C,BT1*%
X88765000Y-81040000D02*
X88765000Y-83500000D01*
X88765000Y-89500000D02*
X88765000Y-90130000D01*
X88765000Y-90130000D02*
X87325000Y-94080000D01*
X86685000Y-78960000D02*
X88765000Y-81040000D01*
X83185000Y-78960000D02*
X86685000Y-78960000D01*
X69285000Y-78960000D02*
X72785000Y-78960000D01*
X69285000Y-78960000D02*
X67205000Y-81040000D01*
X67205000Y-81040000D02*
X67205000Y-83500000D01*
X67205000Y-89500000D02*
X67205000Y-90130000D01*
X67205000Y-90130000D02*
X68645000Y-94080000D01*
X87325000Y-94080000D02*
G75*
G02*
X83988354Y-95066530I-2030000J730001D01*
G01*
X71985000Y-95050000D02*
G75*
G02*
X68659757Y-94088169I-1310000J1700000D01*
G01*
%TD*%
M02*
