M48
; DRILL file {KiCad 9.0.2} date 2025-05-13T19:13:22+0530
; FORMAT={-:-/ absolute / metric / decimal}
; #@! TF.CreationDate,2025-05-13T19:13:22+05:30
; #@! TF.GenerationSoftware,Kicad,Pcbnew,9.0.2
; #@! TF.FileFunction,Plated,1,2,PTH
FMAT,2
METRIC
; #@! TA.AperFunction,Plated,PTH,ViaDrill
T1C0.300
; #@! TA.AperFunction,Plated,PTH,ComponentDrill
T2C0.750
; #@! TA.AperFunction,Plated,PTH,ComponentDrill
T3C0.800
; #@! TA.AperFunction,Plated,PTH,ComponentDrill
T4C0.900
; #@! TA.AperFunction,Plated,PTH,ComponentDrill
T5C1.100
%
G90
G05
T1
X52.0Y-68.5
X54.0Y-68.0
X78.0Y-69.0
T2
X81.73Y-105.27
X83.0Y-104.0
X84.27Y-105.27
X89.73Y-105.27
X91.0Y-104.0
X92.27Y-105.27
T3
X50.19Y-86.0
X57.81Y-86.0
X113.9Y-61.5
X116.44Y-58.96
X116.44Y-64.04
T4
X51.225Y-69.5
X53.765Y-69.5
X75.96Y-66.5
X78.5Y-66.5
X125.725Y-52.5
X128.265Y-52.5
T5
X70.5Y-103.5
X70.5Y-108.0
X77.0Y-103.5
X77.0Y-108.0
X97.5Y-102.0
X97.5Y-106.5
X104.0Y-102.0
X104.0Y-106.5
M30
