%TF.GenerationSoftware,KiCad,Pcbnew,9.0.2*%
%TF.CreationDate,2025-05-23T21:21:04+05:30*%
%TF.ProjectId,transisted-v2,7472616e-7369-4737-9465-642d76322e6b,rev?*%
%TF.SameCoordinates,Original*%
%TF.FileFunction,Legend,Top*%
%TF.FilePolarity,Positive*%
%FSLAX46Y46*%
G04 Gerber Fmt 4.6, Leading zero omitted, Abs format (unit mm)*
G04 Created by KiCad (PCBNEW 9.0.2) date 2025-05-23 21:21:04*
%MOMM*%
%LPD*%
G01*
G04 APERTURE LIST*
%ADD10C,0.150000*%
%ADD11C,0.000000*%
%ADD12C,0.120000*%
G04 APERTURE END LIST*
D10*
X128931905Y-85744819D02*
X128931905Y-84744819D01*
X128931905Y-84744819D02*
X129170000Y-84744819D01*
X129170000Y-84744819D02*
X129312857Y-84792438D01*
X129312857Y-84792438D02*
X129408095Y-84887676D01*
X129408095Y-84887676D02*
X129455714Y-84982914D01*
X129455714Y-84982914D02*
X129503333Y-85173390D01*
X129503333Y-85173390D02*
X129503333Y-85316247D01*
X129503333Y-85316247D02*
X129455714Y-85506723D01*
X129455714Y-85506723D02*
X129408095Y-85601961D01*
X129408095Y-85601961D02*
X129312857Y-85697200D01*
X129312857Y-85697200D02*
X129170000Y-85744819D01*
X129170000Y-85744819D02*
X128931905Y-85744819D01*
X130455714Y-85744819D02*
X129884286Y-85744819D01*
X130170000Y-85744819D02*
X130170000Y-84744819D01*
X130170000Y-84744819D02*
X130074762Y-84887676D01*
X130074762Y-84887676D02*
X129979524Y-84982914D01*
X129979524Y-84982914D02*
X129884286Y-85030533D01*
X165391905Y-87504819D02*
X165391905Y-86504819D01*
X165391905Y-86504819D02*
X165630000Y-86504819D01*
X165630000Y-86504819D02*
X165772857Y-86552438D01*
X165772857Y-86552438D02*
X165868095Y-86647676D01*
X165868095Y-86647676D02*
X165915714Y-86742914D01*
X165915714Y-86742914D02*
X165963333Y-86933390D01*
X165963333Y-86933390D02*
X165963333Y-87076247D01*
X165963333Y-87076247D02*
X165915714Y-87266723D01*
X165915714Y-87266723D02*
X165868095Y-87361961D01*
X165868095Y-87361961D02*
X165772857Y-87457200D01*
X165772857Y-87457200D02*
X165630000Y-87504819D01*
X165630000Y-87504819D02*
X165391905Y-87504819D01*
X166344286Y-86600057D02*
X166391905Y-86552438D01*
X166391905Y-86552438D02*
X166487143Y-86504819D01*
X166487143Y-86504819D02*
X166725238Y-86504819D01*
X166725238Y-86504819D02*
X166820476Y-86552438D01*
X166820476Y-86552438D02*
X166868095Y-86600057D01*
X166868095Y-86600057D02*
X166915714Y-86695295D01*
X166915714Y-86695295D02*
X166915714Y-86790533D01*
X166915714Y-86790533D02*
X166868095Y-86933390D01*
X166868095Y-86933390D02*
X166296667Y-87504819D01*
X166296667Y-87504819D02*
X166915714Y-87504819D01*
D11*
%TO.C,G\u002A\u002A\u002A*%
G36*
X153038864Y-46712907D02*
G01*
X152993829Y-46757943D01*
X152948794Y-46712907D01*
X152993829Y-46667872D01*
X153038864Y-46712907D01*
G37*
G36*
X153012851Y-46503330D02*
G01*
X152980494Y-46556311D01*
X152948794Y-46577801D01*
X152762403Y-46661612D01*
X152681368Y-46607964D01*
X152678581Y-46577801D01*
X152754866Y-46508036D01*
X152881240Y-46489109D01*
X153012851Y-46503330D01*
G37*
G36*
X149525198Y-81994820D02*
G01*
X149883872Y-82058294D01*
X150108996Y-82176769D01*
X150222182Y-82360417D01*
X150246666Y-82557533D01*
X150213208Y-82808670D01*
X150100110Y-82983953D01*
X149888283Y-83088812D01*
X149558637Y-83128676D01*
X149092084Y-83108973D01*
X148535318Y-83044245D01*
X148050586Y-82955799D01*
X147726170Y-82841430D01*
X147543135Y-82693103D01*
X147498953Y-82604437D01*
X147483549Y-82374381D01*
X147607627Y-82200177D01*
X147879836Y-82078232D01*
X148308829Y-82004952D01*
X148903255Y-81976745D01*
X149011360Y-81976175D01*
X149525198Y-81994820D01*
G37*
G36*
X140522130Y-85378069D02*
G01*
X140638245Y-85665068D01*
X140682639Y-85811671D01*
X140916383Y-86329689D01*
X141305642Y-86832200D01*
X141825962Y-87295870D01*
X142452887Y-87697370D01*
X142870429Y-87898888D01*
X143119494Y-87999907D01*
X143340066Y-88068908D01*
X143576040Y-88111926D01*
X143871310Y-88134998D01*
X144269770Y-88144159D01*
X144664163Y-88145531D01*
X145157860Y-88143927D01*
X145514253Y-88134472D01*
X145776173Y-88110206D01*
X145986456Y-88064167D01*
X146187935Y-87989393D01*
X146423444Y-87878922D01*
X146482228Y-87850047D01*
X146988984Y-87545377D01*
X147417033Y-87180357D01*
X147736765Y-86786494D01*
X147918571Y-86395300D01*
X147939366Y-86299355D01*
X148026658Y-86006877D01*
X148183438Y-85870422D01*
X148432671Y-85871986D01*
X148472598Y-85881271D01*
X148636465Y-85987907D01*
X148812597Y-86238931D01*
X148945269Y-86498502D01*
X149272132Y-87039903D01*
X149724448Y-87576650D01*
X150253113Y-88059578D01*
X150809024Y-88439526D01*
X150967233Y-88522896D01*
X151725205Y-88813018D01*
X152480177Y-88952691D01*
X153212310Y-88949451D01*
X153901766Y-88810830D01*
X154528706Y-88544362D01*
X155073290Y-88157580D01*
X155515681Y-87658020D01*
X155836039Y-87053213D01*
X155965544Y-86624818D01*
X156039637Y-86348354D01*
X156123010Y-86203901D01*
X156247982Y-86144810D01*
X156304163Y-86136055D01*
X156537236Y-86167160D01*
X156654855Y-86331319D01*
X156657959Y-86631208D01*
X156586977Y-86942449D01*
X156282980Y-87680339D01*
X155834888Y-88312376D01*
X155247492Y-88834121D01*
X154525583Y-89241133D01*
X153845656Y-89483619D01*
X153278299Y-89603456D01*
X152667795Y-89667314D01*
X152091810Y-89669655D01*
X151756003Y-89632665D01*
X150902190Y-89415318D01*
X150115293Y-89086297D01*
X149426107Y-88662577D01*
X148865423Y-88161130D01*
X148679807Y-87936972D01*
X148328905Y-87468715D01*
X147869168Y-87902909D01*
X147219166Y-88398545D01*
X146488754Y-88751577D01*
X145702750Y-88965501D01*
X144885971Y-89043817D01*
X144063236Y-88990022D01*
X143259362Y-88807615D01*
X142499166Y-88500093D01*
X141807468Y-88070955D01*
X141209084Y-87523699D01*
X140750823Y-86899563D01*
X140553781Y-86512577D01*
X140403113Y-86113919D01*
X140311315Y-85749079D01*
X140290883Y-85463543D01*
X140322560Y-85340631D01*
X140417040Y-85270104D01*
X140522130Y-85378069D01*
G37*
G36*
X161620459Y-75717291D02*
G01*
X161958679Y-75727896D01*
X162211801Y-75756503D01*
X162427349Y-75812058D01*
X162652845Y-75903505D01*
X162935810Y-76039789D01*
X162975604Y-76059443D01*
X163743421Y-76528864D01*
X164370712Y-77107901D01*
X164853836Y-77792988D01*
X164965487Y-78008966D01*
X165284430Y-78846466D01*
X165438521Y-79666876D01*
X165432599Y-80454709D01*
X165271500Y-81194478D01*
X164960063Y-81870696D01*
X164503126Y-82467875D01*
X163905527Y-82970528D01*
X163311958Y-83302205D01*
X162411314Y-83649411D01*
X161574763Y-83835899D01*
X160787941Y-83863111D01*
X160036482Y-83732488D01*
X159794184Y-83655124D01*
X159241264Y-83441894D01*
X158813667Y-83231150D01*
X158459860Y-82991123D01*
X158128312Y-82690043D01*
X157985422Y-82540035D01*
X157912763Y-82446298D01*
X162226099Y-82446298D01*
X162293436Y-82628399D01*
X162477639Y-82697014D01*
X162751995Y-82647451D01*
X162928621Y-82569692D01*
X163251496Y-82339458D01*
X163507127Y-82042785D01*
X163619287Y-81813727D01*
X163620153Y-81583033D01*
X163505331Y-81405730D01*
X163339024Y-81345177D01*
X163209373Y-81407695D01*
X163004729Y-81568891D01*
X162765052Y-81789226D01*
X162530305Y-82029165D01*
X162340448Y-82249169D01*
X162235444Y-82409700D01*
X162226099Y-82446298D01*
X157912763Y-82446298D01*
X157551313Y-81979995D01*
X161098840Y-81979995D01*
X161099688Y-82193521D01*
X161214285Y-82350009D01*
X161388879Y-82422269D01*
X161569714Y-82383107D01*
X161673560Y-82270730D01*
X161710123Y-82055676D01*
X161605085Y-81877843D01*
X161395672Y-81796154D01*
X161373325Y-81795531D01*
X161168837Y-81866638D01*
X161098840Y-81979995D01*
X157551313Y-81979995D01*
X157444229Y-81841847D01*
X157078765Y-81106971D01*
X156887410Y-80330333D01*
X156868547Y-79506858D01*
X156908841Y-79163835D01*
X157117277Y-78341221D01*
X157473812Y-77616548D01*
X157543132Y-77530436D01*
X158379899Y-77530436D01*
X158433756Y-77792306D01*
X158626167Y-77982882D01*
X158643822Y-77991819D01*
X158809923Y-78062085D01*
X158950929Y-78077645D01*
X159110844Y-78025140D01*
X159333675Y-77891211D01*
X159614042Y-77697304D01*
X159909277Y-77503444D01*
X160165564Y-77360093D01*
X160334709Y-77293716D01*
X160352198Y-77291985D01*
X160593384Y-77220829D01*
X160762315Y-77041276D01*
X160847680Y-76804195D01*
X160838167Y-76560458D01*
X160722464Y-76360934D01*
X160577971Y-76276674D01*
X160281168Y-76255831D01*
X159900564Y-76337246D01*
X159483029Y-76499172D01*
X159075430Y-76719863D01*
X158724635Y-76977572D01*
X158477513Y-77250553D01*
X158476844Y-77251571D01*
X158379899Y-77530436D01*
X157543132Y-77530436D01*
X157981610Y-76985740D01*
X158643836Y-76444720D01*
X159320646Y-76057215D01*
X159615265Y-75915826D01*
X159846714Y-75820103D01*
X160062696Y-75761140D01*
X160310915Y-75730030D01*
X160639073Y-75717868D01*
X161094874Y-75715747D01*
X161149619Y-75715744D01*
X161620459Y-75717291D01*
G37*
G36*
X136842647Y-74726568D02*
G01*
X137181484Y-74737318D01*
X137435584Y-74766119D01*
X137652651Y-74821879D01*
X137880387Y-74913503D01*
X138166496Y-75049897D01*
X138200345Y-75066435D01*
X138837854Y-75438226D01*
X139411671Y-75888854D01*
X139886156Y-76385149D01*
X140225668Y-76893942D01*
X140275983Y-76998160D01*
X140523916Y-77703524D01*
X140627748Y-78413610D01*
X140587478Y-79158448D01*
X140403103Y-79968070D01*
X140275670Y-80354397D01*
X140128034Y-80726262D01*
X139964784Y-81022623D01*
X139743842Y-81307758D01*
X139443619Y-81625332D01*
X138810834Y-82163020D01*
X138130508Y-82538399D01*
X137375593Y-82763088D01*
X136600921Y-82846393D01*
X136025284Y-82842515D01*
X135540038Y-82791912D01*
X135338032Y-82747495D01*
X134420325Y-82419849D01*
X133648361Y-81996180D01*
X133123795Y-81562494D01*
X138001992Y-81562494D01*
X138059208Y-81707435D01*
X138109609Y-81735879D01*
X138420490Y-81788512D01*
X138713813Y-81676700D01*
X138946496Y-81469930D01*
X139205129Y-81140231D01*
X139364562Y-80837554D01*
X139419130Y-80588174D01*
X139363168Y-80418369D01*
X139191009Y-80354416D01*
X139187012Y-80354397D01*
X139008374Y-80416388D01*
X138827743Y-80557056D01*
X138644191Y-80746063D01*
X138409052Y-80983015D01*
X138316567Y-81074964D01*
X138089676Y-81345611D01*
X138001992Y-81562494D01*
X133123795Y-81562494D01*
X133025636Y-81481341D01*
X132940117Y-81371956D01*
X136698376Y-81371956D01*
X136704456Y-81392819D01*
X136827469Y-81500110D01*
X137025982Y-81516480D01*
X137220195Y-81442294D01*
X137276453Y-81390212D01*
X137343176Y-81246050D01*
X137276453Y-81119999D01*
X137126510Y-81005713D01*
X137046681Y-80984893D01*
X136872618Y-81051822D01*
X136736447Y-81204765D01*
X136698376Y-81371956D01*
X132940117Y-81371956D01*
X132555644Y-80880187D01*
X132241879Y-80197570D01*
X132087836Y-79438344D01*
X132097009Y-78607362D01*
X132138788Y-78304244D01*
X132371915Y-77433004D01*
X132418857Y-77338248D01*
X132887493Y-77338248D01*
X132960096Y-77577704D01*
X133144570Y-77713759D01*
X133412279Y-77725703D01*
X133734585Y-77592826D01*
X133744338Y-77586679D01*
X133941043Y-77437657D01*
X134197045Y-77213112D01*
X134394184Y-77023736D01*
X134694680Y-76753464D01*
X135030341Y-76497504D01*
X135224661Y-76372594D01*
X135513210Y-76154162D01*
X135683934Y-75917352D01*
X135733698Y-75693803D01*
X135659364Y-75515155D01*
X135457797Y-75413050D01*
X135321017Y-75400496D01*
X135053461Y-75459326D01*
X134697675Y-75617695D01*
X134293466Y-75848418D01*
X133880637Y-76124309D01*
X133498993Y-76418185D01*
X133188338Y-76702861D01*
X132988476Y-76951153D01*
X132955397Y-77016103D01*
X132887493Y-77338248D01*
X132418857Y-77338248D01*
X132757964Y-76653739D01*
X133289349Y-75976648D01*
X133958484Y-75411932D01*
X134545387Y-75068663D01*
X134838371Y-74926438D01*
X135068221Y-74830117D01*
X135282460Y-74770754D01*
X135528610Y-74739405D01*
X135854194Y-74727124D01*
X136306734Y-74724967D01*
X136371372Y-74724964D01*
X136842647Y-74726568D01*
G37*
G36*
X108190175Y-39311385D02*
G01*
X108579408Y-39390997D01*
X109039213Y-39508331D01*
X109528824Y-39650823D01*
X110007475Y-39805913D01*
X110434400Y-39961038D01*
X110768832Y-40103636D01*
X110970006Y-40221145D01*
X110975744Y-40226056D01*
X111153151Y-40330987D01*
X111403241Y-40426409D01*
X111426099Y-40432995D01*
X111781339Y-40548531D01*
X112264688Y-40729381D01*
X112842595Y-40961373D01*
X113481510Y-41230337D01*
X114147886Y-41522100D01*
X114808171Y-41822492D01*
X115428818Y-42117341D01*
X115524325Y-42164101D01*
X117889772Y-43419880D01*
X120224608Y-44842250D01*
X122510483Y-46418078D01*
X124729047Y-48134233D01*
X126861949Y-49977580D01*
X128169130Y-51213651D01*
X129528266Y-52587379D01*
X130736875Y-53900337D01*
X131807738Y-55167784D01*
X132753639Y-56404979D01*
X133587363Y-57627180D01*
X133727494Y-57848339D01*
X133929101Y-58183686D01*
X134164467Y-58596526D01*
X134418356Y-59057646D01*
X134675530Y-59537829D01*
X134920754Y-60007863D01*
X135138789Y-60438531D01*
X135314400Y-60800620D01*
X135432349Y-61064915D01*
X135477399Y-61202201D01*
X135477458Y-61203659D01*
X135532584Y-61330858D01*
X135667608Y-61527548D01*
X135725153Y-61599518D01*
X135970425Y-61894640D01*
X137108356Y-61403683D01*
X137577087Y-61198679D01*
X138033356Y-60994259D01*
X138427604Y-60812927D01*
X138710270Y-60677192D01*
X138729633Y-60667428D01*
X139021088Y-60540558D01*
X139446991Y-60382548D01*
X139967118Y-60206316D01*
X140541244Y-60024784D01*
X141129148Y-59850869D01*
X141690605Y-59697492D01*
X141960141Y-59629807D01*
X142288974Y-59572327D01*
X142717321Y-59527170D01*
X143164608Y-59502326D01*
X143266169Y-59500269D01*
X143601713Y-59491667D01*
X144076654Y-59473208D01*
X144650630Y-59446785D01*
X145283280Y-59414291D01*
X145934243Y-59377618D01*
X146126760Y-59366104D01*
X147172325Y-59320158D01*
X148279545Y-59303005D01*
X149410037Y-59313271D01*
X150525417Y-59349583D01*
X151587302Y-59410568D01*
X152557309Y-59494853D01*
X153397054Y-59601064D01*
X153596461Y-59633321D01*
X154327229Y-59774151D01*
X155168420Y-59962580D01*
X156071952Y-60185769D01*
X156989743Y-60430881D01*
X157873713Y-60685079D01*
X158675781Y-60935523D01*
X159343829Y-61167867D01*
X159812877Y-61337558D01*
X160252978Y-61486480D01*
X160621718Y-61600986D01*
X160876682Y-61667427D01*
X160921127Y-61675444D01*
X161282468Y-61728318D01*
X162317227Y-60604458D01*
X162751905Y-60131767D01*
X163256972Y-59581604D01*
X163781417Y-59009587D01*
X164274228Y-58471337D01*
X164477872Y-58248624D01*
X165493657Y-57220739D01*
X166664369Y-56183357D01*
X167966457Y-55151435D01*
X169376373Y-54139932D01*
X170870569Y-53163806D01*
X172425496Y-52238016D01*
X174017605Y-51377521D01*
X175623349Y-50597278D01*
X177219178Y-49912247D01*
X178172969Y-49549231D01*
X178683648Y-49358372D01*
X179267384Y-49130312D01*
X179832679Y-48901149D01*
X180095072Y-48790927D01*
X180603436Y-48590735D01*
X181172779Y-48393082D01*
X181716206Y-48227127D01*
X181982244Y-48157611D01*
X182414008Y-48044756D01*
X182952726Y-47889128D01*
X183536049Y-47709490D01*
X184101624Y-47524603D01*
X184219365Y-47484438D01*
X184851208Y-47277888D01*
X185575548Y-47059284D01*
X186355302Y-46838252D01*
X187153387Y-46624421D01*
X187932720Y-46427418D01*
X188656218Y-46256871D01*
X189286799Y-46122408D01*
X189787380Y-46033656D01*
X189832147Y-46027205D01*
X190261143Y-45954302D01*
X190514930Y-45879626D01*
X190598439Y-45801724D01*
X190598439Y-45801718D01*
X190627547Y-45706621D01*
X190730722Y-45623861D01*
X190931739Y-45545001D01*
X191254373Y-45461604D01*
X191722398Y-45365236D01*
X191949503Y-45322308D01*
X192411008Y-45235965D01*
X192854073Y-45152199D01*
X193221682Y-45081834D01*
X193420027Y-45043083D01*
X193751680Y-44989876D01*
X194066722Y-44959360D01*
X194157796Y-44956524D01*
X194379711Y-44932136D01*
X194511863Y-44872787D01*
X194516524Y-44866453D01*
X194659059Y-44777482D01*
X194859937Y-44804458D01*
X195068501Y-44919906D01*
X195234093Y-45096352D01*
X195305377Y-45294290D01*
X195372078Y-45457403D01*
X195526472Y-45496950D01*
X195686343Y-45530376D01*
X195732482Y-45587021D01*
X195655600Y-45655438D01*
X195513695Y-45677092D01*
X195383459Y-45699878D01*
X195290670Y-45795045D01*
X195207139Y-46002807D01*
X195150640Y-46194999D01*
X194985556Y-46723518D01*
X194774274Y-47306547D01*
X194539168Y-47889076D01*
X194302613Y-48416099D01*
X194086986Y-48832608D01*
X194057136Y-48883304D01*
X193859644Y-49188065D01*
X193572410Y-49600640D01*
X193219357Y-50089089D01*
X192824411Y-50621475D01*
X192411495Y-51165857D01*
X192004534Y-51690297D01*
X191627454Y-52162857D01*
X191346317Y-52502217D01*
X190809567Y-53123938D01*
X190297964Y-53691841D01*
X189789938Y-54226086D01*
X189263919Y-54746834D01*
X188698334Y-55274244D01*
X188071614Y-55828477D01*
X187362186Y-56429694D01*
X186548480Y-57098054D01*
X185687377Y-57791057D01*
X185182541Y-58197594D01*
X184650169Y-58631625D01*
X184136021Y-59055493D01*
X183685855Y-59431540D01*
X183435604Y-59644185D01*
X182817050Y-60162997D01*
X182110626Y-60734805D01*
X181360264Y-61325498D01*
X180609900Y-61900966D01*
X179903466Y-62427098D01*
X179284895Y-62869783D01*
X179249503Y-62894353D01*
X178826354Y-63178626D01*
X178319527Y-63505098D01*
X177760378Y-63854936D01*
X177180265Y-64209307D01*
X176610544Y-64549377D01*
X176082571Y-64856315D01*
X175627705Y-65111286D01*
X175277300Y-65295456D01*
X175156203Y-65352832D01*
X174874232Y-65488979D01*
X174499151Y-65684492D01*
X174092740Y-65906749D01*
X173898270Y-66017036D01*
X173500308Y-66234388D01*
X173102251Y-66432430D01*
X172765415Y-66581415D01*
X172637277Y-66628818D01*
X172327722Y-66744452D01*
X171937296Y-66909846D01*
X171544834Y-67091427D01*
X171503403Y-67111696D01*
X171076100Y-67312956D01*
X170580673Y-67532739D01*
X170117748Y-67726521D01*
X170077608Y-67742561D01*
X169648064Y-67930082D01*
X169379201Y-68089468D01*
X169255486Y-68230009D01*
X169253231Y-68235647D01*
X169138349Y-68376230D01*
X168909666Y-68554025D01*
X168628743Y-68723925D01*
X168304485Y-68916775D01*
X168152262Y-69058071D01*
X168147091Y-69125390D01*
X168472704Y-69620241D01*
X168725047Y-69963135D01*
X168911646Y-70163120D01*
X169040029Y-70229243D01*
X169062832Y-70226255D01*
X169201716Y-70184335D01*
X169473900Y-70102288D01*
X169840191Y-69991924D01*
X170261397Y-69865056D01*
X170265293Y-69863883D01*
X170793397Y-69692768D01*
X171368065Y-69487164D01*
X171906400Y-69277557D01*
X172201818Y-69151704D01*
X172608447Y-68976798D01*
X173127598Y-68764233D01*
X173702115Y-68536856D01*
X174274845Y-68317518D01*
X174475744Y-68242647D01*
X175046574Y-68028970D01*
X175653666Y-67796985D01*
X176235241Y-67570589D01*
X176729520Y-67373679D01*
X176862623Y-67319374D01*
X177391845Y-67108264D01*
X177994192Y-66878167D01*
X178575848Y-66664555D01*
X178849794Y-66568034D01*
X179343804Y-66386977D01*
X179922785Y-66158435D01*
X180509653Y-65913586D01*
X180962282Y-65713570D01*
X181493081Y-65482823D01*
X182082075Y-65246218D01*
X182652632Y-65033592D01*
X183073338Y-64891657D01*
X183488357Y-64759657D01*
X184024338Y-64585954D01*
X184631681Y-64386798D01*
X185260782Y-64178444D01*
X185779645Y-64004882D01*
X186409804Y-63798287D01*
X187082461Y-63586847D01*
X187741471Y-63387610D01*
X188330690Y-63217625D01*
X188707553Y-63115835D01*
X189271712Y-62961021D01*
X189925978Y-62766688D01*
X190591911Y-62556896D01*
X191191070Y-62355709D01*
X191229538Y-62342198D01*
X191789984Y-62154561D01*
X192457159Y-61946670D01*
X193162334Y-61739071D01*
X193836777Y-61552311D01*
X194111205Y-61480729D01*
X194711180Y-61326957D01*
X195337485Y-61164704D01*
X195933942Y-61008636D01*
X196444374Y-60873421D01*
X196678226Y-60810505D01*
X197407622Y-60620740D01*
X198095866Y-60457233D01*
X198719674Y-60324373D01*
X199255763Y-60226548D01*
X199680847Y-60168147D01*
X199971643Y-60153559D01*
X200077833Y-60169732D01*
X200338050Y-60216665D01*
X200519101Y-60206706D01*
X200788395Y-60238672D01*
X200910444Y-60325368D01*
X200974165Y-60404872D01*
X201016101Y-60513358D01*
X201038483Y-60681855D01*
X201043540Y-60941388D01*
X201033502Y-61322987D01*
X201014467Y-61773067D01*
X200847685Y-64001727D01*
X200544892Y-66344961D01*
X200106565Y-68799775D01*
X199533179Y-71363172D01*
X199414168Y-71841810D01*
X199301734Y-72301777D01*
X199165502Y-72881613D01*
X199018439Y-73524841D01*
X198873510Y-74174979D01*
X198783487Y-74588973D01*
X198418047Y-76200467D01*
X197989033Y-77925715D01*
X197490737Y-79787511D01*
X197395943Y-80129219D01*
X197265622Y-80616463D01*
X197143384Y-81108544D01*
X197044253Y-81542983D01*
X196989673Y-81818589D01*
X196869336Y-82308702D01*
X196704209Y-82685257D01*
X196507813Y-82932833D01*
X196293670Y-83036010D01*
X196075300Y-82979368D01*
X196013845Y-82931509D01*
X195935460Y-82876522D01*
X195829162Y-82848663D01*
X195662994Y-82849741D01*
X195405000Y-82881568D01*
X195023223Y-82945955D01*
X194692001Y-83006411D01*
X194126776Y-83110482D01*
X193503593Y-83224470D01*
X192906790Y-83332983D01*
X192510728Y-83404483D01*
X191340853Y-83691753D01*
X190394062Y-84028622D01*
X189763157Y-84272342D01*
X189203591Y-84463949D01*
X188661433Y-84617652D01*
X188082750Y-84747657D01*
X187413610Y-84868174D01*
X186902262Y-84948507D01*
X186320753Y-85046456D01*
X185667477Y-85172416D01*
X185034447Y-85307954D01*
X184641431Y-85401480D01*
X183616643Y-85649873D01*
X182699931Y-85848136D01*
X181830324Y-86008377D01*
X180946848Y-86142704D01*
X180825744Y-86159170D01*
X180421655Y-86217407D01*
X179958429Y-86290504D01*
X179469867Y-86372359D01*
X178989770Y-86456874D01*
X178551939Y-86537948D01*
X178190177Y-86609483D01*
X177938284Y-86665377D01*
X177830062Y-86699531D01*
X177829716Y-86699837D01*
X177873377Y-86774028D01*
X178009742Y-86960136D01*
X178217807Y-87230357D01*
X178476571Y-87556886D01*
X178485685Y-87568242D01*
X178822100Y-88018880D01*
X179171425Y-88539094D01*
X179482292Y-89050222D01*
X179627004Y-89315949D01*
X179883057Y-89791883D01*
X180181683Y-90310799D01*
X180474561Y-90789905D01*
X180599808Y-90982765D01*
X180884319Y-91425469D01*
X181190277Y-91927755D01*
X181463255Y-92399630D01*
X181530375Y-92521430D01*
X181775910Y-92937648D01*
X182060233Y-93365042D01*
X182332537Y-93728510D01*
X182406108Y-93815939D01*
X182648054Y-94103537D01*
X182954264Y-94483584D01*
X183282632Y-94903146D01*
X183546452Y-95249615D01*
X183960791Y-95768429D01*
X184442088Y-96316237D01*
X184956966Y-96859313D01*
X185472050Y-97363931D01*
X185953963Y-97796365D01*
X186369328Y-98122890D01*
X186434440Y-98167808D01*
X186793102Y-98461083D01*
X186972390Y-98741525D01*
X186972278Y-99013192D01*
X186792740Y-99280144D01*
X186433749Y-99546438D01*
X186425562Y-99551298D01*
X186065034Y-99767586D01*
X185673915Y-100006613D01*
X185498214Y-100115697D01*
X185218887Y-100260282D01*
X184822932Y-100426321D01*
X184368315Y-100590906D01*
X184012043Y-100703023D01*
X183498613Y-100861469D01*
X182899806Y-101059962D01*
X182297184Y-101270851D01*
X181861560Y-101432042D01*
X181314703Y-101630701D01*
X180703812Y-101835971D01*
X180110917Y-102021066D01*
X179699857Y-102137901D01*
X179234681Y-102273678D01*
X178665342Y-102458348D01*
X178053688Y-102670862D01*
X177461565Y-102890168D01*
X177267942Y-102965600D01*
X176693001Y-103183668D01*
X176072075Y-103403486D01*
X175468618Y-103603537D01*
X174946084Y-103762306D01*
X174798208Y-103803040D01*
X174383841Y-103920629D01*
X174037712Y-104033185D01*
X173794755Y-104128327D01*
X173689904Y-104193676D01*
X173688834Y-104196171D01*
X173728004Y-104329887D01*
X173882067Y-104542069D01*
X174122022Y-104802807D01*
X174418864Y-105082195D01*
X174743590Y-105350323D01*
X174960564Y-105507589D01*
X175242953Y-105720295D01*
X175614131Y-106029535D01*
X176037812Y-106402208D01*
X176477705Y-106805208D01*
X176897521Y-107205433D01*
X177260973Y-107569779D01*
X177481627Y-107807354D01*
X177642442Y-108011193D01*
X177690623Y-108159134D01*
X177646896Y-108316387D01*
X177644837Y-108320930D01*
X177565702Y-108447986D01*
X177436143Y-108566622D01*
X177233502Y-108687816D01*
X176935123Y-108822543D01*
X176518348Y-108981782D01*
X175960520Y-109176507D01*
X175691708Y-109267165D01*
X175127393Y-109463065D01*
X174514197Y-109687154D01*
X173924819Y-109912258D01*
X173431958Y-110111200D01*
X173417318Y-110117368D01*
X172403927Y-110545122D01*
X172582255Y-110795560D01*
X172739669Y-111054402D01*
X172940391Y-111438984D01*
X173165052Y-111906164D01*
X173394281Y-112412797D01*
X173608708Y-112915738D01*
X173788964Y-113371842D01*
X173915679Y-113737966D01*
X173938186Y-113815744D01*
X174121535Y-114600580D01*
X174272094Y-115465318D01*
X174387468Y-116373462D01*
X174465266Y-117288516D01*
X174503093Y-118173983D01*
X174498557Y-118993366D01*
X174449266Y-119710169D01*
X174360450Y-120255815D01*
X174294022Y-120553626D01*
X174250717Y-120770296D01*
X174239917Y-120858601D01*
X174322056Y-120829790D01*
X174531718Y-120738300D01*
X174834142Y-120599643D01*
X175087117Y-120480589D01*
X176068115Y-120053485D01*
X176962764Y-119743846D01*
X177762168Y-119553326D01*
X178457433Y-119483578D01*
X179039667Y-119536254D01*
X179429645Y-119673581D01*
X179619356Y-119804506D01*
X179862439Y-120013740D01*
X180015106Y-120162899D01*
X180202031Y-120364456D01*
X180309410Y-120527027D01*
X180358933Y-120712633D01*
X180372294Y-120983291D01*
X180372124Y-121183620D01*
X180351852Y-121571488D01*
X180285269Y-121927733D01*
X180157442Y-122289910D01*
X179953435Y-122695570D01*
X179658315Y-123182269D01*
X179451573Y-123498368D01*
X179109818Y-123977099D01*
X178690876Y-124509535D01*
X178223806Y-125063435D01*
X177737662Y-125606559D01*
X177261501Y-126106666D01*
X176824378Y-126531513D01*
X176455350Y-126848861D01*
X176382871Y-126903466D01*
X176027090Y-127188306D01*
X175669243Y-127517064D01*
X175384567Y-127820439D01*
X175375610Y-127831255D01*
X175067445Y-128190895D01*
X174682649Y-128617179D01*
X174248258Y-129082366D01*
X173791309Y-129558719D01*
X173338839Y-130018498D01*
X172917887Y-130433963D01*
X172555487Y-130777376D01*
X172278679Y-131020996D01*
X172224380Y-131064326D01*
X171893827Y-131325416D01*
X171503984Y-131641810D01*
X171131800Y-131950954D01*
X171083580Y-131991708D01*
X170714359Y-132288132D01*
X170270532Y-132620368D01*
X169830984Y-132929932D01*
X169701985Y-133016051D01*
X169291637Y-133286390D01*
X168804802Y-133608818D01*
X168314489Y-133934916D01*
X168035673Y-134121115D01*
X167471722Y-134493661D01*
X167016018Y-134781511D01*
X166631136Y-135005943D01*
X166279649Y-135188234D01*
X165924130Y-135349662D01*
X165738864Y-135426879D01*
X165211652Y-135622489D01*
X164775439Y-135745204D01*
X164458325Y-135787614D01*
X164387801Y-135783185D01*
X163886734Y-135707521D01*
X163433157Y-135628981D01*
X163064143Y-135554745D01*
X162816767Y-135491993D01*
X162746832Y-135465419D01*
X162613250Y-135343501D01*
X162445326Y-135123078D01*
X162355472Y-134980754D01*
X162118910Y-134577092D01*
X161290719Y-134577092D01*
X160484867Y-134536616D01*
X159795443Y-134404259D01*
X159175314Y-134163628D01*
X158577346Y-133798330D01*
X158195150Y-133500450D01*
X157647771Y-133043070D01*
X157459984Y-133281802D01*
X157329312Y-133473693D01*
X157267283Y-133615091D01*
X157266698Y-133620976D01*
X157259347Y-133757420D01*
X157245477Y-134016461D01*
X157228934Y-134326232D01*
X157200272Y-134715165D01*
X157152742Y-134954454D01*
X157068182Y-135074595D01*
X156928431Y-135106087D01*
X156774364Y-135089533D01*
X156520747Y-135088919D01*
X156321580Y-135212261D01*
X156274725Y-135259748D01*
X156013653Y-135442221D01*
X155752164Y-135449608D01*
X155511567Y-135282203D01*
X155483904Y-135248851D01*
X155347898Y-135104673D01*
X155261896Y-135102833D01*
X155229671Y-135144249D01*
X155011482Y-135344056D01*
X154679756Y-135406850D01*
X154455694Y-135383285D01*
X154081639Y-135234378D01*
X153824292Y-134949498D01*
X153710626Y-134644645D01*
X153653717Y-134465700D01*
X153601047Y-134396950D01*
X153513698Y-134457639D01*
X153353159Y-134611713D01*
X153258289Y-134712198D01*
X152986033Y-134938503D01*
X152727583Y-135027142D01*
X152514183Y-134972900D01*
X152411689Y-134853510D01*
X152344829Y-134664686D01*
X152278893Y-134378843D01*
X152250896Y-134212867D01*
X152183191Y-133746159D01*
X151666463Y-134171686D01*
X151371710Y-134400334D01*
X151163841Y-134520686D01*
X151003126Y-134552586D01*
X150926605Y-134541211D01*
X150737471Y-134405653D01*
X150606045Y-134127338D01*
X150540916Y-133736824D01*
X150550678Y-133264672D01*
X150555357Y-133220690D01*
X150612273Y-132717616D01*
X149857836Y-132757214D01*
X149321340Y-132760249D01*
X148953106Y-132704364D01*
X148753939Y-132589755D01*
X148715482Y-132479774D01*
X148667308Y-132438983D01*
X148511522Y-132408765D01*
X148231257Y-132388025D01*
X147809644Y-132375672D01*
X147229816Y-132370613D01*
X147026652Y-132370354D01*
X146398154Y-132367735D01*
X145912690Y-132357845D01*
X145533204Y-132337634D01*
X145222637Y-132304053D01*
X144943934Y-132254052D01*
X144660035Y-132184581D01*
X144612449Y-132171673D01*
X144258973Y-132073070D01*
X143962095Y-131987019D01*
X143773237Y-131928521D01*
X143746556Y-131919060D01*
X143646570Y-131925725D01*
X143580906Y-132061773D01*
X143548659Y-132223810D01*
X143421453Y-132589626D01*
X143198480Y-132821606D01*
X142911985Y-132908063D01*
X142594212Y-132837309D01*
X142341086Y-132661481D01*
X142205849Y-132560123D01*
X142087858Y-132550049D01*
X141965801Y-132649499D01*
X141818369Y-132876715D01*
X141624252Y-133249938D01*
X141602644Y-133293581D01*
X141445421Y-133594331D01*
X141324263Y-133764684D01*
X141205194Y-133840209D01*
X141064932Y-133856524D01*
X140790472Y-133767381D01*
X140509317Y-133502893D01*
X140289769Y-133179666D01*
X140230901Y-133117513D01*
X140155604Y-133143895D01*
X140041121Y-133280054D01*
X139864692Y-133547228D01*
X139820158Y-133617955D01*
X139618521Y-133925587D01*
X139469239Y-134106798D01*
X139338338Y-134193276D01*
X139191840Y-134216708D01*
X139178055Y-134216808D01*
X138979794Y-134177500D01*
X138788730Y-134043766D01*
X138580784Y-133791891D01*
X138331883Y-133398161D01*
X138311454Y-133363215D01*
X138102896Y-133005013D01*
X137878703Y-133511953D01*
X137637838Y-133978787D01*
X137400259Y-134269397D01*
X137155709Y-134387191D01*
X136893935Y-134335577D01*
X136604680Y-134117963D01*
X136473470Y-133978949D01*
X136278792Y-133739118D01*
X136145418Y-133539110D01*
X136105531Y-133438524D01*
X136090667Y-133346215D01*
X136025293Y-133332939D01*
X135878238Y-133407994D01*
X135618330Y-133580680D01*
X135610141Y-133586311D01*
X135222336Y-133799935D01*
X134915385Y-133852922D01*
X134690746Y-133746335D01*
X134549878Y-133481238D01*
X134494238Y-133058696D01*
X134499537Y-132775947D01*
X134510408Y-132465450D01*
X134505567Y-132240252D01*
X134486131Y-132145734D01*
X134484006Y-132145177D01*
X134380233Y-132160578D01*
X134136407Y-132202451D01*
X133789575Y-132264295D01*
X133400211Y-132335297D01*
X132353551Y-132468417D01*
X131323877Y-132485382D01*
X130345028Y-132389168D01*
X129450844Y-132182754D01*
X128797961Y-131930231D01*
X128380816Y-131731349D01*
X128232378Y-132202248D01*
X128045785Y-132655074D01*
X127786391Y-133103303D01*
X127493378Y-133486648D01*
X127249219Y-133714935D01*
X126973665Y-133850015D01*
X126607693Y-133896818D01*
X126528651Y-133897141D01*
X125947071Y-133844622D01*
X125428738Y-133684950D01*
X124918104Y-133396984D01*
X124607363Y-133165872D01*
X124255281Y-132897696D01*
X123887104Y-132637637D01*
X123573607Y-132435362D01*
X123529936Y-132409776D01*
X123297882Y-132251022D01*
X122960503Y-131985180D01*
X122540187Y-131632204D01*
X122059323Y-131212050D01*
X121540301Y-130744673D01*
X121005509Y-130250028D01*
X120477335Y-129748070D01*
X119978169Y-129258755D01*
X119847730Y-129127820D01*
X118970897Y-128240377D01*
X118210044Y-127465164D01*
X117552387Y-126788433D01*
X116985141Y-126196432D01*
X116495522Y-125675411D01*
X116070748Y-125211622D01*
X115698033Y-124791313D01*
X115364594Y-124400734D01*
X115057647Y-124026137D01*
X114795007Y-123693267D01*
X114262734Y-123005328D01*
X113830890Y-122435902D01*
X113488993Y-121961553D01*
X113226559Y-121558843D01*
X113033105Y-121204338D01*
X112898147Y-120874601D01*
X112811203Y-120546195D01*
X112761790Y-120195686D01*
X112739423Y-119799635D01*
X112733621Y-119334609D01*
X112733635Y-119084893D01*
X112736158Y-118588903D01*
X112746772Y-118230033D01*
X112772192Y-117965263D01*
X112819136Y-117751577D01*
X112894322Y-117545956D01*
X113004466Y-117305382D01*
X113014924Y-117283475D01*
X113399434Y-116644782D01*
X113866487Y-116161936D01*
X114412057Y-115838460D01*
X114806717Y-115715365D01*
X114997866Y-115706935D01*
X115322620Y-115726419D01*
X115737262Y-115769989D01*
X116198076Y-115833814D01*
X116247852Y-115841613D01*
X117196876Y-116040447D01*
X118022099Y-116323644D01*
X118767067Y-116708880D01*
X119313251Y-117086056D01*
X119769552Y-117435766D01*
X119883028Y-116526464D01*
X119958277Y-116013642D01*
X120061586Y-115426436D01*
X120174918Y-114864608D01*
X120218108Y-114673199D01*
X120344815Y-114187083D01*
X120520158Y-113588306D01*
X120728887Y-112922730D01*
X120955754Y-112236216D01*
X121185509Y-111574627D01*
X121402904Y-110983823D01*
X121592689Y-110509667D01*
X121634089Y-110414607D01*
X121828491Y-110007940D01*
X122079762Y-109524832D01*
X122362457Y-109010188D01*
X122651132Y-108508918D01*
X122920340Y-108065928D01*
X123144636Y-107726127D01*
X123201795Y-107647805D01*
X123414148Y-107387466D01*
X123734604Y-107021381D01*
X124143498Y-106570794D01*
X124621167Y-106056948D01*
X125147943Y-105501086D01*
X125704163Y-104924451D01*
X126048642Y-104572466D01*
X126408305Y-104197644D01*
X126674304Y-103888300D01*
X126885895Y-103588327D01*
X127082335Y-103241620D01*
X127302881Y-102792072D01*
X127320529Y-102754682D01*
X127862133Y-101538887D01*
X128328637Y-100354514D01*
X128711384Y-99227554D01*
X129001718Y-98183996D01*
X129190982Y-97249831D01*
X129219155Y-97054333D01*
X129222043Y-96618169D01*
X129094910Y-96223388D01*
X128820659Y-95823874D01*
X128721265Y-95711489D01*
X128529666Y-95471388D01*
X128277367Y-95110292D01*
X127987817Y-94666487D01*
X127684467Y-94178258D01*
X127390764Y-93683891D01*
X127130157Y-93221670D01*
X126926097Y-92829882D01*
X126835514Y-92632618D01*
X126682494Y-92278937D01*
X126483067Y-91833101D01*
X126268857Y-91365318D01*
X126153253Y-91117872D01*
X125788646Y-90212492D01*
X125546301Y-89288096D01*
X125423478Y-88316849D01*
X125417440Y-87270918D01*
X125525446Y-86122469D01*
X125608224Y-85578510D01*
X125721066Y-85007978D01*
X125884325Y-84321607D01*
X126086594Y-83557137D01*
X126316466Y-82752313D01*
X126562533Y-81944878D01*
X126813389Y-81172574D01*
X127057627Y-80473144D01*
X127283840Y-79884331D01*
X127432106Y-79543758D01*
X127509860Y-79339958D01*
X127618173Y-79004571D01*
X127743857Y-78580761D01*
X127873722Y-78111690D01*
X127900007Y-78012553D01*
X128087011Y-77230191D01*
X128197552Y-76567904D01*
X128231857Y-75982766D01*
X128190158Y-75431854D01*
X128072683Y-74872240D01*
X127919475Y-74375302D01*
X127778837Y-73948205D01*
X127693041Y-73627272D01*
X127652220Y-73350547D01*
X127646512Y-73056072D01*
X127661360Y-72754026D01*
X127748092Y-72150551D01*
X127929113Y-71444541D01*
X128188269Y-70675778D01*
X128509407Y-69884040D01*
X128876372Y-69109109D01*
X129273013Y-68390764D01*
X129683174Y-67768787D01*
X129688849Y-67761069D01*
X129817844Y-67568443D01*
X129876380Y-67445133D01*
X129874606Y-67428200D01*
X129776457Y-67395429D01*
X129545750Y-67338517D01*
X129226675Y-67268143D01*
X129122425Y-67246433D01*
X127684258Y-66866632D01*
X126222641Y-66317127D01*
X124747118Y-65605310D01*
X123267237Y-64738573D01*
X121792542Y-63724304D01*
X120332580Y-62569897D01*
X118896896Y-61282742D01*
X117495037Y-59870229D01*
X116136548Y-58339750D01*
X114830974Y-56698696D01*
X113974414Y-55517855D01*
X113250973Y-54430963D01*
X112530001Y-53251561D01*
X111828824Y-52013518D01*
X111164768Y-50750704D01*
X110555160Y-49496988D01*
X110017325Y-48286238D01*
X109568589Y-47152323D01*
X109308857Y-46397659D01*
X109200562Y-46098959D01*
X109089612Y-45857264D01*
X109089259Y-45856710D01*
X109627404Y-45856710D01*
X109973819Y-46825234D01*
X110726100Y-48741030D01*
X111596251Y-50622685D01*
X112574272Y-52459111D01*
X113650164Y-54239217D01*
X114813926Y-55951916D01*
X116055559Y-57586116D01*
X117365063Y-59130730D01*
X118732438Y-60574668D01*
X120147686Y-61906840D01*
X121600804Y-63116158D01*
X123081795Y-64191531D01*
X124580659Y-65121871D01*
X126087394Y-65896088D01*
X127592003Y-66503092D01*
X127773971Y-66564845D01*
X128561725Y-66812377D01*
X129198323Y-66980268D01*
X129693324Y-67070256D01*
X130056286Y-67084077D01*
X130296766Y-67023466D01*
X130297292Y-67023186D01*
X130516079Y-66940756D01*
X130616208Y-66983361D01*
X130596835Y-67139762D01*
X130457120Y-67398718D01*
X130338149Y-67568136D01*
X129782073Y-68418440D01*
X129261312Y-69426166D01*
X128785605Y-70570422D01*
X128387984Y-71752623D01*
X128269833Y-72355229D01*
X128244515Y-73018249D01*
X128310879Y-73663253D01*
X128422384Y-74094467D01*
X128563636Y-74555516D01*
X128650058Y-75003785D01*
X128684438Y-75484276D01*
X128669566Y-76041992D01*
X128608232Y-76721934D01*
X128593373Y-76853019D01*
X128478012Y-77626556D01*
X128307515Y-78479506D01*
X128097526Y-79347331D01*
X127863686Y-80165497D01*
X127621637Y-80869465D01*
X127616997Y-80881479D01*
X127520291Y-81150338D01*
X127385933Y-81549585D01*
X127227387Y-82036871D01*
X127058119Y-82569847D01*
X126891592Y-83106162D01*
X126741273Y-83603469D01*
X126630887Y-83982986D01*
X126577609Y-84205173D01*
X126563772Y-84338220D01*
X126568754Y-84351034D01*
X126667046Y-84355074D01*
X126905943Y-84344825D01*
X127246651Y-84322367D01*
X127548794Y-84298498D01*
X128315116Y-84255659D01*
X128977417Y-84272653D01*
X129603572Y-84355454D01*
X130261462Y-84510032D01*
X130400385Y-84549380D01*
X131447724Y-84924696D01*
X132350094Y-85401109D01*
X132800409Y-85718994D01*
X133273139Y-86196614D01*
X133667241Y-86808374D01*
X133976700Y-87523552D01*
X134195498Y-88311428D01*
X134317618Y-89141279D01*
X134337043Y-89982386D01*
X134247755Y-90804027D01*
X134043737Y-91575481D01*
X133980133Y-91742139D01*
X133739561Y-92247660D01*
X133426200Y-92782145D01*
X133074720Y-93294605D01*
X132719792Y-93734047D01*
X132430439Y-94021298D01*
X132002734Y-94352994D01*
X131497935Y-94700218D01*
X130975377Y-95025251D01*
X130494399Y-95290379D01*
X130259998Y-95400924D01*
X130008190Y-95519481D01*
X129841313Y-95617658D01*
X129800567Y-95660693D01*
X129873149Y-95785895D01*
X130067973Y-95972077D01*
X130350657Y-96191227D01*
X130686818Y-96415333D01*
X130836382Y-96504599D01*
X131100565Y-96657004D01*
X131480197Y-96876603D01*
X131934988Y-97140061D01*
X132424647Y-97424043D01*
X132727872Y-97600067D01*
X133225343Y-97886264D01*
X133719952Y-98166041D01*
X134169356Y-98415775D01*
X134531215Y-98611848D01*
X134688344Y-98693731D01*
X135087332Y-98915495D01*
X135510867Y-99180785D01*
X135814231Y-99393350D01*
X136191070Y-99643110D01*
X136663357Y-99904848D01*
X137178804Y-100154359D01*
X137685121Y-100367432D01*
X138130020Y-100519862D01*
X138369388Y-100576289D01*
X138792372Y-100681828D01*
X139088214Y-100828833D01*
X139243096Y-101003226D01*
X139243199Y-101190928D01*
X139121222Y-101342320D01*
X138908594Y-101412342D01*
X138572605Y-101393798D01*
X138140461Y-101297017D01*
X137639369Y-101132327D01*
X137096536Y-100910056D01*
X136539169Y-100640533D01*
X135994475Y-100334085D01*
X135489662Y-100001043D01*
X135384964Y-99923956D01*
X135021342Y-99669666D01*
X134578119Y-99387508D01*
X134137318Y-99129163D01*
X134033900Y-99072633D01*
X132086657Y-97956264D01*
X130791347Y-97129536D01*
X129845602Y-96501196D01*
X129820960Y-96781874D01*
X129767967Y-97190303D01*
X129674427Y-97721401D01*
X129551463Y-98325264D01*
X129410198Y-98951989D01*
X129261755Y-99551672D01*
X129117257Y-100074409D01*
X129016761Y-100389977D01*
X128816214Y-100936364D01*
X128579890Y-101532297D01*
X128322193Y-102145844D01*
X128057528Y-102745071D01*
X127800299Y-103298046D01*
X127564910Y-103772836D01*
X127365766Y-104137509D01*
X127237080Y-104335313D01*
X127011202Y-104597475D01*
X126711920Y-104901581D01*
X126430710Y-105158293D01*
X126122484Y-105450977D01*
X125781468Y-105819809D01*
X125475128Y-106191275D01*
X125439853Y-106237958D01*
X125139969Y-106618147D01*
X124779630Y-107043175D01*
X124427631Y-107432402D01*
X124363361Y-107499813D01*
X124065694Y-107829647D01*
X123861036Y-108101211D01*
X123769001Y-108287765D01*
X123765815Y-108314436D01*
X123719633Y-108491333D01*
X123599560Y-108754823D01*
X123459792Y-109000934D01*
X123249010Y-109340485D01*
X123000866Y-109741770D01*
X122789250Y-110085148D01*
X122595303Y-110386544D01*
X122419408Y-110635595D01*
X122295801Y-110784192D01*
X122284635Y-110794227D01*
X122167217Y-110951894D01*
X122144538Y-111042500D01*
X122110048Y-111182422D01*
X122018341Y-111438145D01*
X121887062Y-111761619D01*
X121842626Y-111864628D01*
X121496743Y-112731770D01*
X121204963Y-113617345D01*
X120975661Y-114485850D01*
X120817210Y-115301781D01*
X120737983Y-116029635D01*
X120738666Y-116545350D01*
X120764182Y-116906370D01*
X120785996Y-117217152D01*
X120799838Y-117416804D01*
X120800801Y-117431008D01*
X120757505Y-117628152D01*
X120634198Y-117864555D01*
X120606234Y-117904308D01*
X120398681Y-118185039D01*
X120706438Y-118502563D01*
X120903434Y-118679992D01*
X121207903Y-118923954D01*
X121577211Y-119201385D01*
X121943425Y-119461795D01*
X122423460Y-119803207D01*
X122769042Y-120078914D01*
X123001095Y-120314355D01*
X123140548Y-120534973D01*
X123208327Y-120766209D01*
X123225389Y-121020310D01*
X123197066Y-121294327D01*
X123127443Y-121407074D01*
X123039540Y-121353395D01*
X122956380Y-121128133D01*
X122946463Y-121082792D01*
X122902454Y-120910108D01*
X122833323Y-120764073D01*
X122714702Y-120622274D01*
X122522225Y-120462295D01*
X122231525Y-120261724D01*
X121818233Y-119998145D01*
X121659370Y-119898865D01*
X121038849Y-119483571D01*
X120460125Y-119030259D01*
X119862214Y-118490015D01*
X119667588Y-118301326D01*
X119074542Y-117746021D01*
X118546222Y-117319455D01*
X118046089Y-117001384D01*
X117537602Y-116771563D01*
X116984223Y-116609748D01*
X116429588Y-116507302D01*
X116053626Y-116454439D01*
X115751169Y-116417735D01*
X115561668Y-116401645D01*
X115517780Y-116404322D01*
X115557002Y-116482161D01*
X115686161Y-116665343D01*
X115880873Y-116919994D01*
X115968109Y-117029864D01*
X116206050Y-117351712D01*
X116472063Y-117752361D01*
X116747989Y-118199478D01*
X117015670Y-118660732D01*
X117256947Y-119103790D01*
X117453662Y-119496319D01*
X117587657Y-119805989D01*
X117640772Y-120000466D01*
X117640992Y-120008520D01*
X117585692Y-120216941D01*
X117450472Y-120290863D01*
X117281351Y-120209558D01*
X117255463Y-120182187D01*
X117168433Y-120049782D01*
X117019626Y-119789495D01*
X116827419Y-119434772D01*
X116610190Y-119019060D01*
X116528793Y-118859716D01*
X116261909Y-118362615D01*
X115963137Y-117852198D01*
X115667304Y-117385477D01*
X115409240Y-117019465D01*
X115387260Y-116991117D01*
X114840155Y-116293441D01*
X114506708Y-116464444D01*
X114068846Y-116768497D01*
X113697968Y-117208682D01*
X113646256Y-117287894D01*
X113573632Y-117419782D01*
X113564424Y-117534229D01*
X113633071Y-117680435D01*
X113794011Y-117907599D01*
X113850094Y-117982453D01*
X114006835Y-118215482D01*
X114211257Y-118555049D01*
X114448814Y-118973127D01*
X114704958Y-119441692D01*
X114965141Y-119932718D01*
X115214816Y-120418179D01*
X115439435Y-120870050D01*
X115624451Y-121260306D01*
X115755317Y-121560920D01*
X115817484Y-121743869D01*
X115819954Y-121777342D01*
X115755357Y-121923006D01*
X115644830Y-121917405D01*
X115486061Y-121757189D01*
X115276737Y-121439004D01*
X115014546Y-120959500D01*
X114697175Y-120315325D01*
X114459623Y-119805460D01*
X114202545Y-119266796D01*
X113957630Y-118795773D01*
X113738178Y-118414968D01*
X113557492Y-118146955D01*
X113428871Y-118014311D01*
X113398269Y-118004042D01*
X113354275Y-118087307D01*
X113329263Y-118312073D01*
X113322370Y-118640795D01*
X113332730Y-119035929D01*
X113359479Y-119459930D01*
X113401750Y-119875254D01*
X113448629Y-120189989D01*
X113510755Y-120492545D01*
X113590720Y-120759008D01*
X113705580Y-121018579D01*
X113872392Y-121300453D01*
X114108210Y-121633828D01*
X114430092Y-122047903D01*
X114802466Y-122507588D01*
X115101338Y-122876869D01*
X115456113Y-123321076D01*
X115812800Y-123772391D01*
X116006679Y-124020190D01*
X116247737Y-124308781D01*
X116601420Y-124703187D01*
X117049727Y-125185171D01*
X117574660Y-125736497D01*
X118158217Y-126338929D01*
X118782400Y-126974231D01*
X119429208Y-127624167D01*
X120080643Y-128270501D01*
X120718704Y-128894998D01*
X121325391Y-129479420D01*
X121882705Y-130005533D01*
X122236501Y-130331803D01*
X122681915Y-130726756D01*
X123152641Y-131125877D01*
X123603359Y-131491896D01*
X123988750Y-131787542D01*
X124126099Y-131885832D01*
X124506207Y-132150269D01*
X124884305Y-132415360D01*
X125201706Y-132639880D01*
X125318093Y-132723169D01*
X125719581Y-132959832D01*
X126131935Y-133113520D01*
X126510712Y-133173713D01*
X126811468Y-133129888D01*
X126882078Y-133093427D01*
X127139216Y-132835273D01*
X127382989Y-132416698D01*
X127606753Y-131857295D01*
X127803867Y-131176659D01*
X127967688Y-130394384D01*
X128091574Y-129530066D01*
X128092342Y-129523265D01*
X128159819Y-128983920D01*
X128225799Y-128602976D01*
X128297172Y-128358887D01*
X128380827Y-128230109D01*
X128483654Y-128195095D01*
X128515785Y-128198958D01*
X128708063Y-128307555D01*
X128829660Y-128549844D01*
X128880722Y-128932108D01*
X128861394Y-129460631D01*
X128771821Y-130141694D01*
X128612150Y-130981582D01*
X128583330Y-131116265D01*
X128559313Y-131273346D01*
X128595574Y-131376934D01*
X128727111Y-131464005D01*
X128988920Y-131571538D01*
X129028636Y-131586762D01*
X130072900Y-131892629D01*
X131157246Y-132025439D01*
X132285664Y-131985374D01*
X133403403Y-131787041D01*
X133846548Y-131679141D01*
X134133541Y-131600681D01*
X134282686Y-131536188D01*
X134312286Y-131470191D01*
X134240643Y-131387218D01*
X134086061Y-131271798D01*
X134046620Y-131243327D01*
X133748207Y-130961689D01*
X133471028Y-130553529D01*
X133348896Y-130324949D01*
X133160292Y-129991378D01*
X132919563Y-129648394D01*
X132601178Y-129263597D01*
X132179605Y-128804586D01*
X132017754Y-128635717D01*
X131644787Y-128238100D01*
X131291826Y-127841028D01*
X130990165Y-127481176D01*
X130771102Y-127195218D01*
X130708296Y-127101205D01*
X130543057Y-126836885D01*
X130309112Y-126467205D01*
X130035621Y-126038045D01*
X129751745Y-125595286D01*
X129706482Y-125524964D01*
X129396478Y-125016107D01*
X129074667Y-124441634D01*
X128780160Y-123873881D01*
X128562018Y-123408297D01*
X128341250Y-122866455D01*
X128093567Y-122204611D01*
X127829236Y-121455196D01*
X127558523Y-120650637D01*
X127291694Y-119823364D01*
X127039018Y-119005805D01*
X126810759Y-118230389D01*
X126617184Y-117529545D01*
X126468561Y-116935702D01*
X126382481Y-116523847D01*
X126307282Y-115957670D01*
X126295471Y-115488071D01*
X126344597Y-115134452D01*
X126452209Y-114916214D01*
X126593725Y-114851560D01*
X126659775Y-114910367D01*
X126709517Y-115100228D01*
X126747224Y-115441299D01*
X126760815Y-115639680D01*
X126786579Y-115940314D01*
X126831653Y-116244718D01*
X126903772Y-116584014D01*
X127010673Y-116989324D01*
X127160093Y-117491771D01*
X127359767Y-118122477D01*
X127438092Y-118364326D01*
X127813951Y-119503038D01*
X128154611Y-120492619D01*
X128471240Y-121358007D01*
X128775011Y-122124142D01*
X129077091Y-122815964D01*
X129388652Y-123458411D01*
X129720862Y-124076425D01*
X130084892Y-124694944D01*
X130491911Y-125338908D01*
X130711291Y-125672594D01*
X131194422Y-126375486D01*
X131646991Y-126975532D01*
X132116553Y-127532206D01*
X132650663Y-128104987D01*
X132681769Y-128137021D01*
X133143788Y-128623570D01*
X133493567Y-129021392D01*
X133754731Y-129360046D01*
X133950905Y-129669094D01*
X134038227Y-129834267D01*
X134220352Y-130175576D01*
X134383224Y-130399034D01*
X134571016Y-130555395D01*
X134757211Y-130660397D01*
X135072457Y-130836481D01*
X135262700Y-131000039D01*
X135372041Y-131200636D01*
X135429908Y-131416446D01*
X135454763Y-131649427D01*
X135385249Y-131797703D01*
X135306052Y-131866800D01*
X135183837Y-132011919D01*
X135104351Y-132252393D01*
X135057734Y-132573014D01*
X135038630Y-132867452D01*
X135048131Y-133068987D01*
X135079402Y-133133651D01*
X135191994Y-133087182D01*
X135406501Y-132968189D01*
X135651003Y-132818403D01*
X136066914Y-132595671D01*
X136386293Y-132516831D01*
X136605097Y-132581339D01*
X136719283Y-132788655D01*
X136736028Y-132963851D01*
X136793219Y-133217208D01*
X136901623Y-133410573D01*
X137067219Y-133615075D01*
X137464567Y-132812573D01*
X137651345Y-132443961D01*
X137786926Y-132209119D01*
X137895778Y-132078332D01*
X138002368Y-132021891D01*
X138125432Y-132010070D01*
X138270798Y-132028014D01*
X138391432Y-132104039D01*
X138519805Y-132271442D01*
X138688387Y-132563515D01*
X138717573Y-132617223D01*
X138881000Y-132913850D01*
X139013808Y-133145161D01*
X139091210Y-133268194D01*
X139097364Y-133275544D01*
X139163829Y-133227717D01*
X139298829Y-133056666D01*
X139478597Y-132793868D01*
X139573340Y-132645133D01*
X139875823Y-132213222D01*
X140137887Y-131955743D01*
X140362395Y-131872268D01*
X140552212Y-131962364D01*
X140710201Y-132225602D01*
X140789698Y-132462136D01*
X140883621Y-132741207D01*
X140968316Y-132847324D01*
X141056840Y-132786292D01*
X141140427Y-132618049D01*
X141264372Y-132404365D01*
X141460356Y-132147166D01*
X141562346Y-132032588D01*
X141874507Y-131777366D01*
X142166262Y-131698945D01*
X142445385Y-131796202D01*
X142559964Y-131888456D01*
X142685779Y-131992324D01*
X142768268Y-132001927D01*
X142822556Y-131894121D01*
X142863773Y-131645762D01*
X142892576Y-131379574D01*
X142932985Y-131035409D01*
X142989491Y-130622168D01*
X143031796Y-130343758D01*
X143081068Y-129955631D01*
X143131106Y-129410811D01*
X143180579Y-128732732D01*
X143228161Y-127944831D01*
X143272521Y-127070544D01*
X143312332Y-126133307D01*
X143346265Y-125156555D01*
X143366258Y-124444113D01*
X143388136Y-123699182D01*
X143414210Y-123096799D01*
X143447739Y-122599373D01*
X143491984Y-122169311D01*
X143550205Y-121769022D01*
X143625665Y-121360914D01*
X143639709Y-121291631D01*
X143898218Y-119966938D01*
X144099814Y-118786397D01*
X144246811Y-117724034D01*
X144341522Y-116753872D01*
X144386262Y-115849938D01*
X144383344Y-114986255D01*
X144335082Y-114136849D01*
X144305670Y-113815744D01*
X144172921Y-112583844D01*
X144036927Y-111493206D01*
X143898830Y-110550340D01*
X143759776Y-109761760D01*
X143620909Y-109133977D01*
X143483372Y-108673504D01*
X143352962Y-108393845D01*
X143242253Y-108203075D01*
X143243858Y-108116111D01*
X143349330Y-108096241D01*
X143536174Y-108166322D01*
X143769650Y-108347737D01*
X144003884Y-108597245D01*
X144193001Y-108871602D01*
X144214331Y-108911615D01*
X144411285Y-109396203D01*
X144597860Y-110055782D01*
X144772865Y-110885438D01*
X144934954Y-111879219D01*
X145124914Y-113433997D01*
X145223604Y-114879764D01*
X145228939Y-116264021D01*
X145138835Y-117634274D01*
X144951208Y-119038026D01*
X144663972Y-120522779D01*
X144529835Y-121111489D01*
X144447617Y-121484951D01*
X144382819Y-121848596D01*
X144331758Y-122238098D01*
X144290754Y-122689132D01*
X144256125Y-123237373D01*
X144224188Y-123918497D01*
X144213795Y-124173900D01*
X144153602Y-125570288D01*
X144088398Y-126853362D01*
X144019065Y-128009489D01*
X143946487Y-129025038D01*
X143871548Y-129886376D01*
X143802649Y-130519795D01*
X143749410Y-130987060D01*
X143725445Y-131304396D01*
X143730334Y-131499552D01*
X143763659Y-131600279D01*
X143786037Y-131621102D01*
X144091240Y-131749233D01*
X144551948Y-131855286D01*
X145144524Y-131936144D01*
X145845330Y-131988688D01*
X146630729Y-132009797D01*
X146733900Y-132010070D01*
X147403584Y-132006374D01*
X147921507Y-131991678D01*
X148315963Y-131960571D01*
X148615245Y-131907643D01*
X148847647Y-131827482D01*
X149041464Y-131714677D01*
X149224990Y-131563817D01*
X149265877Y-131525847D01*
X149625786Y-131186837D01*
X149402245Y-130517603D01*
X149287017Y-130104171D01*
X149180479Y-129603508D01*
X149101704Y-129108228D01*
X149088222Y-128992694D01*
X149056908Y-128554734D01*
X149037393Y-127972480D01*
X149029019Y-127281350D01*
X149031126Y-126516760D01*
X149043053Y-125714127D01*
X149064142Y-124908869D01*
X149093732Y-124136402D01*
X149131164Y-123432142D01*
X149175778Y-122831508D01*
X149209013Y-122507588D01*
X149274560Y-121939365D01*
X149344055Y-121305583D01*
X149407648Y-120697454D01*
X149442422Y-120345886D01*
X149574376Y-119030321D01*
X149705995Y-117865161D01*
X149842533Y-116820759D01*
X149989245Y-115867463D01*
X150151386Y-114975627D01*
X150334211Y-114115599D01*
X150542974Y-113257731D01*
X150782931Y-112372374D01*
X150969440Y-111729932D01*
X151206161Y-110972710D01*
X151435868Y-110332159D01*
X151682418Y-109747473D01*
X151969668Y-109157847D01*
X152006365Y-109087021D01*
X152269539Y-108577099D01*
X152549339Y-108027181D01*
X152811873Y-107504296D01*
X153018514Y-107085224D01*
X153255363Y-106626849D01*
X153438853Y-106336962D01*
X153570927Y-106212609D01*
X153596492Y-106207032D01*
X153723065Y-106223128D01*
X153799456Y-106286083D01*
X153820976Y-106411150D01*
X153782937Y-106613586D01*
X153680649Y-106908643D01*
X153509422Y-107311578D01*
X153264569Y-107837644D01*
X152941400Y-108502097D01*
X152808128Y-108771772D01*
X152409221Y-109611594D01*
X152066692Y-110416364D01*
X151768594Y-111223390D01*
X151502980Y-112069978D01*
X151257903Y-112993435D01*
X151021417Y-114031067D01*
X150840860Y-114915026D01*
X150728131Y-115501153D01*
X150635008Y-116020256D01*
X150556310Y-116510856D01*
X150486857Y-117011473D01*
X150421469Y-117560626D01*
X150354968Y-118196837D01*
X150282173Y-118958625D01*
X150249864Y-119310070D01*
X150202867Y-119807213D01*
X150142944Y-120414682D01*
X150077003Y-121063759D01*
X150011954Y-121685724D01*
X149996304Y-121832056D01*
X149945688Y-122359819D01*
X149907695Y-122899358D01*
X149881322Y-123482749D01*
X149865561Y-124142067D01*
X149859408Y-124909387D01*
X149861858Y-125816783D01*
X149863651Y-126063549D01*
X149873345Y-126970296D01*
X149887885Y-127720977D01*
X149909258Y-128339646D01*
X149939453Y-128850356D01*
X149980461Y-129277162D01*
X150034268Y-129644117D01*
X150102866Y-129975274D01*
X150188242Y-130294687D01*
X150223077Y-130410169D01*
X150368915Y-130881900D01*
X150082613Y-131280568D01*
X149923394Y-131515306D01*
X149819807Y-131693044D01*
X149797123Y-131754582D01*
X149734940Y-131854588D01*
X149577928Y-132015635D01*
X149504393Y-132080952D01*
X149210850Y-132331975D01*
X149751276Y-132275575D01*
X150111221Y-132229579D01*
X150453211Y-132172249D01*
X150619822Y-132136266D01*
X150898092Y-132079654D01*
X151078140Y-132094620D01*
X151176850Y-132205929D01*
X151211107Y-132438350D01*
X151197794Y-132816648D01*
X151186626Y-132967690D01*
X151162824Y-133393492D01*
X151174570Y-133654191D01*
X151226326Y-133762119D01*
X151322552Y-133729613D01*
X151423896Y-133623746D01*
X151614370Y-133443382D01*
X151877805Y-133251097D01*
X152156326Y-133083185D01*
X152392056Y-132975941D01*
X152488981Y-132955815D01*
X152684019Y-133031444D01*
X152805798Y-133261918D01*
X152856759Y-133652617D01*
X152858723Y-133771013D01*
X152858723Y-134237770D01*
X153219266Y-133912041D01*
X153432434Y-133730258D01*
X153594026Y-133612022D01*
X153649579Y-133586311D01*
X153845967Y-133667683D01*
X154045500Y-133884765D01*
X154214122Y-134197011D01*
X154254838Y-134306927D01*
X154399861Y-134622710D01*
X154565808Y-134759578D01*
X154752804Y-134717551D01*
X154960974Y-134496652D01*
X155002374Y-134435319D01*
X155226321Y-134196302D01*
X155460380Y-134130805D01*
X155681564Y-134238109D01*
X155840709Y-134461492D01*
X155985461Y-134751212D01*
X156194175Y-134529045D01*
X156370170Y-134376575D01*
X156514843Y-134307269D01*
X156522296Y-134306879D01*
X156606582Y-134227281D01*
X156640692Y-133983284D01*
X156641701Y-133911823D01*
X156714187Y-133540719D01*
X156915257Y-133113257D01*
X157220330Y-132667900D01*
X157604823Y-132243112D01*
X157844829Y-132029240D01*
X158565282Y-131386821D01*
X159301484Y-130636389D01*
X160009878Y-129827571D01*
X160646906Y-129009993D01*
X161151922Y-128261252D01*
X161397264Y-127877543D01*
X161655507Y-127499563D01*
X161883060Y-127190338D01*
X161952095Y-127104353D01*
X162169197Y-126809817D01*
X162408043Y-126433614D01*
X162612573Y-126065389D01*
X162817754Y-125672450D01*
X163065651Y-125214584D01*
X163307338Y-124781955D01*
X163339703Y-124725383D01*
X163506104Y-124425324D01*
X163672056Y-124101952D01*
X163846666Y-123734228D01*
X164039044Y-123301117D01*
X164258296Y-122781582D01*
X164513532Y-122154586D01*
X164813859Y-121399093D01*
X165138360Y-120571063D01*
X165425246Y-119830405D01*
X165655811Y-119219716D01*
X165842001Y-118702257D01*
X165995763Y-118241292D01*
X166129044Y-117800084D01*
X166253789Y-117341896D01*
X166381946Y-116829990D01*
X166458133Y-116512577D01*
X166618854Y-115880317D01*
X166765333Y-115408663D01*
X166906391Y-115079562D01*
X167050849Y-114874961D01*
X167207530Y-114776806D01*
X167313782Y-114761489D01*
X167483941Y-114797376D01*
X167545834Y-114876416D01*
X167466415Y-114955679D01*
X167464000Y-114956642D01*
X167423948Y-115051625D01*
X167365129Y-115292727D01*
X167294276Y-115647740D01*
X167218123Y-116084454D01*
X167185553Y-116288516D01*
X167093059Y-116835602D01*
X166985281Y-117397033D01*
X166874794Y-117911302D01*
X166774174Y-118316900D01*
X166761983Y-118360147D01*
X166656598Y-118689756D01*
X166495119Y-119148091D01*
X166288906Y-119706573D01*
X166049320Y-120336626D01*
X165787721Y-121009671D01*
X165515469Y-121697131D01*
X165243925Y-122370429D01*
X164984449Y-123000986D01*
X164748401Y-123560227D01*
X164547142Y-124019572D01*
X164392031Y-124350444D01*
X164343441Y-124444113D01*
X163892979Y-125251638D01*
X163475999Y-125965769D01*
X163102569Y-126570368D01*
X162782757Y-127049299D01*
X162526634Y-127386426D01*
X162462025Y-127459316D01*
X162227337Y-127733913D01*
X161948408Y-128095073D01*
X161676014Y-128476313D01*
X161607424Y-128578220D01*
X161231396Y-129097611D01*
X160732203Y-129710374D01*
X160127020Y-130396939D01*
X159433021Y-131137739D01*
X158766716Y-131814748D01*
X158470334Y-132120111D01*
X158237184Y-132381116D01*
X158088707Y-132572144D01*
X158046345Y-132667577D01*
X158049607Y-132671529D01*
X158579039Y-133034713D01*
X158999414Y-133306042D01*
X159347542Y-133499368D01*
X159660231Y-133628544D01*
X159974292Y-133707421D01*
X160326534Y-133749852D01*
X160753767Y-133769688D01*
X160981770Y-133774964D01*
X161402813Y-133777527D01*
X161761746Y-133768820D01*
X162017784Y-133750532D01*
X162126143Y-133727527D01*
X162351146Y-133679049D01*
X162577573Y-133809986D01*
X162804470Y-134119626D01*
X162900305Y-134304106D01*
X163045241Y-134580242D01*
X163173583Y-134777786D01*
X163255958Y-134853087D01*
X163389892Y-134874851D01*
X163640090Y-134925480D01*
X163892411Y-134980645D01*
X164184869Y-135045923D01*
X164400983Y-135093004D01*
X164484613Y-135109968D01*
X164589240Y-135086609D01*
X164817113Y-135017998D01*
X165121427Y-134918326D01*
X165160145Y-134905194D01*
X166300164Y-134427921D01*
X167414911Y-133779207D01*
X167630354Y-133632242D01*
X168015650Y-133370292D01*
X168479699Y-133065417D01*
X168946636Y-132767129D01*
X169148056Y-132641727D01*
X169515756Y-132408709D01*
X169865918Y-132170408D01*
X170227752Y-131904470D01*
X170630468Y-131588540D01*
X171103279Y-131200265D01*
X171675394Y-130717290D01*
X171786024Y-130622969D01*
X172300114Y-130145903D01*
X172901452Y-129518465D01*
X173585645Y-128745378D01*
X174093479Y-128141921D01*
X174614732Y-127526332D01*
X175056919Y-127038532D01*
X175441457Y-126656796D01*
X175789763Y-126359399D01*
X176006950Y-126200978D01*
X176306677Y-125961061D01*
X176683522Y-125605083D01*
X177109979Y-125163631D01*
X177558545Y-124667291D01*
X178001714Y-124146649D01*
X178411983Y-123632292D01*
X178761848Y-123154807D01*
X178811651Y-123081999D01*
X179145546Y-122539286D01*
X179400045Y-122024887D01*
X179567470Y-121562948D01*
X179640142Y-121177617D01*
X179610385Y-120893040D01*
X179542603Y-120783099D01*
X179452896Y-120815485D01*
X179257862Y-120966234D01*
X178972920Y-121220029D01*
X178613493Y-121561551D01*
X178195000Y-121975484D01*
X177732864Y-122446507D01*
X177242504Y-122959305D01*
X176739342Y-123498557D01*
X176238799Y-124048948D01*
X176112379Y-124190422D01*
X175645037Y-124698865D01*
X175275000Y-125063135D01*
X174996668Y-125286912D01*
X174804441Y-125373878D01*
X174692718Y-125327715D01*
X174655897Y-125152105D01*
X174655886Y-125147815D01*
X174676802Y-125061150D01*
X174747162Y-124938816D01*
X174878387Y-124768429D01*
X175081894Y-124537602D01*
X175369102Y-124233948D01*
X175751431Y-123845082D01*
X176240300Y-123358618D01*
X176847127Y-122762169D01*
X176930177Y-122680893D01*
X177455232Y-122163919D01*
X177934131Y-121685967D01*
X178352754Y-121261627D01*
X178696982Y-120905492D01*
X178952695Y-120632150D01*
X179105775Y-120456193D01*
X179144050Y-120393073D01*
X178972058Y-120305181D01*
X178710289Y-120252270D01*
X178447561Y-120245790D01*
X178293278Y-120283393D01*
X178154909Y-120381447D01*
X177921299Y-120569006D01*
X177630795Y-120814720D01*
X177448084Y-120974409D01*
X177065520Y-121307180D01*
X176616772Y-121688888D01*
X176176561Y-122056232D01*
X176006950Y-122195274D01*
X175627014Y-122513580D01*
X175176802Y-122904665D01*
X174715724Y-123316277D01*
X174345506Y-123656473D01*
X173874722Y-124080543D01*
X173508844Y-124371837D01*
X173238191Y-124536581D01*
X173053081Y-124580998D01*
X172967733Y-124542366D01*
X173002769Y-124458764D01*
X173143068Y-124278068D01*
X173364875Y-124028903D01*
X173579906Y-123804708D01*
X173853057Y-123534914D01*
X174146056Y-123260898D01*
X174478878Y-122965772D01*
X174871497Y-122632652D01*
X175343889Y-122244651D01*
X175916028Y-121784884D01*
X176607889Y-121236464D01*
X176757456Y-121118539D01*
X177088921Y-120851012D01*
X177356121Y-120623093D01*
X177533789Y-120457262D01*
X177596654Y-120375996D01*
X177595397Y-120373104D01*
X177477468Y-120367699D01*
X177223548Y-120425742D01*
X176862202Y-120537391D01*
X176421997Y-120692806D01*
X175931501Y-120882143D01*
X175419279Y-121095561D01*
X175139786Y-121219125D01*
X174668200Y-121437801D01*
X174324632Y-121614738D01*
X174069914Y-121775273D01*
X173864877Y-121944744D01*
X173670351Y-122148489D01*
X173627929Y-122197123D01*
X173347388Y-122492081D01*
X173110693Y-122663316D01*
X172878912Y-122742571D01*
X172610922Y-122832850D01*
X172297481Y-122993604D01*
X172137816Y-123097091D01*
X171867828Y-123273659D01*
X171506975Y-123487040D01*
X171088716Y-123719961D01*
X170646511Y-123955150D01*
X170213819Y-124175336D01*
X169824100Y-124363245D01*
X169510815Y-124501605D01*
X169307422Y-124573144D01*
X169266651Y-124579219D01*
X169112431Y-124537745D01*
X169071489Y-124472590D01*
X169145191Y-124315850D01*
X169346005Y-124096384D01*
X169643494Y-123838809D01*
X170007218Y-123567743D01*
X170406739Y-123307802D01*
X170750664Y-123114544D01*
X171257701Y-122830434D01*
X171755310Y-122511815D01*
X172211557Y-122182812D01*
X172594513Y-121867554D01*
X172872245Y-121590167D01*
X172992874Y-121420354D01*
X173069139Y-121219744D01*
X173163514Y-120894206D01*
X173261661Y-120496011D01*
X173318741Y-120232515D01*
X173433322Y-119424241D01*
X173479304Y-118493630D01*
X173459569Y-117483697D01*
X173376996Y-116437460D01*
X173234465Y-115397934D01*
X173034857Y-114408136D01*
X172892675Y-113868999D01*
X172787798Y-113576049D01*
X172617254Y-113172396D01*
X172403454Y-112704476D01*
X172168812Y-112218724D01*
X171935741Y-111761579D01*
X171726653Y-111379474D01*
X171568088Y-111124645D01*
X171454137Y-110931749D01*
X171295762Y-110622191D01*
X171117694Y-110245647D01*
X171007562Y-109998759D01*
X170795368Y-109543415D01*
X170549883Y-109065571D01*
X170312171Y-108643704D01*
X170224184Y-108501560D01*
X169990048Y-108107728D01*
X169762171Y-107674122D01*
X169588794Y-107292699D01*
X169584884Y-107282886D01*
X169215005Y-106376896D01*
X168884466Y-105626972D01*
X168585149Y-105015404D01*
X168355581Y-104601826D01*
X168154487Y-104238615D01*
X167924558Y-103785557D01*
X167704404Y-103319847D01*
X167625705Y-103142648D01*
X167457524Y-102738790D01*
X167343280Y-102407714D01*
X167267913Y-102085628D01*
X167216360Y-101708737D01*
X167214067Y-101682337D01*
X168196100Y-101682337D01*
X168198056Y-101801821D01*
X168203068Y-101836311D01*
X168271390Y-102072858D01*
X168415515Y-102433395D01*
X168620613Y-102886232D01*
X168871853Y-103399678D01*
X169154403Y-103942043D01*
X169383332Y-104358297D01*
X169551863Y-104666118D01*
X169718854Y-104992534D01*
X169897828Y-105366718D01*
X170102308Y-105817845D01*
X170345814Y-106375088D01*
X170641871Y-107067621D01*
X170671682Y-107137881D01*
X170789082Y-107376365D01*
X170971869Y-107705372D01*
X171186342Y-108064982D01*
X171254240Y-108173696D01*
X171482203Y-108560275D01*
X171695163Y-108966122D01*
X171854109Y-109315886D01*
X171878660Y-109379751D01*
X171980707Y-109650892D01*
X172056885Y-109838372D01*
X172087693Y-109897659D01*
X172171725Y-109861502D01*
X172387464Y-109762628D01*
X172703816Y-109615434D01*
X173089685Y-109434317D01*
X173158298Y-109401973D01*
X173690273Y-109163085D01*
X174294563Y-108910545D01*
X174885255Y-108679452D01*
X175249990Y-108547400D01*
X175659628Y-108404175D01*
X176009378Y-108278196D01*
X176262564Y-108182925D01*
X176382513Y-108131825D01*
X176383244Y-108131381D01*
X176372134Y-108044556D01*
X176245515Y-107867364D01*
X176027375Y-107623415D01*
X175741704Y-107336321D01*
X175412491Y-107029692D01*
X175063724Y-106727142D01*
X174719393Y-106452280D01*
X174553957Y-106330890D01*
X174029234Y-105941005D01*
X173627573Y-105594694D01*
X173310786Y-105255231D01*
X173040680Y-104885889D01*
X173022924Y-104858571D01*
X172829731Y-104494415D01*
X172774538Y-104184410D01*
X172851299Y-103874534D01*
X172901027Y-103769888D01*
X173018245Y-103593979D01*
X173187668Y-103447578D01*
X173440004Y-103314694D01*
X173805964Y-103179335D01*
X174316257Y-103025511D01*
X174347540Y-103016644D01*
X174897738Y-102855002D01*
X175445354Y-102680242D01*
X176034127Y-102477374D01*
X176707800Y-102231406D01*
X177376620Y-101978482D01*
X177860241Y-101805317D01*
X178442087Y-101614779D01*
X179045154Y-101431272D01*
X179538322Y-101293378D01*
X180085957Y-101138874D01*
X180671959Y-100957369D01*
X181223151Y-100772372D01*
X181636382Y-100619385D01*
X182119783Y-100435742D01*
X182689805Y-100231756D01*
X183260216Y-100037813D01*
X183572907Y-99936986D01*
X184113583Y-99759994D01*
X184523801Y-99603913D01*
X184848177Y-99447229D01*
X185131330Y-99268429D01*
X185413838Y-99049348D01*
X185678527Y-98830102D01*
X184592562Y-97766186D01*
X184154976Y-97320432D01*
X183696798Y-96824725D01*
X183263787Y-96330381D01*
X182901701Y-95888714D01*
X182800533Y-95756524D01*
X182483243Y-95337400D01*
X182153623Y-94911844D01*
X181852408Y-94531917D01*
X181636288Y-94268499D01*
X181381649Y-93935858D01*
X181095997Y-93514344D01*
X180827734Y-93076773D01*
X180738244Y-92917435D01*
X180481723Y-92467309D01*
X180172600Y-91956468D01*
X179863256Y-91470587D01*
X179748203Y-91298014D01*
X179459431Y-90850930D01*
X179156011Y-90346129D01*
X178887626Y-89867422D01*
X178795926Y-89691583D01*
X178556820Y-89263612D01*
X178264145Y-88809412D01*
X177939017Y-88354721D01*
X177602548Y-87925272D01*
X177275854Y-87546802D01*
X176980048Y-87245046D01*
X176736244Y-87045739D01*
X176566842Y-86974609D01*
X176361542Y-86918753D01*
X176293437Y-86786537D01*
X176374380Y-86630990D01*
X176474388Y-86561073D01*
X176688284Y-86404673D01*
X176806467Y-86275804D01*
X176958429Y-86151404D01*
X177185892Y-86152092D01*
X177193875Y-86153661D01*
X177407703Y-86152430D01*
X177768069Y-86098619D01*
X178250578Y-85996504D01*
X178646131Y-85899042D01*
X179196579Y-85764513D01*
X179792435Y-85631553D01*
X180358293Y-85516342D01*
X180780708Y-85441023D01*
X181683012Y-85282532D01*
X182561615Y-85095310D01*
X183483204Y-84864071D01*
X184330123Y-84627302D01*
X184884554Y-84480985D01*
X185527464Y-84333537D01*
X186168408Y-84204746D01*
X186590283Y-84132779D01*
X187326253Y-84013799D01*
X187932548Y-83897577D01*
X188458916Y-83770797D01*
X188955107Y-83620142D01*
X189470869Y-83432294D01*
X189982907Y-83224612D01*
X190364218Y-83068165D01*
X190702806Y-82939263D01*
X191030911Y-82829361D01*
X191380773Y-82729917D01*
X191784633Y-82632388D01*
X192274731Y-82528229D01*
X192883307Y-82408897D01*
X193501738Y-82292165D01*
X194015029Y-82190787D01*
X194522910Y-82081125D01*
X194969907Y-81975728D01*
X195300549Y-81887146D01*
X195325674Y-81879512D01*
X195640025Y-81775001D01*
X195817455Y-81688150D01*
X195895723Y-81592606D01*
X195912623Y-81469881D01*
X195934486Y-81327079D01*
X195996333Y-81033776D01*
X196092551Y-80613747D01*
X196217528Y-80090769D01*
X196365651Y-79488615D01*
X196531308Y-78831061D01*
X196586868Y-78613748D01*
X196778099Y-77859659D01*
X196972352Y-77077817D01*
X197159806Y-76308888D01*
X197330642Y-75593541D01*
X197475039Y-74972443D01*
X197580277Y-74499787D01*
X197717162Y-73881182D01*
X197872999Y-73207113D01*
X198031239Y-72547442D01*
X198175332Y-71972034D01*
X198215797Y-71816936D01*
X198499332Y-70737971D01*
X198740021Y-69804784D01*
X198943814Y-68989748D01*
X199116661Y-68265234D01*
X199264512Y-67603614D01*
X199393316Y-66977260D01*
X199509023Y-66358542D01*
X199617583Y-65719833D01*
X199724945Y-65033504D01*
X199829871Y-64321772D01*
X199952214Y-63472247D01*
X200049860Y-62784356D01*
X200124162Y-62241486D01*
X200176471Y-61827023D01*
X200208138Y-61524352D01*
X200220517Y-61316860D01*
X200214958Y-61187933D01*
X200192813Y-61120957D01*
X200155434Y-61099317D01*
X200104174Y-61106400D01*
X200091183Y-61110159D01*
X199930384Y-61147255D01*
X199641394Y-61204022D01*
X199273785Y-61270937D01*
X199073340Y-61305675D01*
X198572011Y-61398747D01*
X198002556Y-61516126D01*
X197470919Y-61635751D01*
X197361993Y-61662032D01*
X196168029Y-61957711D01*
X195132249Y-62220191D01*
X194236769Y-62454372D01*
X193463707Y-62665157D01*
X192795180Y-62857446D01*
X192213305Y-63036141D01*
X191700199Y-63206143D01*
X191596839Y-63242137D01*
X191056713Y-63423343D01*
X190404813Y-63628720D01*
X189704229Y-63839154D01*
X189018052Y-64035529D01*
X188624499Y-64142643D01*
X188040893Y-64302063D01*
X187461482Y-64468379D01*
X186930675Y-64628271D01*
X186492878Y-64768416D01*
X186229999Y-64860940D01*
X185890815Y-64983267D01*
X185428075Y-65140890D01*
X184890836Y-65317562D01*
X184328153Y-65497035D01*
X184023262Y-65591775D01*
X183407147Y-65791171D01*
X182732863Y-66025919D01*
X182069595Y-66270948D01*
X181486527Y-66501183D01*
X181315097Y-66573246D01*
X180796199Y-66788784D01*
X180253305Y-67002085D01*
X179746352Y-67190316D01*
X179335279Y-67330645D01*
X179288501Y-67345258D01*
X178929246Y-67463533D01*
X178451039Y-67632179D01*
X177901803Y-67833711D01*
X177329457Y-68050645D01*
X176952694Y-68197568D01*
X176422612Y-68404918D01*
X175912992Y-68600525D01*
X175462551Y-68769803D01*
X175110003Y-68898166D01*
X174926099Y-68961074D01*
X174680360Y-69045507D01*
X174304875Y-69181712D01*
X173837565Y-69355598D01*
X173316353Y-69553075D01*
X172854467Y-69730814D01*
X171856929Y-70102120D01*
X170991302Y-70389993D01*
X170233821Y-70601638D01*
X169560717Y-70744259D01*
X169450914Y-70762485D01*
X169206231Y-70817335D01*
X169107477Y-70891338D01*
X169108871Y-70972990D01*
X169159103Y-71169479D01*
X169208407Y-71392340D01*
X169264669Y-71614217D01*
X169359070Y-71936881D01*
X169471245Y-72290741D01*
X169472007Y-72293049D01*
X169681564Y-72926890D01*
X169843099Y-73424013D01*
X169963093Y-73819398D01*
X170048024Y-74148026D01*
X170104370Y-74444880D01*
X170138610Y-74744939D01*
X170157224Y-75083186D01*
X170166689Y-75494601D01*
X170173486Y-76014167D01*
X170174433Y-76085692D01*
X170179297Y-76696194D01*
X170179797Y-77431016D01*
X170176219Y-78234398D01*
X170168852Y-79050578D01*
X170157981Y-79823795D01*
X170154077Y-80039148D01*
X170141317Y-80737585D01*
X170134177Y-81281833D01*
X170134127Y-81697800D01*
X170142642Y-82011391D01*
X170161193Y-82248513D01*
X170191253Y-82435071D01*
X170234294Y-82596972D01*
X170291790Y-82760121D01*
X170311701Y-82812208D01*
X170419434Y-83120706D01*
X170492356Y-83385005D01*
X170512623Y-83518184D01*
X170547614Y-83684166D01*
X170640558Y-83961207D01*
X170773409Y-84297042D01*
X170814645Y-84392996D01*
X170980652Y-84821234D01*
X171129637Y-85290141D01*
X171230270Y-85700738D01*
X171232675Y-85713616D01*
X171303655Y-86065491D01*
X171376893Y-86374809D01*
X171434762Y-86569290D01*
X171568379Y-87019892D01*
X171679882Y-87587925D01*
X171764067Y-88219491D01*
X171815733Y-88860687D01*
X171829677Y-89457614D01*
X171800696Y-89956372D01*
X171776729Y-90112153D01*
X171640354Y-90604035D01*
X171417930Y-91173938D01*
X171138462Y-91761266D01*
X170830953Y-92305426D01*
X170524406Y-92745822D01*
X170504348Y-92770452D01*
X170235784Y-93098327D01*
X169954194Y-93445294D01*
X169777207Y-93665451D01*
X169447109Y-94078791D01*
X169848965Y-94601033D01*
X170094983Y-94898691D01*
X170346381Y-95167712D01*
X170539347Y-95342043D01*
X170827781Y-95539592D01*
X171238079Y-95792523D01*
X171729784Y-96078085D01*
X172262444Y-96373529D01*
X172795603Y-96656105D01*
X173288809Y-96903063D01*
X173455398Y-96981935D01*
X173953026Y-97234793D01*
X174276910Y-97458488D01*
X174428620Y-97665285D01*
X174409725Y-97867451D01*
X174221794Y-98077251D01*
X173866397Y-98306952D01*
X173640191Y-98426163D01*
X173263900Y-98630024D01*
X172817566Y-98893122D01*
X172377615Y-99169830D01*
X172225082Y-99271031D01*
X171780895Y-99554086D01*
X171262548Y-99858569D01*
X170760240Y-100132166D01*
X170602694Y-100212042D01*
X170124748Y-100456321D01*
X169593879Y-100740381D01*
X169101820Y-101014794D01*
X168954054Y-101100404D01*
X168596297Y-101313817D01*
X168368519Y-101464500D01*
X168244020Y-101578618D01*
X168196100Y-101682337D01*
X167214067Y-101682337D01*
X167175151Y-101234264D01*
X167123108Y-100697472D01*
X167048443Y-100113978D01*
X166963068Y-99571251D01*
X166912393Y-99305085D01*
X166829472Y-98844958D01*
X166765474Y-98370274D01*
X166730436Y-97960444D01*
X166726791Y-97836325D01*
X166725263Y-97518477D01*
X167382984Y-97518477D01*
X167398215Y-97755893D01*
X167437396Y-98032247D01*
X167505250Y-98376383D01*
X167606495Y-98817146D01*
X167745853Y-99383380D01*
X167866242Y-99860510D01*
X168118928Y-100857050D01*
X168958385Y-100287898D01*
X169390436Y-100006986D01*
X169859418Y-99721289D01*
X170293575Y-99473786D01*
X170492999Y-99368765D01*
X170916248Y-99137361D01*
X171369770Y-98860899D01*
X171758508Y-98597455D01*
X171773616Y-98586348D01*
X172102650Y-98350543D01*
X172424352Y-98131977D01*
X172674153Y-97974389D01*
X172693470Y-97963224D01*
X173027863Y-97772537D01*
X171837796Y-97111674D01*
X171197202Y-96752832D01*
X170692099Y-96460661D01*
X170298395Y-96218259D01*
X169992000Y-96008722D01*
X169748823Y-95815150D01*
X169544772Y-95620638D01*
X169355755Y-95408286D01*
X169282361Y-95318779D01*
X169067775Y-95061201D01*
X168894296Y-94868484D01*
X168793677Y-94775540D01*
X168784962Y-94771981D01*
X168710119Y-94838133D01*
X168559049Y-95021059D01*
X168357235Y-95288849D01*
X168225797Y-95472147D01*
X167995321Y-95791373D01*
X167790525Y-96061002D01*
X167641672Y-96241822D01*
X167596309Y-96287829D01*
X167512610Y-96444659D01*
X167443041Y-96745459D01*
X167405496Y-97045078D01*
X167386985Y-97291153D01*
X167382984Y-97518477D01*
X166725263Y-97518477D01*
X166723938Y-97242694D01*
X166527918Y-97512907D01*
X166329230Y-97749875D01*
X166081723Y-97999475D01*
X166021840Y-98053333D01*
X165829249Y-98225142D01*
X165546067Y-98482683D01*
X165213205Y-98788572D01*
X164929298Y-99051664D01*
X164565367Y-99375966D01*
X164210188Y-99656272D01*
X163819806Y-99922731D01*
X163350269Y-100205491D01*
X162803655Y-100509722D01*
X162058748Y-100896077D01*
X161410661Y-101194148D01*
X160879481Y-101394916D01*
X160739928Y-101436469D01*
X160311213Y-101574353D01*
X159816591Y-101764623D01*
X159347285Y-101971563D01*
X159242948Y-102022547D01*
X158840119Y-102202768D01*
X158361112Y-102382571D01*
X157834344Y-102555035D01*
X157288234Y-102713237D01*
X156751200Y-102850254D01*
X156251661Y-102959165D01*
X155818034Y-103033047D01*
X155478737Y-103064977D01*
X155262188Y-103048033D01*
X155200567Y-103007233D01*
X155254999Y-102940695D01*
X155442352Y-102861485D01*
X155650921Y-102804059D01*
X156400801Y-102612993D01*
X157169846Y-102381644D01*
X157909228Y-102126877D01*
X158570121Y-101865560D01*
X159103695Y-101614557D01*
X159120629Y-101605543D01*
X159570452Y-101379314D01*
X160065180Y-101153172D01*
X160519763Y-100965366D01*
X160657304Y-100914472D01*
X161280666Y-100651067D01*
X161978829Y-100284392D01*
X162705123Y-99844206D01*
X163412881Y-99360268D01*
X164055435Y-98862338D01*
X164503939Y-98461558D01*
X164815990Y-98162937D01*
X165085336Y-97913190D01*
X165283767Y-97737930D01*
X165383071Y-97662769D01*
X165384284Y-97662308D01*
X165481261Y-97579424D01*
X165639170Y-97401341D01*
X165818343Y-97178490D01*
X165979109Y-96961304D01*
X166081797Y-96800212D01*
X166099148Y-96753519D01*
X166024270Y-96698288D01*
X165941524Y-96683009D01*
X165305343Y-96584168D01*
X164650909Y-96398104D01*
X164023418Y-96144216D01*
X163468070Y-95841906D01*
X163030062Y-95510573D01*
X162901039Y-95377945D01*
X162532875Y-94892268D01*
X162274248Y-94391543D01*
X162121164Y-93848956D01*
X162069630Y-93237698D01*
X162115652Y-92530957D01*
X162255236Y-91701920D01*
X162313272Y-91431997D01*
X162470683Y-90736614D01*
X162603249Y-90187387D01*
X162723747Y-89754305D01*
X162844955Y-89407354D01*
X162979653Y-89116523D01*
X163140617Y-88851798D01*
X163340627Y-88583168D01*
X163592460Y-88280620D01*
X163716242Y-88136812D01*
X164051875Y-87748220D01*
X164387938Y-87358756D01*
X164684330Y-87014912D01*
X164892539Y-86772973D01*
X165176483Y-86480801D01*
X165495825Y-86208323D01*
X165721079Y-86052406D01*
X165939606Y-85933919D01*
X166139367Y-85860683D01*
X166374289Y-85822410D01*
X166698299Y-85808808D01*
X166999857Y-85808417D01*
X168032515Y-85894701D01*
X168984826Y-86141322D01*
X169855051Y-86547718D01*
X170380463Y-86900803D01*
X170615933Y-87076598D01*
X170737697Y-87149074D01*
X170773398Y-87126590D01*
X170750678Y-87017505D01*
X170749189Y-87012305D01*
X170704933Y-86830941D01*
X170637851Y-86524079D01*
X170558998Y-86143148D01*
X170515240Y-85923867D01*
X170419839Y-85499926D01*
X170309040Y-85099625D01*
X170200973Y-84785554D01*
X170156968Y-84686874D01*
X170033448Y-84391387D01*
X169912375Y-84016543D01*
X169845890Y-83756056D01*
X169750131Y-83341795D01*
X169636755Y-82880505D01*
X169566117Y-82607507D01*
X169498137Y-82321779D01*
X169461135Y-82060670D01*
X169453237Y-81771320D01*
X169472572Y-81400868D01*
X169508689Y-80986231D01*
X169547004Y-80463958D01*
X169570089Y-79903994D01*
X169575242Y-79389659D01*
X169568640Y-79138439D01*
X169560654Y-78653851D01*
X169574955Y-78125193D01*
X169608435Y-77657487D01*
X169613965Y-77607233D01*
X169650847Y-76957410D01*
X169632221Y-76195665D01*
X169564123Y-75379376D01*
X169452593Y-74565924D01*
X169303667Y-73812688D01*
X169159040Y-73283829D01*
X169009688Y-72803568D01*
X168857098Y-72288284D01*
X168726205Y-71823004D01*
X168683595Y-71662553D01*
X168583572Y-71320027D01*
X168482354Y-71046172D01*
X168397887Y-70887694D01*
X168379040Y-70869956D01*
X168291666Y-70734263D01*
X168260850Y-70546853D01*
X168211729Y-70371670D01*
X168085131Y-70109233D01*
X167912208Y-69810132D01*
X167724110Y-69524957D01*
X167551988Y-69304298D01*
X167431900Y-69200614D01*
X167376917Y-69098379D01*
X167360141Y-68950026D01*
X167298443Y-68606101D01*
X167104892Y-68237711D01*
X166766806Y-67823664D01*
X166559407Y-67612181D01*
X166248083Y-67280113D01*
X166063498Y-67019886D01*
X166010881Y-66842473D01*
X166095459Y-66758850D01*
X166150473Y-66753687D01*
X166363631Y-66819780D01*
X166647400Y-66995515D01*
X166963434Y-67247084D01*
X167273385Y-67540674D01*
X167538907Y-67842475D01*
X167721653Y-68118676D01*
X167738797Y-68154140D01*
X167833275Y-68361497D01*
X168655042Y-67915507D01*
X169059266Y-67701138D01*
X169460573Y-67496783D01*
X169797683Y-67333307D01*
X169927162Y-67274748D01*
X170216390Y-67142211D01*
X170597369Y-66957580D01*
X171002954Y-66753630D01*
X171143120Y-66681236D01*
X171559176Y-66473409D01*
X171993779Y-66270640D01*
X172370596Y-66108169D01*
X172464477Y-66071216D01*
X172858319Y-65900057D01*
X173272588Y-65687531D01*
X173500293Y-65553151D01*
X173796648Y-65375557D01*
X174190649Y-65155379D01*
X174617672Y-64928266D01*
X174825362Y-64822248D01*
X175316284Y-64564808D01*
X175875915Y-64249624D01*
X176523091Y-63865479D01*
X177276648Y-63401155D01*
X178155423Y-62845434D01*
X178299143Y-62753539D01*
X178965259Y-62306712D01*
X179717854Y-61767433D01*
X180514058Y-61168622D01*
X181310997Y-60543205D01*
X182065800Y-59924103D01*
X182717233Y-59360675D01*
X183114601Y-59010310D01*
X183541036Y-58642232D01*
X183936186Y-58308185D01*
X184158368Y-58125134D01*
X185212155Y-57259415D01*
X186203576Y-56421286D01*
X187113151Y-55627856D01*
X187921398Y-54896233D01*
X188608837Y-54243525D01*
X188842056Y-54011966D01*
X189531004Y-53288522D01*
X190254779Y-52477112D01*
X190976038Y-51622668D01*
X191657438Y-50770122D01*
X192261634Y-49964407D01*
X192562360Y-49535693D01*
X192722037Y-49291141D01*
X192791457Y-49128726D01*
X192783404Y-48982822D01*
X192710665Y-48787804D01*
X192708893Y-48783563D01*
X192590229Y-48584891D01*
X192374903Y-48300876D01*
X192095250Y-47971914D01*
X191831927Y-47687964D01*
X191505178Y-47355685D01*
X191262097Y-47129645D01*
X191064628Y-46983286D01*
X190874719Y-46890050D01*
X190654316Y-46823378D01*
X190561009Y-46800957D01*
X190261044Y-46742006D01*
X189993211Y-46722816D01*
X189689623Y-46743878D01*
X189282393Y-46805680D01*
X189254981Y-46810384D01*
X188591387Y-46942161D01*
X187790405Y-47130638D01*
X186882721Y-47367684D01*
X185899020Y-47645170D01*
X184869986Y-47954969D01*
X184518652Y-48065136D01*
X183924790Y-48249437D01*
X183297402Y-48437644D01*
X182694491Y-48612774D01*
X182174060Y-48757846D01*
X181951630Y-48816709D01*
X181441471Y-48960856D01*
X180900615Y-49134718D01*
X180407130Y-49312293D01*
X180150212Y-49416750D01*
X179696023Y-49605676D01*
X179166365Y-49812673D01*
X178657219Y-50000521D01*
X178528935Y-50045470D01*
X177623726Y-50382880D01*
X176608574Y-50804921D01*
X175521327Y-51293226D01*
X174399833Y-51829426D01*
X173281941Y-52395155D01*
X172205499Y-52972043D01*
X171208355Y-53541725D01*
X170737801Y-53826502D01*
X169369387Y-54713849D01*
X168078710Y-55631294D01*
X166886464Y-56562161D01*
X165813345Y-57489775D01*
X164880047Y-58397462D01*
X164363653Y-58962553D01*
X164107786Y-59250595D01*
X163763095Y-59628062D01*
X163366343Y-60055230D01*
X162954288Y-60492374D01*
X162745632Y-60711012D01*
X162339979Y-61139473D01*
X162049098Y-61461567D01*
X161858268Y-61696161D01*
X161752772Y-61862124D01*
X161717892Y-61978322D01*
X161722167Y-62023000D01*
X161709016Y-62240645D01*
X161625860Y-62424048D01*
X161509945Y-62535666D01*
X161344225Y-62589476D01*
X161109285Y-62581433D01*
X160785716Y-62507495D01*
X160354103Y-62363618D01*
X159795037Y-62145758D01*
X159299506Y-61939469D01*
X158436768Y-61599060D01*
X157455266Y-61253921D01*
X156414862Y-60922633D01*
X155375417Y-60623777D01*
X154396796Y-60375934D01*
X153932502Y-60273526D01*
X153377562Y-60166250D01*
X152832836Y-60078682D01*
X152272201Y-60009032D01*
X151669532Y-59955507D01*
X150998707Y-59916315D01*
X150233601Y-59889664D01*
X149348092Y-59873763D01*
X148316056Y-59866819D01*
X147994893Y-59866234D01*
X146874319Y-59869042D01*
X145905348Y-59882169D01*
X145059563Y-59909210D01*
X144308552Y-59953760D01*
X143623900Y-60019415D01*
X142977192Y-60109769D01*
X142340014Y-60228417D01*
X141683951Y-60378955D01*
X140980590Y-60564977D01*
X140201515Y-60790078D01*
X139843474Y-60897568D01*
X139030023Y-61152946D01*
X138271698Y-61408800D01*
X137588831Y-61657125D01*
X137001751Y-61889918D01*
X136530790Y-62099174D01*
X136196279Y-62276889D01*
X136034333Y-62397251D01*
X135778024Y-62571892D01*
X135526527Y-62584273D01*
X135313735Y-62434042D01*
X135292318Y-62404935D01*
X135197623Y-62221220D01*
X135078062Y-61925940D01*
X134958431Y-61580689D01*
X134950693Y-61556238D01*
X134766029Y-61055553D01*
X134498070Y-60446680D01*
X134167086Y-59768827D01*
X133793347Y-59061198D01*
X133397126Y-58363003D01*
X132998692Y-57713446D01*
X132833924Y-57462117D01*
X131608728Y-55763534D01*
X130218334Y-54068569D01*
X128677420Y-52390584D01*
X127000668Y-50742940D01*
X125202755Y-49138999D01*
X123298363Y-47592121D01*
X121302170Y-46115667D01*
X119228856Y-44723000D01*
X118001276Y-43961613D01*
X117397683Y-43612190D01*
X116674889Y-43215736D01*
X115879345Y-42796002D01*
X115057503Y-42376743D01*
X114255813Y-41981709D01*
X113520726Y-41634654D01*
X112978368Y-41393155D01*
X111963616Y-40958920D01*
X111553187Y-41158322D01*
X111322788Y-41287431D01*
X111156527Y-41439653D01*
X111010936Y-41665997D01*
X110866905Y-41963684D01*
X110693193Y-42388950D01*
X110513483Y-42919618D01*
X110320728Y-43578489D01*
X110107880Y-44388364D01*
X110067072Y-44551205D01*
X109980949Y-44853014D01*
X109863591Y-45212437D01*
X109802378Y-45384100D01*
X109627404Y-45856710D01*
X109089259Y-45856710D01*
X109027647Y-45760070D01*
X108931092Y-45561009D01*
X108904113Y-45385297D01*
X108881366Y-45199175D01*
X108820286Y-44890970D01*
X108731615Y-44511929D01*
X108674629Y-44290521D01*
X108483240Y-43533160D01*
X108303438Y-42749880D01*
X108144798Y-41987322D01*
X108016891Y-41292125D01*
X107929290Y-40710932D01*
X107914718Y-40588084D01*
X107868537Y-40203017D01*
X107819720Y-39850274D01*
X107777856Y-39598438D01*
X107773021Y-39574787D01*
X107744539Y-39375163D01*
X107793765Y-39295211D01*
X107912282Y-39282056D01*
X108190175Y-39311385D01*
G37*
D12*
%TO.C,D1*%
X127110000Y-87705000D02*
X127110000Y-90795000D01*
X127110000Y-87705170D02*
G75*
G02*
X132660000Y-89250000I2560000J-1544830D01*
G01*
X132660000Y-89250000D02*
G75*
G02*
X127110000Y-90794830I-2990000J0D01*
G01*
X132170000Y-89250000D02*
G75*
G02*
X127170000Y-89250000I-2500000J0D01*
G01*
X127170000Y-89250000D02*
G75*
G02*
X132170000Y-89250000I2500000J0D01*
G01*
%TO.C,D2*%
X163570000Y-89465000D02*
X163570000Y-92555000D01*
X163570000Y-89465170D02*
G75*
G02*
X169120000Y-91010000I2560000J-1544830D01*
G01*
X169120000Y-91010000D02*
G75*
G02*
X163570000Y-92554830I-2990000J0D01*
G01*
X168630000Y-91010000D02*
G75*
G02*
X163630000Y-91010000I-2500000J0D01*
G01*
X163630000Y-91010000D02*
G75*
G02*
X168630000Y-91010000I2500000J0D01*
G01*
%TD*%
M02*
