%TF.GenerationSoftware,KiCad,Pcbnew,9.0.2*%
%TF.CreationDate,2025-05-23T21:21:04+05:30*%
%TF.ProjectId,transisted-v2,7472616e-7369-4737-9465-642d76322e6b,rev?*%
%TF.SameCoordinates,Original*%
%TF.FileFunction,Copper,L2,Bot*%
%TF.FilePolarity,Positive*%
%FSLAX46Y46*%
G04 Gerber Fmt 4.6, Leading zero omitted, Abs format (unit mm)*
G04 Created by KiCad (PCBNEW 9.0.2) date 2025-05-23 21:21:04*
%MOMM*%
%LPD*%
G01*
G04 APERTURE LIST*
%TA.AperFunction,ComponentPad*%
%ADD10R,1.800000X1.800000*%
%TD*%
%TA.AperFunction,ComponentPad*%
%ADD11C,1.800000*%
%TD*%
%TA.AperFunction,ComponentPad*%
%ADD12C,1.600000*%
%TD*%
%TA.AperFunction,ComponentPad*%
%ADD13C,2.000000*%
%TD*%
%TA.AperFunction,SMDPad,CuDef*%
%ADD14R,1.270000X5.080000*%
%TD*%
%TA.AperFunction,SMDPad,CuDef*%
%ADD15C,17.800000*%
%TD*%
%TA.AperFunction,ComponentPad*%
%ADD16C,1.440000*%
%TD*%
%TA.AperFunction,Conductor*%
%ADD17C,0.200000*%
%TD*%
G04 APERTURE END LIST*
D10*
%TO.P,D1,1,K*%
%TO.N,Net-(BT1--)*%
X128400000Y-89250000D03*
D11*
%TO.P,D1,2,A*%
%TO.N,Net-(D1-A)*%
X130940000Y-89250000D03*
%TD*%
D10*
%TO.P,D2,1,K*%
%TO.N,Net-(BT1--)*%
X164860000Y-91010000D03*
D11*
%TO.P,D2,2,A*%
%TO.N,Net-(D1-A)*%
X167400000Y-91010000D03*
%TD*%
D12*
%TO.P,R1,1*%
%TO.N,Net-(BT1-+)*%
X131800000Y-110570000D03*
%TO.P,R1,2*%
%TO.N,Net-(R1-Pad2)*%
X131800000Y-118190000D03*
%TD*%
D13*
%TO.P,SW1,1,1*%
%TO.N,Net-(R1-Pad2)*%
X142110000Y-123630000D03*
X135610000Y-123630000D03*
%TO.P,SW1,2,2*%
%TO.N,Net-(RV1-Pad1)*%
X142110000Y-128130000D03*
X135610000Y-128130000D03*
%TD*%
D14*
%TO.P,BT1,1,+*%
%TO.N,Net-(BT1-+)*%
X158105000Y-109640000D03*
X136135000Y-109640000D03*
D15*
%TO.P,BT1,2,-*%
%TO.N,Net-(BT1--)*%
X147120000Y-109640000D03*
%TD*%
D16*
%TO.P,RV1,1,1*%
%TO.N,Net-(RV1-Pad1)*%
X155090000Y-129840000D03*
%TO.P,RV1,2,2*%
%TO.N,unconnected-(RV1-Pad2)*%
X152550000Y-127300000D03*
%TO.P,RV1,3,3*%
%TO.N,Net-(BT1--)*%
X155090000Y-124760000D03*
%TD*%
D17*
%TO.N,Net-(BT1--)*%
X128400000Y-89250000D02*
X128400000Y-90920000D01*
X155090000Y-124760000D02*
X155090000Y-117610000D01*
X164860000Y-91900000D02*
X147120000Y-109640000D01*
X155090000Y-117610000D02*
X147120000Y-109640000D01*
X128400000Y-90920000D02*
X147120000Y-109640000D01*
X164860000Y-91010000D02*
X164860000Y-91900000D01*
%TO.N,Net-(BT1-+)*%
X154610000Y-127440000D02*
X151400000Y-124230000D01*
X131800000Y-110570000D02*
X135205000Y-110570000D01*
X135205000Y-110570000D02*
X136135000Y-109640000D01*
X154680000Y-127370000D02*
X154610000Y-127440000D01*
X136135000Y-115135000D02*
X136135000Y-109640000D01*
X160100000Y-126570000D02*
X159300000Y-127370000D01*
X159300000Y-127370000D02*
X154680000Y-127370000D01*
X151400000Y-124230000D02*
X145230000Y-124230000D01*
X145230000Y-124230000D02*
X136135000Y-115135000D01*
X158105000Y-109640000D02*
X160100000Y-111635000D01*
X160100000Y-111635000D02*
X160100000Y-126570000D01*
%TO.N,Net-(D1-A)*%
X166720000Y-88040000D02*
X167400000Y-88720000D01*
X167400000Y-88720000D02*
X167400000Y-91010000D01*
X130940000Y-89250000D02*
X132250000Y-87940000D01*
X132250000Y-87940000D02*
X166720000Y-87940000D01*
X166720000Y-87940000D02*
X166720000Y-88040000D01*
%TO.N,Net-(R1-Pad2)*%
X135610000Y-123630000D02*
X142110000Y-123630000D01*
X135610000Y-123630000D02*
X131800000Y-119820000D01*
X131800000Y-119820000D02*
X131800000Y-118190000D01*
%TO.N,Net-(RV1-Pad1)*%
X143820000Y-129840000D02*
X155090000Y-129840000D01*
X142110000Y-128130000D02*
X143820000Y-129840000D01*
X142110000Y-128130000D02*
X135610000Y-128130000D01*
%TD*%
M02*
