%TF.GenerationSoftware,KiCad,Pcbnew,9.0.2*%
%TF.CreationDate,2025-05-23T21:21:04+05:30*%
%TF.ProjectId,transisted-v2,7472616e-7369-4737-9465-642d76322e6b,rev?*%
%TF.SameCoordinates,Original*%
%TF.FileFunction,Legend,Bot*%
%TF.FilePolarity,Positive*%
%FSLAX46Y46*%
G04 Gerber Fmt 4.6, Leading zero omitted, Abs format (unit mm)*
G04 Created by KiCad (PCBNEW 9.0.2) date 2025-05-23 21:21:04*
%MOMM*%
%LPD*%
G01*
G04 APERTURE LIST*
%ADD10C,0.150000*%
%ADD11C,0.120000*%
G04 APERTURE END LIST*
D10*
X129884819Y-114213333D02*
X129408628Y-113880000D01*
X129884819Y-113641905D02*
X128884819Y-113641905D01*
X128884819Y-113641905D02*
X128884819Y-114022857D01*
X128884819Y-114022857D02*
X128932438Y-114118095D01*
X128932438Y-114118095D02*
X128980057Y-114165714D01*
X128980057Y-114165714D02*
X129075295Y-114213333D01*
X129075295Y-114213333D02*
X129218152Y-114213333D01*
X129218152Y-114213333D02*
X129313390Y-114165714D01*
X129313390Y-114165714D02*
X129361009Y-114118095D01*
X129361009Y-114118095D02*
X129408628Y-114022857D01*
X129408628Y-114022857D02*
X129408628Y-113641905D01*
X129884819Y-115165714D02*
X129884819Y-114594286D01*
X129884819Y-114880000D02*
X128884819Y-114880000D01*
X128884819Y-114880000D02*
X129027676Y-114784762D01*
X129027676Y-114784762D02*
X129122914Y-114689524D01*
X129122914Y-114689524D02*
X129170533Y-114594286D01*
X140193332Y-122037200D02*
X140050475Y-122084819D01*
X140050475Y-122084819D02*
X139812380Y-122084819D01*
X139812380Y-122084819D02*
X139717142Y-122037200D01*
X139717142Y-122037200D02*
X139669523Y-121989580D01*
X139669523Y-121989580D02*
X139621904Y-121894342D01*
X139621904Y-121894342D02*
X139621904Y-121799104D01*
X139621904Y-121799104D02*
X139669523Y-121703866D01*
X139669523Y-121703866D02*
X139717142Y-121656247D01*
X139717142Y-121656247D02*
X139812380Y-121608628D01*
X139812380Y-121608628D02*
X140002856Y-121561009D01*
X140002856Y-121561009D02*
X140098094Y-121513390D01*
X140098094Y-121513390D02*
X140145713Y-121465771D01*
X140145713Y-121465771D02*
X140193332Y-121370533D01*
X140193332Y-121370533D02*
X140193332Y-121275295D01*
X140193332Y-121275295D02*
X140145713Y-121180057D01*
X140145713Y-121180057D02*
X140098094Y-121132438D01*
X140098094Y-121132438D02*
X140002856Y-121084819D01*
X140002856Y-121084819D02*
X139764761Y-121084819D01*
X139764761Y-121084819D02*
X139621904Y-121132438D01*
X139288570Y-121084819D02*
X139050475Y-122084819D01*
X139050475Y-122084819D02*
X138859999Y-121370533D01*
X138859999Y-121370533D02*
X138669523Y-122084819D01*
X138669523Y-122084819D02*
X138431428Y-121084819D01*
X137526666Y-122084819D02*
X138098094Y-122084819D01*
X137812380Y-122084819D02*
X137812380Y-121084819D01*
X137812380Y-121084819D02*
X137907618Y-121227676D01*
X137907618Y-121227676D02*
X138002856Y-121322914D01*
X138002856Y-121322914D02*
X138098094Y-121370533D01*
X147905714Y-98071009D02*
X147762857Y-98118628D01*
X147762857Y-98118628D02*
X147715238Y-98166247D01*
X147715238Y-98166247D02*
X147667619Y-98261485D01*
X147667619Y-98261485D02*
X147667619Y-98404342D01*
X147667619Y-98404342D02*
X147715238Y-98499580D01*
X147715238Y-98499580D02*
X147762857Y-98547200D01*
X147762857Y-98547200D02*
X147858095Y-98594819D01*
X147858095Y-98594819D02*
X148239047Y-98594819D01*
X148239047Y-98594819D02*
X148239047Y-97594819D01*
X148239047Y-97594819D02*
X147905714Y-97594819D01*
X147905714Y-97594819D02*
X147810476Y-97642438D01*
X147810476Y-97642438D02*
X147762857Y-97690057D01*
X147762857Y-97690057D02*
X147715238Y-97785295D01*
X147715238Y-97785295D02*
X147715238Y-97880533D01*
X147715238Y-97880533D02*
X147762857Y-97975771D01*
X147762857Y-97975771D02*
X147810476Y-98023390D01*
X147810476Y-98023390D02*
X147905714Y-98071009D01*
X147905714Y-98071009D02*
X148239047Y-98071009D01*
X147381904Y-97594819D02*
X146810476Y-97594819D01*
X147096190Y-98594819D02*
X147096190Y-97594819D01*
X145953333Y-98594819D02*
X146524761Y-98594819D01*
X146239047Y-98594819D02*
X146239047Y-97594819D01*
X146239047Y-97594819D02*
X146334285Y-97737676D01*
X146334285Y-97737676D02*
X146429523Y-97832914D01*
X146429523Y-97832914D02*
X146524761Y-97880533D01*
X155745238Y-123204819D02*
X156078571Y-122728628D01*
X156316666Y-123204819D02*
X156316666Y-122204819D01*
X156316666Y-122204819D02*
X155935714Y-122204819D01*
X155935714Y-122204819D02*
X155840476Y-122252438D01*
X155840476Y-122252438D02*
X155792857Y-122300057D01*
X155792857Y-122300057D02*
X155745238Y-122395295D01*
X155745238Y-122395295D02*
X155745238Y-122538152D01*
X155745238Y-122538152D02*
X155792857Y-122633390D01*
X155792857Y-122633390D02*
X155840476Y-122681009D01*
X155840476Y-122681009D02*
X155935714Y-122728628D01*
X155935714Y-122728628D02*
X156316666Y-122728628D01*
X155459523Y-122204819D02*
X155126190Y-123204819D01*
X155126190Y-123204819D02*
X154792857Y-122204819D01*
X153935714Y-123204819D02*
X154507142Y-123204819D01*
X154221428Y-123204819D02*
X154221428Y-122204819D01*
X154221428Y-122204819D02*
X154316666Y-122347676D01*
X154316666Y-122347676D02*
X154411904Y-122442914D01*
X154411904Y-122442914D02*
X154507142Y-122490533D01*
D11*
%TO.C,R1*%
X130430000Y-111110000D02*
X130430000Y-117650000D01*
X130430000Y-117650000D02*
X130760000Y-117650000D01*
X130760000Y-111110000D02*
X130430000Y-111110000D01*
X132840000Y-111110000D02*
X133170000Y-111110000D01*
X133170000Y-111110000D02*
X133170000Y-117650000D01*
X133170000Y-117650000D02*
X132840000Y-117650000D01*
%TO.C,SW1*%
X135360000Y-126630000D02*
X135360000Y-125130000D01*
X136610000Y-122630000D02*
X141110000Y-122630000D01*
X141110000Y-129130000D02*
X136610000Y-129130000D01*
X142360000Y-125130000D02*
X142360000Y-126630000D01*
%TO.C,BT1*%
X136340000Y-104180000D02*
X136340000Y-106640000D01*
X136340000Y-112640000D02*
X136340000Y-113270000D01*
X136340000Y-113270000D02*
X137780000Y-117220000D01*
X138420000Y-102100000D02*
X136340000Y-104180000D01*
X138420000Y-102100000D02*
X141920000Y-102100000D01*
X152320000Y-102100000D02*
X155820000Y-102100000D01*
X155820000Y-102100000D02*
X157900000Y-104180000D01*
X157900000Y-104180000D02*
X157900000Y-106640000D01*
X157900000Y-112640000D02*
X157900000Y-113270000D01*
X157900000Y-113270000D02*
X156460000Y-117220000D01*
X141120000Y-118190000D02*
G75*
G02*
X137794757Y-117228169I-1310000J1700000D01*
G01*
X156460000Y-117220000D02*
G75*
G02*
X153123354Y-118206530I-2030000J730001D01*
G01*
%TO.C,RV1*%
X151540000Y-123890000D02*
X151540000Y-130710000D01*
X154708000Y-123890000D02*
X151540000Y-123890000D01*
X154708000Y-130710000D02*
X151540000Y-130710000D01*
X158760000Y-123890000D02*
X155472000Y-123890000D01*
X158760000Y-123890000D02*
X158760000Y-130710000D01*
X158760000Y-130710000D02*
X155472000Y-130710000D01*
%TD*%
M02*
